Gidole-Regular.glyphspackage
{
glyphname = exclam;
layers = (
{
background = {
shapes = (
{
closed = 1;
nodes = (
(315,204,o),
(360,159,o),
(360,94,cs),
(360,29,o),
(315,-16,o),
(250,-16,cs),
(185,-16,o),
(140,29,o),
(140,94,cs),
(140,159,o),
(185,204,o),
(250,204,cs)
);
},
{
closed = 1;
nodes = (
(328,1416,l),
(328,1051,ls),
(328,812,o),
(308,388,o),
(308,388,c),
(192,388,l),
(192,388,o),
(172,810,o),
(172,1051,cs),
(172,1416,l)
);
}
);
};
layerId = m001;
shapes = (
{
closed = 1;
nodes = (
(315,204,o),
(360,159,o),
(360,94,cs),
(360,29,o),
(315,-16,o),
(250,-16,cs),
(185,-16,o),
(140,29,o),
(140,94,cs),
(140,159,o),
(185,204,o),
(250,204,cs)
);
},
{
closed = 1;
nodes = (
(328,1416,l),
(328,1051,ls),
(328,812,o),
(308,388,o),
(308,388,c),
(192,388,l),
(192,388,o),
(172,810,o),
(172,1051,cs),
(172,1416,l)
);
}
);
userData = {
com.fontlab.hintData = {
hhints = (
{
position = -16;
width = 220;
},
{
position = 1396;
width = 20;
}
);
vhints = (
{
position = 140;
width = 220;
},
{
position = 172;
width = 156;
}
);
};
};
width = 500;
}
);
unicode = 33;
}
{
glyphname = numbersign;
layers = (
{
layerId = m001;
shapes = (
{
closed = 1;
nodes = (
(516,997,l),
(445,447,l),
(754,447,l),
(825,997,l)
);
},
{
closed = 1;
nodes = (
(694,0,l),
(737,323,l),
(428,323,l),
(385,0,l),
(244,0,l),
(287,323,l),
(126,323,l),
(126,447,l),
(304,447,l),
(375,997,l),
(214,997,l),
(214,1121,l),
(392,1121,l),
(431,1416,l),
(572,1416,l),
(533,1121,l),
(842,1121,l),
(881,1416,l),
(1022,1416,l),
(983,1121,l),
(1144,1121,l),
(1144,997,l),
(966,997,l),
(895,447,l),
(1056,447,l),
(1056,323,l),
(878,323,l),
(835,0,l)
);
}
);
userData = {
com.fontlab.hintData = {
hhints = (
{
position = 0;
width = 21;
},
{
position = 323;
width = 124;
},
{
position = 997;
width = 124;
},
{
position = 1396;
width = 20;
}
);
};
};
width = 1270;
}
);
unicode = 35;
}
{
glyphname = dollar;
layers = (
{
layerId = m001;
shapes = (
{
closed = 1;
nodes = (
(597,1616,l),
(597,1433,l),
(731,1421,o),
(850,1368,o),
(939,1313,c),
(866,1191,l),
(785,1241,o),
(694,1281,o),
(597,1292,c),
(597,791,l),
(697,770,o),
(795,743,o),
(882,654,cs),
(943,592,o),
(989,498,o),
(989,389,cs),
(989,283,o),
(951,185,o),
(877,110,cs),
(811,43,o),
(713,-4,o),
(597,-16,c),
(597,-200,l),
(491,-200,l),
(491,-17,l),
(335,-5,o),
(198,61,o),
(96,131,c),
(172,253,l),
(258,193,o),
(368,137,o),
(491,124,c),
(491,670,l),
(404,689,o),
(317,716,o),
(238,786,cs),
(172,845,o),
(118,943,o),
(118,1052,cs),
(118,1158,o),
(160,1260,o),
(247,1335,cs),
(309,1388,o),
(394,1424,o),
(491,1433,c),
(491,1616,l)
);
},
{
closed = 1;
nodes = (
(597,125,l),
(665,135,o),
(719,162,o),
(759,202,cs),
(805,248,o),
(833,313,o),
(833,389,cs),
(833,459,o),
(803,525,o),
(762,565,cs),
(716,610,o),
(665,630,o),
(597,647,c)
);
},
{
closed = 1;
nodes = (
(491,1292,l),
(434,1284,o),
(387,1262,o),
(352,1231,cs),
(305,1190,o),
(274,1127,o),
(274,1053,cs),
(274,989,o),
(303,929,o),
(343,890,cs),
(384,850,o),
(431,830,o),
(491,814,c)
);
}
);
userData = {
com.fontlab.hintData = {
hhints = (
{
position = -17;
width = 141;
},
{
position = 647;
width = 144;
},
{
position = 1292;
width = 141;
}
);
vhints = (
{
position = 118;
width = 156;
},
{
position = 491;
width = 106;
},
{
position = 833;
width = 156;
}
);
};
};
width = 1095;
}
);
unicode = 36;
}
{
glyphname = ampersand;
layers = (
{
layerId = m001;
shapes = (
{
closed = 1;
nodes = (
(804,1432,o),
(942,1308,o),
(942,1126,cs),
(942,935,o),
(802,854,o),
(734,806,cs),
(673,763,l),
(976,357,l),
(1096,490,l),
(1202,394,l),
(1063,241,l),
(1245,0,l),
(1064,0,l),
(964,133,l),
(881,51,o),
(770,-16,o),
(606,-16,cs),
(343,-16,o),
(180,159,o),
(180,372,cs),
(180,591,o),
(346,700,o),
(408,745,cs),
(472,791,l),
(421,859,ls),
(396,892,o),
(312,985,o),
(312,1127,cs),
(312,1309,o),
(445,1432,o),
(627,1432,cs)
);
},
{
closed = 1;
nodes = (
(521,1298,o),
(462,1227,o),
(462,1127,cs),
(462,1033,o),
(514,976,o),
(548,930,cs),
(590,874,l),
(652,918,ls),
(710,959,o),
(792,1009,o),
(792,1126,cs),
(792,1226,o),
(729,1298,o),
(627,1298,cs)
);
},
{
closed = 1;
nodes = (
(330,246,o),
(421,118,o),
(606,118,cs),
(731,118,o),
(810,173,o),
(877,249,c),
(555,679,l),
(501,640,ls),
(458,607,o),
(330,530,o),
(330,372,cs)
);
}
);
userData = {
com.fontlab.hintData = {
hhints = (
{
position = -16;
width = 134;
},
{
position = 0;
width = 21;
},
{
position = 1298;
width = 134;
}
);
vhints = (
{
position = 180;
width = 150;
},
{
position = 312;
width = 150;
},
{
position = 792;
width = 150;
}
);
};
};
width = 1395;
}
);
unicode = 38;
}
{
glyphname = quotesingle;
layers = (
{
layerId = m001;
shapes = (
{
closed = 1;
nodes = (
(120,1389,o),
(161,1430,o),
(220,1430,cs),
(279,1430,o),
(320,1389,o),
(320,1330,cs),
(320,1313,o),
(317,1295,o),
(314,1278,cs),
(269,1006,l),
(171,1006,l),
(126,1278,ls),
(123,1295,o),
(120,1313,o),
(120,1330,cs)
);
}
);
userData = {
com.fontlab.hintData = {
hhints = (
{
position = 1006;
width = 424;
}
);
vhints = (
{
position = 120;
width = 200;
},
{
position = 171;
width = 98;
}
);
};
};
width = 440;
}
);
unicode = 39;
}
{
glyphname = parenleft;
layers = (
{
background = {
shapes = (
{
closed = 1;
nodes = (
(313,-314,o),
(212,-145,o),
(161,36,cs),
(115,202,o),
(110,374,o),
(110,541,cs),
(110,708,o),
(116,880,o),
(161,1046,cs),
(211,1227,o),
(313,1396,o),
(467,1521,c),
(543,1433,l),
(426,1325,o),
(342,1185,o),
(299,1026,cs),
(257,871,o),
(250,706,o),
(250,541,cs),
(250,376,o),
(257,211,o),
(299,56,cs),
(342,-103,o),
(426,-243,o),
(543,-351,c),
(467,-439,l)
);
}
);
};
layerId = m001;
shapes = (
{
closed = 1;
nodes = (
(313,-314,o),
(212,-145,o),
(161,36,cs),
(115,202,o),
(110,374,o),
(110,541,cs),
(110,708,o),
(116,880,o),
(161,1046,cs),
(211,1227,o),
(313,1396,o),
(467,1521,c),
(543,1433,l),
(426,1325,o),
(342,1185,o),
(299,1026,cs),
(257,871,o),
(250,706,o),
(250,541,cs),
(250,376,o),
(257,211,o),
(299,56,cs),
(342,-103,o),
(426,-243,o),
(543,-351,c),
(467,-439,l)
);
}
);
userData = {
com.fontlab.hintData = {
vhints = (
{
position = 110;
width = 140;
}
);
};
};
width = 653;
}
);
unicode = 40;
}
{
glyphname = parenright;
layers = (
{
background = {
shapes = (
{
closed = 1;
nodes = (
(340,1396,o),
(441,1227,o),
(492,1046,cs),
(537,880,o),
(543,708,o),
(543,541,cs),
(543,374,o),
(537,202,o),
(492,36,cs),
(441,-145,o),
(340,-314,o),
(186,-439,c),
(110,-351,l),
(227,-243,o),
(311,-103,o),
(354,56,cs),
(396,211,o),
(403,376,o),
(403,541,cs),
(403,706,o),
(396,871,o),
(354,1026,cs),
(311,1185,o),
(227,1325,o),
(110,1433,c),
(186,1521,l)
);
}
);
};
layerId = m001;
shapes = (
{
closed = 1;
nodes = (
(340,1396,o),
(441,1227,o),
(492,1046,cs),
(537,880,o),
(543,708,o),
(543,541,cs),
(543,374,o),
(537,202,o),
(492,36,cs),
(441,-145,o),
(340,-314,o),
(186,-439,c),
(110,-351,l),
(227,-243,o),
(311,-103,o),
(354,56,cs),
(396,211,o),
(403,376,o),
(403,541,cs),
(403,706,o),
(396,871,o),
(354,1026,cs),
(311,1185,o),
(227,1325,o),
(110,1433,c),
(186,1521,l)
);
}
);
userData = {
com.fontlab.hintData = {
vhints = (
{
position = 403;
width = 140;
}
);
};
};
width = 653;
}
);
unicode = 41;
}
{
glyphname = asterisk;
layers = (
{
layerId = m001;
shapes = (
{
closed = 1;
nodes = (
(923,1155,l),
(629,1064,l),
(816,815,l),
(698,730,l),
(522,981,l),
(346,730,l),
(228,815,l),
(415,1064,l),
(120,1155,l),
(163,1284,l),
(452,1184,l),
(447,1496,l),
(597,1496,l),
(593,1185,l),
(881,1284,l)
);
}
);
userData = {
com.fontlab.hintData = {
vhints = (
{
position = 452;
width = 141;
}
);
};
};
width = 1043;
}
);
unicode = 42;
}
{
glyphname = plus;
layers = (
{
layerId = m001;
shapes = (
{
closed = 1;
nodes = (
(160,608,l),
(495,608,l),
(495,951,l),
(645,951,l),
(645,608,l),
(980,608,l),
(980,474,l),
(645,474,l),
(645,131,l),
(495,131,l),
(495,474,l),
(160,474,l)
);
}
);
userData = {
com.fontlab.hintData = {
hhints = (
{
position = 474;
width = 134;
}
);
vhints = (
{
position = 495;
width = 150;
}
);
};
};
width = 1140;
}
);
unicode = 43;
}
{
glyphname = comma;
layers = (
{
layerId = m001;
shapes = (
{
closed = 1;
nodes = (
(315,204,o),
(360,159,o),
(360,94,cs),
(360,69,o),
(355,52,o),
(336,0,cs),
(245,-250,l),
(147,-250,l),
(204,-7,l),
(167,7,o),
(140,45,o),
(140,94,cs),
(140,159,o),
(185,204,o),
(250,204,cs)
);
}
);
userData = {
com.fontlab.hintData = {
hhints = (
{
position = -250;
width = 454;
}
);
vhints = (
{
position = 140;
width = 220;
}
);
};
};
width = 500;
}
);
unicode = 44;
}
{
glyphname = hyphen;
layers = (
{
background = {
shapes = (
{
closed = 1;
nodes = (
(160,608,l),
(660,608,l),
(660,474,l),
(160,474,l)
);
}
);
};
layerId = m001;
shapes = (
{
closed = 1;
nodes = (
(160,608,l),
(660,608,l),
(660,474,l),
(160,474,l)
);
}
);
userData = {
com.fontlab.hintData = {
hhints = (
{
position = 474;
width = 134;
}
);
vhints = (
{
position = 160;
width = 500;
}
);
};
};
width = 820;
}
);
unicode = 45;
}
{
glyphname = period;
layers = (
{
background = {
shapes = (
{
closed = 1;
nodes = (
(315,204,o),
(360,159,o),
(360,94,cs),
(360,29,o),
(315,-16,o),
(250,-16,cs),
(185,-16,o),
(140,29,o),
(140,94,cs),
(140,159,o),
(185,204,o),
(250,204,cs)
);
}
);
};
layerId = m001;
shapes = (
{
closed = 1;
nodes = (
(315,204,o),
(360,159,o),
(360,94,cs),
(360,29,o),
(315,-16,o),
(250,-16,cs),
(185,-16,o),
(140,29,o),
(140,94,cs),
(140,159,o),
(185,204,o),
(250,204,cs)
);
}
);
userData = {
com.fontlab.hintData = {
hhints = (
{
position = -16;
width = 220;
}
);
vhints = (
{
position = 140;
width = 220;
}
);
};
};
width = 500;
}
);
unicode = 46;
}
{
glyphname = slash;
layers = (
{
layerId = m001;
shapes = (
{
closed = 1;
nodes = (
(824,1416,l),
(253,-90,l),
(106,-90,l),
(677,1416,l)
);
}
);
userData = {
com.fontlab.hintData = {
hhints = (
{
position = 1396;
width = 20;
}
);
};
};
width = 930;
}
);
unicode = 47;
}
{
glyphname = one;
layers = (
{
background = {
shapes = (
{
closed = 1;
nodes = (
(382,0,l),
(382,1235,l),
(185,1133,l),
(120,1261,l),
(420,1416,l),
(538,1416,l),
(538,0,l)
);
}
);
};
layerId = m001;
shapes = (
{
closed = 1;
nodes = (
(382,0,l),
(382,1235,l),
(185,1133,l),
(120,1261,l),
(420,1416,l),
(538,1416,l),
(538,0,l)
);
}
);
userData = {
com.fontlab.hintData = {
hhints = (
{
position = 0;
width = 21;
},
{
position = 1396;
width = 20;
}
);
vhints = (
{
position = 382;
width = 156;
}
);
};
};
width = 758;
}
);
unicode = 49;
}
{
glyphname = two;
layers = (
{
layerId = m001;
shapes = (
{
closed = 1;
nodes = (
(753,1435,o),
(920,1265,o),
(920,1040,cs),
(920,928,o),
(878,836,o),
(794,724,cs),
(354,140,l),
(962,140,l),
(962,0,l),
(146,0,l),
(146,108,l),
(663,800,ls),
(726,884,o),
(764,947,o),
(764,1040,cs),
(764,1188,o),
(666,1295,o),
(512,1295,cs),
(401,1295,o),
(322,1242,o),
(257,1180,c),
(155,1286,l),
(237,1365,o),
(357,1435,o),
(512,1435,cs)
);
}
);
userData = {
com.fontlab.hintData = {
hhints = (
{
position = 0;
width = 140;
},
{
position = 1295;
width = 140;
}
);
vhints = (
{
position = 764;
width = 156;
}
);
};
};
width = 1108;
}
);
unicode = 50;
}
{
glyphname = three;
layers = (
{
background = {
shapes = (
{
closed = 1;
nodes = (
(787,1435,o),
(954,1275,o),
(954,1047,cs),
(954,914,o),
(887,790,o),
(786,734,c),
(901,672,o),
(977,540,o),
(977,392,cs),
(977,157,o),
(808,-19,o),
(554,-19,cs),
(388,-19,o),
(256,58,o),
(166,144,c),
(268,246,l),
(335,182,o),
(432,121,o),
(554,121,cs),
(716,121,o),
(821,231,o),
(821,390,cs),
(821,480,o),
(784,558,o),
(729,603,cs),
(658,661,o),
(589,661,o),
(475,661,cs),
(393,661,l),
(393,801,l),
(478,801,ls),
(585,801,o),
(650,801,o),
(714,854,cs),
(764,896,o),
(798,966,o),
(798,1049,cs),
(798,1193,o),
(703,1295,o),
(554,1295,cs),
(439,1295,o),
(348,1235,o),
(282,1170,c),
(180,1272,l),
(266,1357,o),
(391,1435,o),
(554,1435,cs)
);
}
);
};
layerId = m001;
shapes = (
{
closed = 1;
nodes = (
(787,1435,o),
(954,1275,o),
(954,1047,cs),
(954,914,o),
(887,790,o),
(786,734,c),
(901,672,o),
(977,540,o),
(977,392,cs),
(977,157,o),
(808,-19,o),
(554,-19,cs),
(388,-19,o),
(256,58,o),
(166,144,c),
(268,246,l),
(335,182,o),
(432,121,o),
(554,121,cs),
(716,121,o),
(821,231,o),
(821,390,cs),
(821,480,o),
(784,558,o),
(729,603,cs),
(658,661,o),
(589,661,o),
(475,661,cs),
(393,661,l),
(393,801,l),
(478,801,ls),
(585,801,o),
(650,801,o),
(714,854,cs),
(764,896,o),
(798,966,o),
(798,1049,cs),
(798,1193,o),
(703,1295,o),
(554,1295,cs),
(439,1295,o),
(348,1235,o),
(282,1170,c),
(180,1272,l),
(266,1357,o),
(391,1435,o),
(554,1435,cs)
);
}
);
userData = {
com.fontlab.hintData = {
hhints = (
{
position = -19;
width = 140;
},
{
position = 661;
width = 140;
},
{
position = 1295;
width = 140;
}
);
vhints = (
{
position = 798;
width = 156;
},
{
position = 821;
width = 156;
}
);
};
};
width = 1108;
}
);
unicode = 51;
}
{
glyphname = four;
layers = (
{
layerId = m001;
shapes = (
{
closed = 1;
nodes = (
(1012,350,l),
(892,350,l),
(892,0,l),
(736,0,l),
(736,350,l),
(130,350,l),
(130,451,l),
(544,1416,l),
(701,1416,l),
(303,490,l),
(736,490,l),
(736,840,l),
(892,840,l),
(892,490,l),
(1012,490,l)
);
}
);
userData = {
com.fontlab.hintData = {
hhints = (
{
position = 0;
width = 21;
},
{
position = 350;
width = 140;
},
{
position = 1396;
width = 20;
}
);
vhints = (
{
position = 736;
width = 156;
}
);
};
};
width = 1142;
}
);
unicode = 52;
}
{
glyphname = five;
layers = (
{
background = {
shapes = (
{
closed = 1;
nodes = (
(894,1276,l),
(356,1276,l),
(356,806,l),
(423,848,o),
(492,867,o),
(572,867,cs),
(750,867,o),
(972,726,o),
(972,426,cs),
(972,157,o),
(787,-19,o),
(549,-19,cs),
(384,-19,o),
(252,64,o),
(164,142,c),
(260,250,l),
(329,188,o),
(428,121,o),
(549,121,cs),
(720,121,o),
(816,259,o),
(816,426,cs),
(816,600,o),
(715,731,o),
(549,731,cs),
(462,731,o),
(385,694,o),
(322,653,c),
(200,719,l),
(200,1416,l),
(894,1416,l)
);
}
);
};
layerId = m001;
shapes = (
{
closed = 1;
nodes = (
(894,1276,l),
(356,1276,l),
(356,806,l),
(423,848,o),
(492,867,o),
(572,867,cs),
(750,867,o),
(972,726,o),
(972,426,cs),
(972,157,o),
(787,-19,o),
(549,-19,cs),
(384,-19,o),
(252,64,o),
(164,142,c),
(260,250,l),
(329,188,o),
(428,121,o),
(549,121,cs),
(720,121,o),
(816,259,o),
(816,426,cs),
(816,600,o),
(715,731,o),
(549,731,cs),
(462,731,o),
(385,694,o),
(322,653,c),
(200,719,l),
(200,1416,l),
(894,1416,l)
);
}
);
userData = {
com.fontlab.hintData = {
hhints = (
{
position = -19;
width = 140;
},
{
position = 731;
width = 136;
},
{
position = 1276;
width = 140;
}
);
vhints = (
{
position = 200;
width = 156;
},
{
position = 816;
width = 156;
}
);
};
};
width = 1108;
}
);
unicode = 53;
}
{
glyphname = six;
layers = (
{
background = {
shapes = (
{
closed = 1;
nodes = (
(407,761,o),
(287,648,o),
(287,441,cs),
(287,234,o),
(407,121,o),
(554,121,cs),
(701,121,o),
(821,234,o),
(821,441,cs),
(821,648,o),
(701,761,o),
(554,761,cs)
);
},
{
closed = 1;
nodes = (
(821,891,o),
(977,685,o),
(977,441,cs),
(977,187,o),
(813,-19,o),
(554,-19,cs),
(295,-19,o),
(131,188,o),
(131,442,cs),
(131,587,o),
(184,689,o),
(240,796,cs),
(561,1416,l),
(727,1416,l),
(437,864,l),
(482,883,o),
(532,891,o),
(584,891,cs)
);
}
);
};
layerId = m001;
shapes = (
{
closed = 1;
nodes = (
(407,761,o),
(287,648,o),
(287,441,cs),
(287,234,o),
(407,121,o),
(554,121,cs),
(701,121,o),
(821,234,o),
(821,441,cs),
(821,648,o),
(701,761,o),
(554,761,cs)
);
},
{
closed = 1;
nodes = (
(821,891,o),
(977,685,o),
(977,441,cs),
(977,187,o),
(813,-19,o),
(554,-19,cs),
(295,-19,o),
(131,188,o),
(131,442,cs),
(131,587,o),
(184,689,o),
(240,796,cs),
(561,1416,l),
(727,1416,l),
(437,864,l),
(482,883,o),
(532,891,o),
(584,891,cs)
);
}
);
userData = {
com.fontlab.hintData = {
hhints = (
{
position = -19;
width = 140;
},
{
position = 761;
width = 130;
},
{
position = 1396;
width = 20;
}
);
vhints = (
{
position = 131;
width = 156;
},
{
position = 821;
width = 156;
}
);
};
};
width = 1108;
}
);
unicode = 54;
}
{
glyphname = seven;
layers = (
{
layerId = m001;
shapes = (
{
closed = 1;
nodes = (
(126,1416,l),
(982,1416,l),
(982,1322,l),
(437,0,l),
(270,0,l),
(797,1276,l),
(126,1276,l)
);
}
);
userData = {
com.fontlab.hintData = {
hhints = (
{
position = 0;
width = 21;
},
{
position = 1276;
width = 140;
}
);
};
};
width = 1108;
}
);
unicode = 55;
}
{
glyphname = eight;
layers = (
{
layerId = m001;
shapes = (
{
closed = 1;
nodes = (
(789,1435,o),
(949,1266,o),
(949,1048,cs),
(949,917,o),
(891,805,o),
(784,735,c),
(908,663,o),
(977,537,o),
(977,391,cs),
(977,159,o),
(804,-19,o),
(554,-19,cs),
(304,-19,o),
(131,159,o),
(131,391,cs),
(131,537,o),
(200,663,o),
(324,735,c),
(217,805,o),
(159,917,o),
(159,1048,cs),
(159,1266,o),
(319,1435,o),
(554,1435,cs)
);
},
{
closed = 1;
nodes = (
(415,1295,o),
(315,1205,o),
(315,1048,cs),
(315,891,o),
(415,801,o),
(554,801,cs),
(693,801,o),
(793,891,o),
(793,1048,cs),
(793,1205,o),
(693,1295,o),
(554,1295,cs)
);
},
{
closed = 1;
nodes = (
(398,661,o),
(287,560,o),
(287,391,cs),
(287,222,o),
(398,121,o),
(554,121,cs),
(710,121,o),
(821,222,o),
(821,391,cs),
(821,560,o),
(710,661,o),
(554,661,cs)
);
}
);
userData = {
com.fontlab.hintData = {
hhints = (
{
position = -19;
width = 140;
},
{
position = 661;
width = 140;
},
{
position = 1295;
width = 140;
}
);
vhints = (
{
position = 131;
width = 156;
},
{
position = 159;
width = 156;
},
{
position = 793;
width = 156;
},
{
position = 821;
width = 156;
}
);
};
};
width = 1108;
}
);
unicode = 56;
}
{
glyphname = nine;
layers = (
{
layerId = m001;
shapes = (
{
closed = 1;
nodes = (
(811,1435,o),
(972,1228,o),
(972,975,cs),
(972,839,o),
(927,741,o),
(876,642,cs),
(546,0,l),
(375,0,l),
(661,550,l),
(616,532,o),
(573,525,o),
(524,525,cs),
(284,525,o),
(136,737,o),
(136,975,cs),
(136,1228,o),
(297,1435,o),
(554,1435,cs)
);
},
{
closed = 1;
nodes = (
(410,1295,o),
(292,1183,o),
(292,975,cs),
(292,767,o),
(410,655,o),
(554,655,cs),
(698,655,o),
(816,767,o),
(816,975,cs),
(816,1183,o),
(698,1295,o),
(554,1295,cs)
);
}
);
userData = {
com.fontlab.hintData = {
hhints = (
{
position = 0;
width = 21;
},
{
position = 525;
width = 130;
},
{
position = 1295;
width = 140;
}
);
vhints = (
{
position = 136;
width = 156;
},
{
position = 816;
width = 156;
}
);
};
};
width = 1108;
}
);
unicode = 57;
}
{
glyphname = colon;
layers = (
{
layerId = m001;
shapes = (
{
closed = 1;
nodes = (
(315,204,o),
(360,159,o),
(360,94,cs),
(360,29,o),
(315,-16,o),
(250,-16,cs),
(185,-16,o),
(140,29,o),
(140,94,cs),
(140,159,o),
(185,204,o),
(250,204,cs)
);
},
{
closed = 1;
nodes = (
(315,1101,o),
(360,1056,o),
(360,991,cs),
(360,926,o),
(315,881,o),
(250,881,cs),
(185,881,o),
(140,926,o),
(140,991,cs),
(140,1056,o),
(185,1101,o),
(250,1101,cs)
);
}
);
userData = {
com.fontlab.hintData = {
hhints = (
{
position = -16;
width = 220;
},
{
position = 881;
width = 220;
}
);
vhints = (
{
position = 140;
width = 220;
}
);
};
};
width = 500;
}
);
unicode = 58;
}
{
glyphname = semicolon;
layers = (
{
background = {
shapes = (
{
closed = 1;
nodes = (
(315,1101,o),
(360,1056,o),
(360,991,cs),
(360,926,o),
(315,881,o),
(250,881,cs),
(185,881,o),
(140,926,o),
(140,991,cs),
(140,1056,o),
(185,1101,o),
(250,1101,cs)
);
},
{
closed = 1;
nodes = (
(315,204,o),
(360,159,o),
(360,94,cs),
(360,69,o),
(355,52,o),
(336,0,cs),
(245,-250,l),
(147,-250,l),
(204,-7,l),
(167,7,o),
(140,45,o),
(140,94,cs),
(140,159,o),
(185,204,o),
(250,204,cs)
);
}
);
};
layerId = m001;
shapes = (
{
closed = 1;
nodes = (
(315,1101,o),
(360,1056,o),
(360,991,cs),
(360,926,o),
(315,881,o),
(250,881,cs),
(185,881,o),
(140,926,o),
(140,991,cs),
(140,1056,o),
(185,1101,o),
(250,1101,cs)
);
},
{
closed = 1;
nodes = (
(315,204,o),
(360,159,o),
(360,94,cs),
(360,69,o),
(355,52,o),
(336,0,cs),
(245,-250,l),
(147,-250,l),
(204,-7,l),
(167,7,o),
(140,45,o),
(140,94,cs),
(140,159,o),
(185,204,o),
(250,204,cs)
);
}
);
userData = {
com.fontlab.hintData = {
hhints = (
{
position = 881;
width = 220;
}
);
vhints = (
{
position = 140;
width = 220;
}
);
};
};
width = 500;
}
);
unicode = 59;
}
{
glyphname = less;
layers = (
{
layerId = m001;
shapes = (
{
closed = 1;
nodes = (
(768,951,l),
(837,831,l),
(327,541,l),
(837,251,l),
(768,131,l),
(160,485,l),
(160,597,l)
);
}
);
userData = {
com.fontlab.hintData = {
vhints = (
{
position = 160;
width = 677;
}
);
};
};
width = 963;
}
);
unicode = 60;
}
{
glyphname = equal;
layers = (
{
layerId = m001;
shapes = (
{
closed = 1;
nodes = (
(180,768,l),
(880,768,l),
(880,634,l),
(180,634,l)
);
},
{
closed = 1;
nodes = (
(180,448,l),
(880,448,l),
(880,314,l),
(180,314,l)
);
}
);
userData = {
com.fontlab.hintData = {
hhints = (
{
position = 314;
width = 134;
},
{
position = 634;
width = 134;
}
);
};
};
width = 1060;
}
);
unicode = 61;
}
{
glyphname = greater;
layers = (
{
layerId = m001;
shapes = (
{
closed = 1;
nodes = (
(803,485,l),
(195,131,l),
(126,251,l),
(636,541,l),
(126,831,l),
(195,951,l),
(803,597,l)
);
}
);
userData = {
com.fontlab.hintData = {
vhints = (
{
position = 126;
width = 677;
}
);
};
};
width = 963;
}
);
unicode = 62;
}
{
glyphname = question;
layers = (
{
background = {
shapes = (
{
closed = 1;
nodes = (
(486,204,o),
(531,159,o),
(531,94,cs),
(531,29,o),
(486,-16,o),
(421,-16,cs),
(356,-16,o),
(311,29,o),
(311,94,cs),
(311,159,o),
(356,204,o),
(421,204,cs)
);
},
{
closed = 1;
nodes = (
(80,1293,l),
(162,1371,o),
(278,1432,o),
(421,1432,cs),
(653,1432,o),
(816,1269,o),
(816,1052,cs),
(816,970,o),
(789,895,o),
(742,831,cs),
(684,752,o),
(569,698,o),
(530,630,cs),
(497,573,o),
(487,529,o),
(487,447,c),
(486,387,l),
(356,387,l),
(356,387,o),
(355,422,o),
(355,446,cs),
(355,548,o),
(363,622,o),
(421,705,cs),
(464,768,o),
(533,814,o),
(586,863,cs),
(636,909,o),
(666,974,o),
(666,1051,cs),
(666,1193,o),
(573,1298,o),
(421,1298,cs),
(315,1298,o),
(235,1248,o),
(178,1193,c)
);
}
);
};
layerId = m001;
shapes = (
{
closed = 1;
nodes = (
(486,204,o),
(531,159,o),
(531,94,cs),
(531,29,o),
(486,-16,o),
(421,-16,cs),
(356,-16,o),
(311,29,o),
(311,94,cs),
(311,159,o),
(356,204,o),
(421,204,cs)
);
},
{
closed = 1;
nodes = (
(80,1293,l),
(162,1371,o),
(278,1432,o),
(421,1432,cs),
(653,1432,o),
(816,1269,o),
(816,1052,cs),
(816,970,o),
(789,895,o),
(742,831,cs),
(684,752,o),
(569,698,o),
(530,630,cs),
(497,573,o),
(487,529,o),
(487,447,c),
(486,387,l),
(356,387,l),
(356,387,o),
(355,422,o),
(355,446,cs),
(355,548,o),
(363,622,o),
(421,705,cs),
(464,768,o),
(533,814,o),
(586,863,cs),
(636,909,o),
(666,974,o),
(666,1051,cs),
(666,1193,o),
(573,1298,o),
(421,1298,cs),
(315,1298,o),
(235,1248,o),
(178,1193,c)
);
}
);
userData = {
com.fontlab.hintData = {
hhints = (
{
position = -16;
width = 220;
},
{
position = 1298;
width = 134;
}
);
vhints = (
{
position = 311;
width = 220;
},
{
position = 355;
width = 132;
},
{
position = 666;
width = 150;
}
);
};
};
width = 916;
}
);
unicode = 63;
}
{
glyphname = at;
layers = (
{
background = {
shapes = (
{
closed = 1;
nodes = (
(719,430,o),
(791,334,o),
(934,334,cs),
(1037,334,o),
(1134,382,o),
(1170,495,cs),
(1189,555,o),
(1189,620,o),
(1189,743,c),
(1044,743,ls),
(950,743,o),
(900,743,o),
(854,729,cs),
(766,702,o),
(719,627,o),
(719,537,cs)
);
},
{
closed = 1;
nodes = (
(972,1314,o),
(1111,1303,o),
(1214,1216,cs),
(1339,1110,o),
(1339,980,o),
(1339,867,cs),
(1339,216,l),
(1189,216,l),
(1189,331,l),
(1120,252,o),
(1033,200,o),
(914,200,cs),
(709,200,o),
(569,347,o),
(569,537,cs),
(569,677,o),
(652,800,o),
(804,846,cs),
(873,867,o),
(942,867,o),
(1038,867,cs),
(1189,867,l),
(1189,964,o),
(1189,1033,o),
(1132,1098,cs),
(1067,1172,o),
(957,1180,o),
(822,1180,cs),
(668,1180,o),
(545,1175,o),
(458,1105,cs),
(330,1001,o),
(330,775,o),
(330,541,cs),
(330,271,o),
(339,75,o),
(458,-23,cs),
(538,-89,o),
(633,-98,o),
(812,-98,cs),
(1043,-98,o),
(1153,-98,o),
(1301,-38,c),
(1354,-163,l),
(1188,-232,o),
(1045,-232,o),
(812,-232,cs),
(598,-232,o),
(473,-219,o),
(356,-121,cs),
(190,18,o),
(180,247,o),
(180,541,cs),
(180,836,o),
(190,1068,o),
(356,1203,cs),
(478,1302,o),
(623,1314,o),
(821,1314,cs)
);
}
);
};
layerId = m001;
shapes = (
{
closed = 1;
nodes = (
(719,430,o),
(791,334,o),
(934,334,cs),
(1037,334,o),
(1134,382,o),
(1170,495,cs),
(1189,555,o),
(1189,620,o),
(1189,743,c),
(1044,743,ls),
(950,743,o),
(900,743,o),
(854,729,cs),
(766,702,o),
(719,627,o),
(719,537,cs)
);
},
{
closed = 1;
nodes = (
(972,1314,o),
(1111,1303,o),
(1214,1216,cs),
(1339,1110,o),
(1339,980,o),
(1339,867,cs),
(1339,216,l),
(1189,216,l),
(1189,331,l),
(1120,252,o),
(1033,200,o),
(914,200,cs),
(709,200,o),
(569,347,o),
(569,537,cs),
(569,677,o),
(652,800,o),
(804,846,cs),
(873,867,o),
(942,867,o),
(1038,867,cs),
(1189,867,l),
(1189,964,o),
(1189,1033,o),
(1132,1098,cs),
(1067,1172,o),
(957,1180,o),
(822,1180,cs),
(668,1180,o),
(545,1175,o),
(458,1105,cs),
(330,1001,o),
(330,775,o),
(330,541,cs),
(330,271,o),
(339,75,o),
(458,-23,cs),
(538,-89,o),
(633,-98,o),
(812,-98,cs),
(1043,-98,o),
(1153,-98,o),
(1301,-38,c),
(1354,-163,l),
(1188,-232,o),
(1045,-232,o),
(812,-232,cs),
(598,-232,o),
(473,-219,o),
(356,-121,cs),
(190,18,o),
(180,247,o),
(180,541,cs),
(180,836,o),
(190,1068,o),
(356,1203,cs),
(478,1302,o),
(623,1314,o),
(821,1314,cs)
);
}
);
userData = {
com.fontlab.hintData = {
hhints = (
{
position = -232;
width = 134;
},
{
position = 200;
width = 134;
},
{
position = 743;
width = 124;
},
{
position = 1180;
width = 134;
}
);
vhints = (
{
position = 180;
width = 150;
},
{
position = 569;
width = 150;
},
{
position = 1189;
width = 150;
}
);
};
};
width = 1519;
}
);
unicode = 64;
}
{
glyphname = A;
layers = (
{
anchors = (
{
name = Apos;
pos = (20,0);
},
{
name = Bottom;
pos = (1075,0);
},
{
name = Center;
pos = (595,1380);
},
{
name = DoubleTop;
pos = (20,0);
},
{
name = Top;
pos = (595,1416);
}
);
layerId = m001;
shapes = (
{
closed = 1;
nodes = (
(595,1205,l),
(360,482,l),
(830,482,l)
);
},
{
closed = 1;
nodes = (
(670,1416,l),
(1150,0,l),
(987,0,l),
(876,342,l),
(314,342,l),
(203,0,l),
(40,0,l),
(520,1416,l)
);
}
);
userData = {
com.fontlab.hintData = {
hhints = (
{
position = 0;
width = 21;
},
{
position = 342;
width = 140;
},
{
position = 1396;
width = 20;
}
);
};
};
width = 1190;
}
);
unicode = 65;
}
{
glyphname = B;
layers = (
{
background = {
shapes = (
{
closed = 1;
nodes = (
(532,792,ls),
(610,792,o),
(664,792,o),
(710,812,cs),
(809,855,o),
(842,955,o),
(842,1034,cs),
(842,1095,o),
(819,1214,o),
(702,1259,cs),
(658,1276,o),
(602,1276,o),
(532,1276,cs),
(336,1276,l),
(336,792,l)
);
},
{
closed = 1;
nodes = (
(336,140,l),
(562,140,ls),
(643,140,o),
(701,140,o),
(753,163,cs),
(861,211,o),
(890,321,o),
(890,396,cs),
(890,476,o),
(857,589,o),
(743,633,cs),
(694,652,o),
(641,652,o),
(562,652,cs),
(336,652,l)
);
},
{
closed = 1;
nodes = (
(968,672,o),
(1046,555,o),
(1046,396,cs),
(1046,233,o),
(955,71,o),
(771,19,cs),
(704,0,o),
(640,0,o),
(562,0,cs),
(180,0,l),
(180,1416,l),
(532,1416,ls),
(611,1416,o),
(666,1416,o),
(726,1400,cs),
(884,1358,o),
(998,1219,o),
(998,1034,cs),
(998,902,o),
(941,799,o),
(846,735,c)
);
}
);
};
layerId = m001;
shapes = (
{
closed = 1;
nodes = (
(532,792,ls),
(610,792,o),
(664,792,o),
(710,812,cs),
(809,855,o),
(842,955,o),
(842,1034,cs),
(842,1095,o),
(819,1214,o),
(702,1259,cs),
(658,1276,o),
(602,1276,o),
(532,1276,cs),
(336,1276,l),
(336,792,l)
);
},
{
closed = 1;
nodes = (
(336,140,l),
(562,140,ls),
(643,140,o),
(701,140,o),
(753,163,cs),
(861,211,o),
(890,321,o),
(890,396,cs),
(890,476,o),
(857,589,o),
(743,633,cs),
(694,652,o),
(641,652,o),
(562,652,cs),
(336,652,l)
);
},
{
closed = 1;
nodes = (
(968,672,o),
(1046,555,o),
(1046,396,cs),
(1046,233,o),
(955,71,o),
(771,19,cs),
(704,0,o),
(640,0,o),
(562,0,cs),
(180,0,l),
(180,1416,l),
(532,1416,ls),
(611,1416,o),
(666,1416,o),
(726,1400,cs),
(884,1358,o),
(998,1219,o),
(998,1034,cs),
(998,902,o),
(941,799,o),
(846,735,c)
);
}
);
userData = {
com.fontlab.hintData = {
hhints = (
{
position = 0;
width = 140;
},
{
position = 652;
width = 140;
},
{
position = 1276;
width = 140;
}
);
vhints = (
{
position = 180;
width = 156;
},
{
position = 842;
width = 156;
},
{
position = 890;
width = 156;
}
);
};
};
width = 1166;
}
);
unicode = 66;
}
{
glyphname = C;
layers = (
{
anchors = (
{
name = Bottom;
pos = (618,0);
},
{
name = Top;
pos = (618,1416);
}
);
layerId = m001;
shapes = (
{
closed = 1;
nodes = (
(772,1435,o),
(897,1381,o),
(992,1314,c),
(912,1194,l),
(832,1251,o),
(738,1295,o),
(618,1295,cs),
(473,1295,o),
(382,1230,o),
(336,1125,cs),
(289,1017,o),
(286,858,o),
(286,708,cs),
(286,558,o),
(289,399,o),
(336,291,cs),
(382,186,o),
(473,121,o),
(618,121,cs),
(748,121,o),
(862,172,o),
(942,240,c),
(1030,124,l),
(927,43,o),
(786,-19,o),
(618,-19,cs),
(404,-19,o),
(259,86,o),
(191,238,cs),
(133,367,o),
(130,543,o),
(130,708,cs),
(130,876,o),
(134,1053,o),
(191,1178,cs),
(262,1334,o),
(409,1435,o),
(618,1435,cs)
);
}
);
userData = {
com.fontlab.hintData = {
hhints = (
{
position = -19;
width = 140;
},
{
position = 1295;
width = 140;
}
);
vhints = (
{
position = 130;
width = 156;
}
);
};
};
width = 1114;
}
);
unicode = 67;
}
{
glyphname = D;
kernRight = O;
layers = (
{
anchors = (
{
name = bottom;
pos = (581,0);
},
{
name = top;
pos = (587,1416);
}
);
background = {
anchors = (
{
name = bottom;
pos = (581,0);
},
{
name = top;
pos = (587,1416);
}
);
shapes = (
{
closed = 1;
nodes = (
(336,140,l),
(539,140,ls),
(613,140,o),
(704,140,o),
(764,175,cs),
(931,271,o),
(931,497,o),
(931,708,cs),
(931,919,o),
(931,1145,o),
(764,1241,cs),
(704,1276,o),
(613,1276,o),
(539,1276,cs),
(336,1276,l)
);
},
{
closed = 1;
nodes = (
(539,1416,ls),
(616,1416,o),
(689,1416,o),
(768,1393,cs),
(898,1355,o),
(983,1258,o),
(1028,1156,cs),
(1087,1022,o),
(1087,853,o),
(1087,708,cs),
(1087,563,o),
(1087,394,o),
(1028,260,cs),
(983,158,o),
(898,61,o),
(768,23,cs),
(689,0,o),
(616,0,o),
(539,0,cs),
(180,0,l),
(180,1416,l)
);
}
);
};
layerId = m001;
shapes = (
{
closed = 1;
nodes = (
(336,140,l),
(539,140,ls),
(613,140,o),
(704,140,o),
(764,175,cs),
(931,271,o),
(931,497,o),
(931,708,cs),
(931,919,o),
(931,1145,o),
(764,1241,cs),
(704,1276,o),
(613,1276,o),
(539,1276,cs),
(336,1276,l)
);
},
{
closed = 1;
nodes = (
(539,1416,ls),
(616,1416,o),
(689,1416,o),
(768,1393,cs),
(898,1355,o),
(983,1258,o),
(1028,1156,cs),
(1087,1022,o),
(1087,853,o),
(1087,708,cs),
(1087,563,o),
(1087,394,o),
(1028,260,cs),
(983,158,o),
(898,61,o),
(768,23,cs),
(689,0,o),
(616,0,o),
(539,0,cs),
(180,0,l),
(180,1416,l)
);
}
);
userData = {
com.fontlab.hintData = {
hhints = (
{
position = 0;
width = 140;
},
{
position = 1276;
width = 140;
}
);
vhints = (
{
position = 180;
width = 156;
},
{
position = 931;
width = 156;
}
);
};
};
width = 1217;
}
);
unicode = 68;
}
{
glyphname = E;
layers = (
{
anchors = (
{
name = bottom;
pos = (577,0);
},
{
name = ogonek;
pos = (960,0);
},
{
name = top;
pos = (577,1416);
}
);
background = {
anchors = (
{
name = bottom;
pos = (885,0);
},
{
name = top;
pos = (577,1416);
}
);
shapes = (
{
closed = 1;
nodes = (
(960,1416,l),
(960,1276,l),
(336,1276,l),
(336,792,l),
(870,792,l),
(870,652,l),
(336,652,l),
(336,140,l),
(960,140,l),
(960,0,l),
(180,0,l),
(180,1416,l)
);
}
);
};
layerId = m001;
shapes = (
{
closed = 1;
nodes = (
(960,1416,l),
(960,1276,l),
(336,1276,l),
(336,792,l),
(870,792,l),
(870,652,l),
(336,652,l),
(336,140,l),
(960,140,l),
(960,0,l),
(180,0,l),
(180,1416,l)
);
}
);
userData = {
com.fontlab.hintData = {
hhints = (
{
position = 0;
width = 140;
},
{
position = 652;
width = 140;
},
{
position = 1276;
width = 140;
}
);
vhints = (
{
position = 180;
width = 156;
}
);
};
};
width = 1100;
}
);
unicode = 69;
}
{
glyphname = F;
layers = (
{
background = {
shapes = (
{
closed = 1;
nodes = (
(940,1416,l),
(940,1276,l),
(336,1276,l),
(336,792,l),
(860,792,l),
(860,652,l),
(336,652,l),
(336,0,l),
(180,0,l),
(180,1416,l)
);
}
);
};
layerId = m001;
shapes = (
{
closed = 1;
nodes = (
(940,1416,l),
(940,1276,l),
(336,1276,l),
(336,792,l),
(860,792,l),
(860,652,l),
(336,652,l),
(336,0,l),
(180,0,l),
(180,1416,l)
);
}
);
userData = {
com.fontlab.hintData = {
hhints = (
{
position = 0;
width = 21;
},
{
position = 652;
width = 140;
},
{
position = 1276;
width = 140;
}
);
vhints = (
{
position = 180;
width = 156;
}
);
};
};
width = 1060;
}
);
unicode = 70;
}
{
glyphname = H;
layers = (
{
anchors = (
{
name = Bottom;
pos = (630,0);
},
{
name = Top;
pos = (640,1416);
}
);
layerId = m001;
shapes = (
{
closed = 1;
nodes = (
(336,1416,l),
(336,792,l),
(944,792,l),
(944,1416,l),
(1100,1416,l),
(1100,0,l),
(944,0,l),
(944,652,l),
(336,652,l),
(336,0,l),
(180,0,l),
(180,1416,l)
);
}
);
userData = {
com.fontlab.hintData = {
hhints = (
{
position = 0;
width = 21;
},
{
position = 652;
width = 140;
},
{
position = 1396;
width = 20;
}
);
vhints = (
{
position = 180;
width = 156;
},
{
position = 944;
width = 156;
}
);
};
};
width = 1280;
}
);
unicode = 72;
}
{
glyphname = I;
layers = (
{
anchors = (
{
name = Apos;
pos = (30,0);
},
{
name = Bottom;
pos = (257,0);
},
{
name = Center;
pos = (20,0);
},
{
name = DoubleTop;
pos = (30,0);
},
{
name = Top;
pos = (258,1416);
}
);
layerId = m001;
shapes = (
{
closed = 1;
nodes = (
(336,0,l),
(180,0,l),
(180,1416,l),
(336,1416,l)
);
}
);
userData = {
com.fontlab.hintData = {
hhints = (
{
position = 0;
width = 21;
},
{
position = 1396;
width = 20;
}
);
vhints = (
{
position = 180;
width = 156;
}
);
};
};
width = 516;
}
);
unicode = 73;
}
{
glyphname = J;
layers = (
{
anchors = (
{
name = bottom;
pos = (425,0);
},
{
name = top;
pos = (720,1416);
}
);
background = {
anchors = (
{
name = bottom;
pos = (425,0);
},
{
name = top;
pos = (720,1416);
}
);
shapes = (
{
closed = 1;
nodes = (
(798,1416,l),
(798,433,ls),
(798,358,o),
(798,308,o),
(787,257,cs),
(752,96,o),
(614,-19,o),
(425,-19,cs),
(269,-19,o),
(163,41,o),
(80,103,c),
(169,219,l),
(231,168,o),
(317,121,o),
(415,121,cs),
(515,121,o),
(596,170,o),
(627,264,cs),
(642,309,o),
(642,363,o),
(642,433,cs),
(642,1416,l)
);
}
);
};
layerId = m001;
shapes = (
{
closed = 1;
nodes = (
(798,1416,l),
(798,433,ls),
(798,358,o),
(798,308,o),
(787,257,cs),
(752,96,o),
(614,-19,o),
(425,-19,cs),
(269,-19,o),
(163,41,o),
(80,103,c),
(169,219,l),
(231,168,o),
(317,121,o),
(415,121,cs),
(515,121,o),
(596,170,o),
(627,264,cs),
(642,309,o),
(642,363,o),
(642,433,cs),
(642,1416,l)
);
}
);
userData = {
com.fontlab.hintData = {
hhints = (
{
position = -19;
width = 140;
},
{
position = 1396;
width = 20;
}
);
vhints = (
{
position = 642;
width = 156;
}
);
};
};
width = 958;
}
);
unicode = 74;
}
{
glyphname = K;
layers = (
{
anchors = (
{
name = Bottom;
pos = (614,0);
}
);
layerId = m001;
shapes = (
{
closed = 1;
nodes = (
(917,1416,l),
(1101,1416,l),
(592,753,l),
(1129,0,l),
(944,0,l),
(491,643,l),
(336,443,l),
(336,0,l),
(180,0,l),
(180,1416,l),
(336,1416,l),
(336,652,l)
);
}
);
userData = {
com.fontlab.hintData = {
hhints = (
{
position = 0;
width = 21;
},
{
position = 1396;
width = 20;
}
);
vhints = (
{
position = 180;
width = 156;
}
);
};
};
width = 1179;
}
);
unicode = 75;
}
{
glyphname = L;
layers = (
{
anchors = (
{
name = apos;
pos = (500,1416);
},
{
name = bottom;
pos = (541,0);
},
{
name = center;
pos = (336,722);
},
{
name = top;
pos = (259,1416);
}
);
background = {
anchors = (
{
name = apos;
pos = (500,1416);
},
{
name = bottom;
pos = (541,0);
},
{
name = center;
pos = (336,722);
},
{
name = top;
pos = (259,1416);
}
);
shapes = (
{
closed = 1;
nodes = (
(336,1416,l),
(336,140,l),
(930,140,l),
(930,0,l),
(180,0,l),
(180,1416,l)
);
}
);
};
layerId = m001;
shapes = (
{
closed = 1;
nodes = (
(336,1416,l),
(336,140,l),
(930,140,l),
(930,0,l),
(180,0,l),
(180,1416,l)
);
}
);
userData = {
com.fontlab.hintData = {
hhints = (
{
position = 0;
width = 140;
},
{
position = 1396;
width = 20;
}
);
vhints = (
{
position = 180;
width = 156;
}
);
};
};
width = 1010;
}
);
unicode = 76;
}
{
glyphname = M;
layers = (
{
layerId = m001;
shapes = (
{
closed = 1;
nodes = (
(180,1416,l),
(336,1416,l),
(747,577,l),
(1158,1416,l),
(1314,1416,l),
(1314,0,l),
(1158,0,l),
(1158,1122,l),
(818,421,l),
(676,421,l),
(336,1122,l),
(336,0,l),
(180,0,l)
);
}
);
userData = {
com.fontlab.hintData = {
hhints = (
{
position = 0;
width = 21;
},
{
position = 1396;
width = 20;
}
);
vhints = (
{
position = 180;
width = 156;
},
{
position = 1158;
width = 156;
}
);
};
};
width = 1494;
}
);
unicode = 77;
}
{
glyphname = N;
layers = (
{
anchors = (
{
name = bottom;
pos = (647,0);
},
{
name = top;
pos = (647,1416);
}
);
background = {
anchors = (
{
name = bottom;
pos = (647,0);
},
{
name = top;
pos = (647,1416);
}
);
shapes = (
{
closed = 1;
nodes = (
(1114,1416,l),
(1114,0,l),
(957,0,l),
(336,1136,l),
(336,0,l),
(180,0,l),
(180,1416,l),
(337,1416,l),
(958,280,l),
(958,1416,l)
);
}
);
};
layerId = m001;
shapes = (
{
closed = 1;
nodes = (
(1114,1416,l),
(1114,0,l),
(957,0,l),
(336,1136,l),
(336,0,l),
(180,0,l),
(180,1416,l),
(337,1416,l),
(958,280,l),
(958,1416,l)
);
}
);
userData = {
com.fontlab.hintData = {
hhints = (
{
position = 0;
width = 21;
},
{
position = 1396;
width = 20;
}
);
vhints = (
{
position = 180;
width = 156;
},
{
position = 958;
width = 156;
}
);
};
};
width = 1294;
}
);
unicode = 78;
}
{
glyphname = P;
layers = (
{
background = {
shapes = (
{
closed = 1;
nodes = (
(336,1276,l),
(336,656,l),
(512,656,ls),
(593,656,o),
(689,656,o),
(768,724,cs),
(827,775,o),
(870,860,o),
(870,966,cs),
(870,1072,o),
(827,1157,o),
(768,1208,cs),
(689,1276,o),
(593,1276,o),
(512,1276,cs)
);
},
{
closed = 1;
nodes = (
(595,1416,o),
(710,1416,o),
(821,1349,cs),
(940,1277,o),
(1026,1141,o),
(1026,966,cs),
(1026,791,o),
(940,655,o),
(821,583,cs),
(710,516,o),
(595,516,o),
(512,516,cs),
(336,516,l),
(336,0,l),
(180,0,l),
(180,1416,l),
(512,1416,ls)
);
}
);
};
layerId = m001;
shapes = (
{
closed = 1;
nodes = (
(336,1276,l),
(336,656,l),
(512,656,ls),
(593,656,o),
(689,656,o),
(768,724,cs),
(827,775,o),
(870,860,o),
(870,966,cs),
(870,1072,o),
(827,1157,o),
(768,1208,cs),
(689,1276,o),
(593,1276,o),
(512,1276,cs)
);
},
{
closed = 1;
nodes = (
(595,1416,o),
(710,1416,o),
(821,1349,cs),
(940,1277,o),
(1026,1141,o),
(1026,966,cs),
(1026,791,o),
(940,655,o),
(821,583,cs),
(710,516,o),
(595,516,o),
(512,516,cs),
(336,516,l),
(336,0,l),
(180,0,l),
(180,1416,l),
(512,1416,ls)
);
}
);
userData = {
com.fontlab.hintData = {
hhints = (
{
position = 0;
width = 21;
},
{
position = 516;
width = 140;
},
{
position = 1276;
width = 140;
}
);
vhints = (
{
position = 180;
width = 156;
},
{
position = 870;
width = 156;
}
);
};
};
width = 1126;
}
);
unicode = 80;
}
{
glyphname = Q;
layers = (
{
layerId = m001;
shapes = (
{
closed = 1;
nodes = (
(483,1295,o),
(387,1229,o),
(340,1127,cs),
(287,1012,o),
(286,850,o),
(286,708,cs),
(286,566,o),
(287,404,o),
(340,289,cs),
(387,187,o),
(483,121,o),
(628,121,cs),
(773,121,o),
(869,187,o),
(916,289,cs),
(969,404,o),
(970,566,o),
(970,708,cs),
(970,850,o),
(969,1012,o),
(916,1127,cs),
(869,1229,o),
(773,1295,o),
(628,1295,cs)
);
},
{
closed = 1;
nodes = (
(844,1435,o),
(991,1329,o),
(1060,1180,cs),
(1126,1038,o),
(1126,856,o),
(1126,708,cs),
(1126,560,o),
(1126,378,o),
(1060,236,cs),
(1030,170,o),
(984,113,o),
(924,69,c),
(1146,-154,l),
(1042,-258,l),
(782,1,l),
(735,-12,o),
(684,-19,o),
(628,-19,cs),
(412,-19,o),
(265,87,o),
(196,236,cs),
(130,378,o),
(130,560,o),
(130,708,cs),
(130,856,o),
(130,1038,o),
(196,1180,cs),
(265,1329,o),
(412,1435,o),
(628,1435,cs)
);
}
);
userData = {
com.fontlab.hintData = {
hhints = (
{
position = -19;
width = 140;
},
{
position = 1295;
width = 140;
}
);
vhints = (
{
position = 130;
width = 156;
},
{
position = 970;
width = 156;
}
);
};
};
width = 1256;
}
);
unicode = 81;
}
{
glyphname = R;
layers = (
{
anchors = (
{
name = Bottom;
pos = (601,0);
},
{
name = Top;
pos = (556,1416);
}
);
layerId = m001;
shapes = (
{
closed = 1;
nodes = (
(618,1416,o),
(687,1416,o),
(777,1379,cs),
(926,1318,o),
(1026,1170,o),
(1026,986,cs),
(1026,800,o),
(923,651,o),
(774,592,c),
(1051,0,l),
(882,0,l),
(628,556,l),
(336,556,l),
(336,0,l),
(180,0,l),
(180,1416,l),
(507,1416,ls)
);
},
{
closed = 1;
nodes = (
(336,1276,l),
(336,696,l),
(507,696,ls),
(595,696,o),
(654,696,o),
(711,720,cs),
(837,773,o),
(870,901,o),
(870,986,cs),
(870,1071,o),
(837,1199,o),
(711,1252,cs),
(654,1276,o),
(595,1276,o),
(507,1276,cs)
);
}
);
userData = {
com.fontlab.hintData = {
hhints = (
{
position = 0;
width = 21;
},
{
position = 556;
width = 140;
},
{
position = 1276;
width = 140;
}
);
vhints = (
{
position = 180;
width = 156;
},
{
position = 870;
width = 156;
}
);
};
};
width = 1151;
}
);
unicode = 82;
}
{
glyphname = S;
kernLeft = S;
kernRight = S;
layers = (
{
anchors = (
{
name = bottom;
pos = (517,0);
},
{
name = top;
pos = (517,1416);
}
);
background = {
anchors = (
{
name = bottom;
pos = (517,0);
},
{
name = top;
pos = (517,1416);
}
);
shapes = (
{
closed = 1;
nodes = (
(349,-19,o),
(202,49,o),
(84,115,c),
(153,241,l),
(255,182,o),
(382,121,o),
(517,121,cs),
(725,121,o),
(789,270,o),
(789,381,cs),
(789,471,o),
(748,577,o),
(638,624,cs),
(543,665,o),
(418,663,o),
(306,728,cs),
(172,806,o),
(114,935,o),
(114,1061,cs),
(114,1260,o),
(261,1435,o),
(517,1435,cs),
(655,1435,o),
(785,1385,o),
(890,1335,c),
(830,1206,l),
(743,1248,o),
(632,1295,o),
(517,1295,cs),
(345,1295,o),
(270,1179,o),
(270,1061,cs),
(270,987,o),
(302,895,o),
(390,846,cs),
(478,797,o),
(591,798,o),
(697,754,cs),
(871,681,o),
(945,529,o),
(945,381,cs),
(945,172,o),
(795,-19,o),
(517,-19,cs)
);
}
);
};
layerId = m001;
shapes = (
{
closed = 1;
nodes = (
(349,-19,o),
(202,49,o),
(84,115,c),
(153,241,l),
(255,182,o),
(382,121,o),
(517,121,cs),
(725,121,o),
(789,270,o),
(789,381,cs),
(789,471,o),
(748,577,o),
(638,624,cs),
(543,665,o),
(418,663,o),
(306,728,cs),
(172,806,o),
(114,935,o),
(114,1061,cs),
(114,1260,o),
(261,1435,o),
(517,1435,cs),
(655,1435,o),
(785,1385,o),
(890,1335,c),
(830,1206,l),
(743,1248,o),
(632,1295,o),
(517,1295,cs),
(345,1295,o),
(270,1179,o),
(270,1061,cs),
(270,987,o),
(302,895,o),
(390,846,cs),
(478,797,o),
(591,798,o),
(697,754,cs),
(871,681,o),
(945,529,o),
(945,381,cs),
(945,172,o),
(795,-19,o),
(517,-19,cs)
);
}
);
userData = {
com.fontlab.hintData = {
hhints = (
{
position = -19;
width = 140;
},
{
position = 1295;
width = 140;
}
);
vhints = (
{
position = 114;
width = 156;
},
{
position = 789;
width = 156;
}
);
};
};
width = 1045;
}
);
unicode = 83;
}
{
glyphname = T;
layers = (
{
anchors = (
{
name = Bottom;
pos = (524,0);
},
{
name = Top;
pos = (524,1416);
}
);
layerId = m001;
shapes = (
{
closed = 1;
nodes = (
(988,1417,l),
(988,1277,l),
(602,1277,l),
(602,0,l),
(446,0,l),
(446,1277,l),
(60,1277,l),
(60,1417,l)
);
}
);
userData = {
com.fontlab.hintData = {
hhints = (
{
position = 0;
width = 21;
},
{
position = 1277;
width = 140;
}
);
vhints = (
{
position = 446;
width = 156;
}
);
};
};
width = 1048;
}
);
unicode = 84;
}
{
glyphname = U;
kernLeft = U;
kernRight = U;
layers = (
{
anchors = (
{
name = bottom;
pos = (618,0);
},
{
name = center;
pos = (618,1536);
},
{
name = hook;
pos = (1076,1199);
},
{
name = ogonek;
pos = (734,0);
},
{
name = top;
pos = (618,1416);
}
);
background = {
anchors = (
{
name = bottom;
pos = (618,0);
},
{
name = center;
pos = (618,1536);
},
{
name = hook;
pos = (1076,1199);
},
{
name = top;
pos = (618,1416);
}
);
shapes = (
{
closed = 1;
nodes = (
(316,1416,l),
(316,515,ls),
(316,430,o),
(316,369,o),
(336,310,cs),
(385,166,o),
(516,121,o),
(618,121,cs),
(720,121,o),
(851,166,o),
(900,310,cs),
(920,369,o),
(920,430,o),
(920,515,cs),
(920,1416,l),
(1076,1416,l),
(1076,515,ls),
(1076,425,o),
(1076,349,o),
(1050,270,cs),
(982,63,o),
(804,-19,o),
(618,-19,cs),
(432,-19,o),
(254,63,o),
(186,270,cs),
(160,349,o),
(160,425,o),
(160,515,cs),
(160,1416,l)
);
}
);
};
layerId = m001;
shapes = (
{
closed = 1;
nodes = (
(316,1416,l),
(316,515,ls),
(316,430,o),
(316,369,o),
(336,310,cs),
(385,166,o),
(516,121,o),
(618,121,cs),
(720,121,o),
(851,166,o),
(900,310,cs),
(920,369,o),
(920,430,o),
(920,515,cs),
(920,1416,l),
(1076,1416,l),
(1076,515,ls),
(1076,425,o),
(1076,349,o),
(1050,270,cs),
(982,63,o),
(804,-19,o),
(618,-19,cs),
(432,-19,o),
(254,63,o),
(186,270,cs),
(160,349,o),
(160,425,o),
(160,515,cs),
(160,1416,l)
);
}
);
userData = {
com.fontlab.hintData = {
hhints = (
{
position = -19;
width = 140;
},
{
position = 1396;
width = 20;
}
);
vhints = (
{
position = 160;
width = 156;
},
{
position = 920;
width = 156;
}
);
};
};
width = 1236;
}
);
unicode = 85;
}
{
glyphname = V;
layers = (
{
layerId = m001;
shapes = (
{
closed = 1;
nodes = (
(203,1416,l),
(595,211,l),
(987,1416,l),
(1150,1416,l),
(670,0,l),
(520,0,l),
(40,1416,l)
);
}
);
userData = {
com.fontlab.hintData = {
hhints = (
{
position = 0;
width = 21;
},
{
position = 1396;
width = 20;
}
);
};
};
width = 1190;
}
);
unicode = 86;
}
{
glyphname = W;
layers = (
{
anchors = (
{
name = Top;
pos = (750,1416);
}
);
layerId = m001;
shapes = (
{
closed = 1;
nodes = (
(462,275,l),
(675,986,l),
(825,986,l),
(1038,275,l),
(1280,1416,l),
(1440,1416,l),
(1129,0,l),
(977,0,l),
(750,762,l),
(523,0,l),
(371,0,l),
(60,1416,l),
(220,1416,l)
);
}
);
userData = {
com.fontlab.hintData = {
hhints = (
{
position = 0;
width = 21;
},
{
position = 1396;
width = 20;
}
);
};
};
width = 1500;
}
);
unicode = 87;
}
{
glyphname = X;
layers = (
{
layerId = m001;
shapes = (
{
closed = 1;
nodes = (
(230,1416,l),
(537,846,l),
(844,1416,l),
(1019,1416,l),
(625,722,l),
(1034,0,l),
(859,0,l),
(537,598,l),
(215,0,l),
(40,0,l),
(449,722,l),
(55,1416,l)
);
}
);
userData = {
com.fontlab.hintData = {
hhints = (
{
position = 0;
width = 21;
},
{
position = 1396;
width = 20;
}
);
};
};
width = 1074;
}
);
unicode = 88;
}
{
glyphname = Z;
kernLeft = Z;
kernRight = Z;
layers = (
{
anchors = (
{
name = bottom;
pos = (514,0);
},
{
name = top;
pos = (514,1416);
}
);
background = {
anchors = (
{
name = bottom;
pos = (514,0);
},
{
name = top;
pos = (514,1416);
}
);
shapes = (
{
closed = 1;
nodes = (
(105,1416,l),
(927,1416,l),
(927,1315,l),
(266,140,l),
(947,140,l),
(947,0,l),
(80,0,l),
(80,101,l),
(741,1276,l),
(105,1276,l)
);
}
);
};
layerId = m001;
shapes = (
{
closed = 1;
nodes = (
(105,1416,l),
(927,1416,l),
(927,1315,l),
(266,140,l),
(947,140,l),
(947,0,l),
(80,0,l),
(80,101,l),
(741,1276,l),
(105,1276,l)
);
}
);
userData = {
com.fontlab.hintData = {
hhints = (
{
position = 0;
width = 140;
},
{
position = 1276;
width = 140;
}
);
};
};
width = 1027;
}
);
unicode = 90;
}
{
glyphname = bracketleft;
layers = (
{
background = {
shapes = (
{
closed = 1;
nodes = (
(502,1538,l),
(502,1414,l),
(310,1414,l),
(310,-332,l),
(502,-332,l),
(502,-456,l),
(170,-456,l),
(170,1538,l)
);
}
);
};
layerId = m001;
shapes = (
{
closed = 1;
nodes = (
(502,1538,l),
(502,1414,l),
(310,1414,l),
(310,-332,l),
(502,-332,l),
(502,-456,l),
(170,-456,l),
(170,1538,l)
);
}
);
userData = {
com.fontlab.hintData = {
hhints = (
{
position = -456;
width = 124;
},
{
position = 1414;
width = 124;
}
);
vhints = (
{
position = 170;
width = 332;
},
{
position = 170;
width = 140;
}
);
};
};
width = 652;
}
);
unicode = 91;
}
{
glyphname = backslash;
layers = (
{
layerId = m001;
shapes = (
{
closed = 1;
nodes = (
(253,1416,l),
(824,-90,l),
(677,-90,l),
(106,1416,l)
);
}
);
userData = {
com.fontlab.hintData = {
hhints = (
{
position = 1396;
width = 20;
}
);
};
};
width = 930;
}
);
unicode = 92;
}
{
glyphname = bracketright;
layers = (
{
layerId = m001;
shapes = (
{
closed = 1;
nodes = (
(482,-456,l),
(150,-456,l),
(150,-332,l),
(342,-332,l),
(342,1414,l),
(150,1414,l),
(150,1538,l),
(482,1538,l)
);
}
);
userData = {
com.fontlab.hintData = {
hhints = (
{
position = -456;
width = 124;
},
{
position = 1414;
width = 124;
}
);
vhints = (
{
position = 150;
width = 332;
},
{
position = 342;
width = 140;
}
);
};
};
width = 652;
}
);
unicode = 93;
}
{
glyphname = underscore;
layers = (
{
background = {
shapes = (
{
closed = 1;
nodes = (
(810,0,l),
(810,-150,l),
(30,-150,l),
(30,0,l)
);
}
);
};
layerId = m001;
shapes = (
{
closed = 1;
nodes = (
(810,0,l),
(810,-150,l),
(30,-150,l),
(30,0,l)
);
}
);
userData = {
com.fontlab.hintData = {
hhints = (
{
position = -150;
width = 150;
}
);
};
};
width = 840;
}
);
unicode = 95;
}
{
glyphname = grave;
layers = (
{
anchors = (
{
name = _Top;
pos = (350,1082);
}
);
layerId = m001;
shapes = (
{
closed = 1;
nodes = (
(289,1496,l),
(443,1222,l),
(285,1222,l),
(120,1496,l)
);
}
);
userData = {
com.fontlab.hintData = {
hhints = (
{
position = 1222;
width = 274;
}
);
vhints = (
{
position = 120;
width = 323;
}
);
};
};
width = 563;
}
);
unicode = 96;
}
{
glyphname = a;
kernLeft = a;
kernRight = a;
layers = (
{
anchors = (
{
name = bottom;
pos = (494,0);
},
{
name = center;
pos = (495,1062);
},
{
name = ogonek;
pos = (870,0);
},
{
name = top;
pos = (495,1082);
}
);
background = {
anchors = (
{
name = bottom;
pos = (795,0);
},
{
name = center;
pos = (495,1062);
},
{
name = top;
pos = (495,1082);
}
);
shapes = (
{
closed = 1;
nodes = (
(458,527,o),
(375,527,o),
(317,477,cs),
(280,445,o),
(250,392,o),
(250,321,cs),
(250,214,o),
(321,118,o),
(465,118,cs),
(553,118,o),
(624,154,o),
(664,207,cs),
(720,281,o),
(720,378,o),
(720,468,cs),
(720,527,l),
(530,527,ls)
);
},
{
closed = 1;
nodes = (
(618,1098,o),
(722,1048,o),
(787,974,cs),
(870,879,o),
(870,779,o),
(870,703,cs),
(870,0,l),
(720,0,l),
(720,115,l),
(651,36,o),
(564,-16,o),
(445,-16,cs),
(244,-16,o),
(100,131,o),
(100,321,cs),
(100,427,o),
(146,509,o),
(209,563,cs),
(311,651,o),
(443,651,o),
(530,651,cs),
(720,651,l),
(720,703,ls),
(720,759,o),
(720,833,o),
(666,892,cs),
(626,936,o),
(566,964,o),
(485,964,cs),
(392,964,o),
(297,927,o),
(222,891,c),
(165,1015,l),
(255,1056,o),
(362,1098,o),
(485,1098,cs)
);
}
);
};
layerId = m001;
shapes = (
{
closed = 1;
nodes = (
(458,527,o),
(375,527,o),
(317,477,cs),
(280,445,o),
(250,392,o),
(250,321,cs),
(250,214,o),
(321,118,o),
(465,118,cs),
(553,118,o),
(624,154,o),
(664,207,cs),
(720,281,o),
(720,378,o),
(720,468,cs),
(720,527,l),
(530,527,ls)
);
},
{
closed = 1;
nodes = (
(618,1098,o),
(722,1048,o),
(787,974,cs),
(870,879,o),
(870,779,o),
(870,703,cs),
(870,0,l),
(720,0,l),
(720,115,l),
(651,36,o),
(564,-16,o),
(445,-16,cs),
(244,-16,o),
(100,131,o),
(100,321,cs),
(100,427,o),
(146,509,o),
(209,563,cs),
(311,651,o),
(443,651,o),
(530,651,cs),
(720,651,l),
(720,703,ls),
(720,759,o),
(720,833,o),
(666,892,cs),
(626,936,o),
(566,964,o),
(485,964,cs),
(392,964,o),
(297,927,o),
(222,891,c),
(165,1015,l),
(255,1056,o),
(362,1098,o),
(485,1098,cs)
);
}
);
userData = {
com.fontlab.hintData = {
hhints = (
{
position = -16;
width = 134;
},
{
position = 0;
width = 21;
},
{
position = 527;
width = 124;
},
{
position = 964;
width = 134;
}
);
vhints = (
{
position = 100;
width = 150;
},
{
position = 720;
width = 150;
}
);
};
};
width = 1020;
}
);
unicode = 97;
}
{
glyphname = b;
layers = (
{
layerId = m001;
shapes = (
{
closed = 1;
nodes = (
(735,1098,o),
(849,1031,o),
(910,938,cs),
(982,827,o),
(990,708,o),
(990,541,cs),
(990,374,o),
(982,255,o),
(910,144,cs),
(849,51,o),
(735,-16,o),
(595,-16,cs),
(471,-16,o),
(382,35,o),
(310,115,c),
(310,0,l),
(160,0,l),
(160,1496,l),
(310,1496,l),
(310,967,l),
(382,1047,o),
(471,1098,o),
(595,1098,cs)
);
},
{
closed = 1;
nodes = (
(482,964,o),
(412,924,o),
(370,866,cs),
(315,790,o),
(310,683,o),
(310,541,cs),
(310,399,o),
(315,292,o),
(370,216,cs),
(412,158,o),
(482,118,o),
(575,118,cs),
(668,118,o),
(738,158,o),
(780,216,cs),
(835,292,o),
(840,399,o),
(840,541,cs),
(840,683,o),
(835,790,o),
(780,866,cs),
(738,924,o),
(668,964,o),
(575,964,cs)
);
}
);
userData = {
com.fontlab.hintData = {
hhints = (
{
position = -16;
width = 134;
},
{
position = 0;
width = 21;
},
{
position = 964;
width = 134;
}
);
vhints = (
{
position = 160;
width = 150;
},
{
position = 840;
width = 150;
}
);
};
};
width = 1115;
}
);
unicode = 98;
}
{
glyphname = c;
layers = (
{
anchors = (
{
name = Bottom;
pos = (535,0);
},
{
name = Top;
pos = (535,1082);
}
);
layerId = m001;
shapes = (
{
closed = 1;
nodes = (
(661,1098,o),
(777,1050,o),
(862,997,c),
(791,879,l),
(723,923,o),
(629,964,o),
(535,964,cs),
(427,964,o),
(369,914,o),
(331,859,cs),
(275,777,o),
(275,645,o),
(275,547,cs),
(275,429,o),
(275,315,o),
(326,230,cs),
(376,147,o),
(460,118,o),
(535,118,cs),
(632,118,o),
(740,162,o),
(808,208,c),
(884,94,l),
(795,34,o),
(661,-16,o),
(535,-16,cs),
(377,-16,o),
(254,63,o),
(194,167,cs),
(126,285,o),
(125,405,o),
(125,547,cs),
(125,664,o),
(126,800,o),
(194,915,cs),
(256,1018,o),
(374,1098,o),
(535,1098,cs)
);
}
);
userData = {
com.fontlab.hintData = {
hhints = (
{
position = -16;
width = 134;
},
{
position = 964;
width = 134;
}
);
vhints = (
{
position = 125;
width = 150;
}
);
};
};
width = 964;
}
);
unicode = 99;
}
{
glyphname = e;
layers = (
{
anchors = (
{
name = Bottom;
pos = (550,0);
},
{
name = Top;
pos = (530,1082);
}
);
layerId = m001;
shapes = (
{
closed = 1;
nodes = (
(702,1098,o),
(842,1000,o),
(899,855,cs),
(935,763,o),
(935,681,o),
(935,542,cs),
(935,509,l),
(275,509,l),
(275,411,o),
(276,296,o),
(332,217,cs),
(376,154,o),
(449,118,o),
(550,118,cs),
(652,118,o),
(754,152,o),
(836,191,c),
(893,67,l),
(797,22,o),
(674,-16,o),
(550,-16,cs),
(390,-16,o),
(271,50,o),
(204,147,cs),
(125,261,o),
(125,400,o),
(125,541,cs),
(125,660,o),
(125,759,o),
(162,856,cs),
(217,1001,o),
(356,1098,o),
(530,1098,cs)
);
},
{
closed = 1;
nodes = (
(419,964,o),
(339,902,o),
(305,815,cs),
(284,761,o),
(277,698,o),
(276,633,c),
(785,633,l),
(784,691,o),
(779,757,o),
(756,814,cs),
(720,904,o),
(636,964,o),
(530,964,cs)
);
}
);
userData = {
com.fontlab.hintData = {
hhints = (
{
position = -16;
width = 134;
},
{
position = 509;
width = 124;
},
{
position = 964;
width = 134;
}
);
vhints = (
{
position = 125;
width = 150;
},
{
position = 785;
width = 150;
}
);
};
};
width = 1055;
}
);
unicode = 101;
}
{
glyphname = f;
layers = (
{
layerId = m001;
shapes = (
{
closed = 1;
nodes = (
(210,1248,o),
(210,1325,o),
(265,1403,cs),
(310,1466,o),
(388,1512,o),
(495,1512,cs),
(541,1512,o),
(590,1504,o),
(635,1495,c),
(608,1363,l),
(575,1371,o),
(530,1378,o),
(495,1378,cs),
(445,1378,o),
(413,1361,o),
(391,1330,cs),
(360,1286,o),
(360,1234,o),
(360,1143,cs),
(360,1082,l),
(560,1082,l),
(560,958,l),
(360,958,l),
(360,0,l),
(210,0,l),
(210,958,l),
(60,958,l),
(60,1082,l),
(210,1082,l),
(210,1143,ls)
);
}
);
userData = {
com.fontlab.hintData = {
hhints = (
{
position = 0;
width = 21;
},
{
position = 958;
width = 124;
},
{
position = 1378;
width = 134;
}
);
vhints = (
{
position = 210;
width = 150;
}
);
};
};
width = 615;
}
);
unicode = 102;
}
{
glyphname = g;
layers = (
{
anchors = (
{
name = bottom;
pos = (520,-414);
},
{
name = top;
pos = (520,1082);
}
);
background = {
anchors = (
{
name = bottom;
pos = (520,-414);
},
{
name = top;
pos = (520,1082);
}
);
shapes = (
{
closed = 1;
nodes = (
(644,1098,o),
(733,1047,o),
(805,967,c),
(805,1082,l),
(955,1082,l),
(955,111,ls),
(955,12,o),
(955,-65,o),
(939,-127,cs),
(886,-332,o),
(710,-427,o),
(520,-427,cs),
(402,-427,o),
(278,-393,o),
(184,-354,c),
(234,-228,l),
(313,-261,o),
(420,-293,o),
(520,-293,cs),
(653,-293,o),
(762,-229,o),
(794,-92,cs),
(805,-44,o),
(805,1,o),
(805,115,c),
(733,35,o),
(644,-16,o),
(520,-16,cs),
(380,-16,o),
(266,51,o),
(205,144,cs),
(133,255,o),
(125,374,o),
(125,541,cs),
(125,708,o),
(133,827,o),
(205,938,cs),
(266,1031,o),
(380,1098,o),
(520,1098,cs)
);
},
{
closed = 1;
nodes = (
(447,964,o),
(377,924,o),
(335,866,cs),
(280,790,o),
(275,683,o),
(275,541,cs),
(275,399,o),
(280,292,o),
(335,216,cs),
(377,158,o),
(447,118,o),
(540,118,cs),
(633,118,o),
(703,158,o),
(745,216,cs),
(800,292,o),
(805,399,o),
(805,541,cs),
(805,683,o),
(800,790,o),
(745,866,cs),
(703,924,o),
(633,964,o),
(540,964,cs)
);
}
);
};
layerId = m001;
shapes = (
{
closed = 1;
nodes = (
(644,1098,o),
(733,1047,o),
(805,967,c),
(805,1082,l),
(955,1082,l),
(955,111,ls),
(955,12,o),
(955,-65,o),
(939,-127,cs),
(886,-332,o),
(710,-427,o),
(520,-427,cs),
(402,-427,o),
(278,-393,o),
(184,-354,c),
(234,-228,l),
(313,-261,o),
(420,-293,o),
(520,-293,cs),
(653,-293,o),
(762,-229,o),
(794,-92,cs),
(805,-44,o),
(805,1,o),
(805,115,c),
(733,35,o),
(644,-16,o),
(520,-16,cs),
(380,-16,o),
(266,51,o),
(205,144,cs),
(133,255,o),
(125,374,o),
(125,541,cs),
(125,708,o),
(133,827,o),
(205,938,cs),
(266,1031,o),
(380,1098,o),
(520,1098,cs)
);
},
{
closed = 1;
nodes = (
(447,964,o),
(377,924,o),
(335,866,cs),
(280,790,o),
(275,683,o),
(275,541,cs),
(275,399,o),
(280,292,o),
(335,216,cs),
(377,158,o),
(447,118,o),
(540,118,cs),
(633,118,o),
(703,158,o),
(745,216,cs),
(800,292,o),
(805,399,o),
(805,541,cs),
(805,683,o),
(800,790,o),
(745,866,cs),
(703,924,o),
(633,964,o),
(540,964,cs)
);
}
);
userData = {
com.fontlab.hintData = {
hhints = (
{
position = -427;
width = 134;
},
{
position = -16;
width = 134;
},
{
position = 964;
width = 134;
},
{
position = 1062;
width = 20;
}
);
vhints = (
{
position = 125;
width = 150;
},
{
position = 805;
width = 150;
}
);
};
};
width = 1115;
}
);
unicode = 103;
}
{
glyphname = l;
layers = (
{
anchors = (
{
name = Bottom;
pos = (310,0);
},
{
name = Top;
pos = (234,1496);
}
);
layerId = m001;
shapes = (
{
closed = 1;
nodes = (
(310,1496,l),
(310,191,ls),
(310,169,o),
(310,146,o),
(321,132,cs),
(329,122,o),
(340,118,o),
(356,118,cs),
(370,118,o),
(386,120,o),
(402,124,c),
(426,-4,l),
(399,-12,o),
(369,-16,o),
(334,-16,cs),
(278,-16,o),
(230,11,o),
(198,50,cs),
(160,96,o),
(160,158,o),
(160,191,cs),
(160,1496,l)
);
}
);
userData = {
com.fontlab.hintData = {
hhints = (
{
position = -16;
width = 134;
}
);
vhints = (
{
position = 160;
width = 150;
}
);
};
};
width = 486;
}
);
unicode = 108;
}
{
glyphname = m;
layers = (
{
anchors = (
{
name = bottom;
pos = (830,0);
},
{
name = top;
pos = (830,1536);
}
);
background = {
shapes = (
{
closed = 1;
nodes = (
(1360,741,o),
(1360,800,o),
(1328,859,cs),
(1293,924,o),
(1221,964,o),
(1135,964,cs),
(1049,964,o),
(977,924,o),
(942,859,cs),
(910,800,o),
(910,741,o),
(910,678,cs),
(910,0,l),
(760,0,l),
(760,678,ls),
(760,741,o),
(760,800,o),
(728,859,cs),
(693,924,o),
(621,964,o),
(535,964,cs),
(449,964,o),
(377,924,o),
(342,859,cs),
(310,800,o),
(310,741,o),
(310,678,cs),
(310,0,l),
(160,0,l),
(160,1082,l),
(310,1082,l),
(310,971,l),
(379,1051,o),
(470,1098,o),
(565,1098,cs),
(701,1098,o),
(802,1030,o),
(855,927,c),
(924,1032,o),
(1033,1098,o),
(1165,1098,cs),
(1310,1098,o),
(1431,1015,o),
(1483,880,cs),
(1510,810,o),
(1510,742,o),
(1510,678,cs),
(1510,0,l),
(1360,0,l),
(1360,678,ls)
);
}
);
};
layerId = m001;
shapes = (
{
closed = 1;
nodes = (
(1360,741,o),
(1360,800,o),
(1328,859,cs),
(1293,924,o),
(1221,964,o),
(1135,964,cs),
(1049,964,o),
(977,924,o),
(942,859,cs),
(910,800,o),
(910,741,o),
(910,678,cs),
(910,0,l),
(760,0,l),
(760,678,ls),
(760,741,o),
(760,800,o),
(728,859,cs),
(693,924,o),
(621,964,o),
(535,964,cs),
(449,964,o),
(377,924,o),
(342,859,cs),
(310,800,o),
(310,741,o),
(310,678,cs),
(310,0,l),
(160,0,l),
(160,1082,l),
(310,1082,l),
(310,971,l),
(379,1051,o),
(470,1098,o),
(565,1098,cs),
(701,1098,o),
(802,1030,o),
(855,927,c),
(924,1032,o),
(1033,1098,o),
(1165,1098,cs),
(1310,1098,o),
(1431,1015,o),
(1483,880,cs),
(1510,810,o),
(1510,742,o),
(1510,678,cs),
(1510,0,l),
(1360,0,l),
(1360,678,ls)
);
}
);
userData = {
com.fontlab.hintData = {
hhints = (
{
position = 0;
width = 21;
},
{
position = 964;
width = 134;
},
{
position = 1062;
width = 20;
}
);
vhints = (
{
position = 160;
width = 150;
},
{
position = 760;
width = 150;
},
{
position = 1360;
width = 150;
}
);
};
};
width = 1660;
}
);
unicode = 109;
}
{
glyphname = n;
layers = (
{
anchors = (
{
name = Bottom;
pos = (550,0);
},
{
name = Top;
pos = (575,1082);
}
);
layerId = m001;
shapes = (
{
closed = 1;
nodes = (
(707,1098,o),
(806,1043,o),
(867,966,cs),
(950,862,o),
(950,734,o),
(950,645,cs),
(950,0,l),
(800,0,l),
(800,645,ls),
(800,742,o),
(800,816,o),
(742,884,cs),
(702,931,o),
(637,964,o),
(555,964,cs),
(473,964,o),
(408,931,o),
(368,884,cs),
(310,816,o),
(310,742,o),
(310,645,cs),
(310,0,l),
(160,0,l),
(160,1082,l),
(310,1082,l),
(310,968,l),
(382,1047,o),
(466,1098,o),
(585,1098,cs)
);
}
);
userData = {
com.fontlab.hintData = {
hhints = (
{
position = 0;
width = 21;
},
{
position = 964;
width = 134;
},
{
position = 1062;
width = 20;
}
);
vhints = (
{
position = 160;
width = 150;
},
{
position = 800;
width = 150;
}
);
};
};
width = 1100;
}
);
unicode = 110;
}
{
glyphname = o;
layers = (
{
anchors = (
{
name = Bottom;
pos = (550,0);
},
{
name = Top;
pos = (550,1082);
},
{
name = hook;
pos = (850,865);
}
);
layerId = m001;
shapes = (
{
closed = 1;
nodes = (
(461,964,o),
(392,932,o),
(351,885,cs),
(275,798,o),
(275,669,o),
(275,541,cs),
(275,413,o),
(275,284,o),
(351,197,cs),
(392,150,o),
(461,118,o),
(550,118,cs),
(639,118,o),
(708,150,o),
(749,197,cs),
(825,284,o),
(825,413,o),
(825,541,cs),
(825,669,o),
(825,798,o),
(749,885,cs),
(708,932,o),
(639,964,o),
(550,964,cs)
);
},
{
closed = 1;
nodes = (
(687,1098,o),
(797,1045,o),
(863,972,cs),
(975,848,o),
(975,688,o),
(975,541,cs),
(975,394,o),
(975,234,o),
(863,110,cs),
(797,37,o),
(687,-16,o),
(550,-16,cs),
(413,-16,o),
(303,37,o),
(237,110,cs),
(125,234,o),
(125,394,o),
(125,541,cs),
(125,688,o),
(125,848,o),
(237,972,cs),
(303,1045,o),
(413,1098,o),
(550,1098,cs)
);
}
);
userData = {
com.fontlab.hintData = {
hhints = (
{
position = -16;
width = 134;
},
{
position = 964;
width = 134;
}
);
vhints = (
{
position = 125;
width = 150;
},
{
position = 825;
width = 150;
}
);
};
};
width = 1100;
}
);
unicode = 111;
}
{
glyphname = q;
layers = (
{
background = {
shapes = (
{
closed = 1;
nodes = (
(644,1098,o),
(733,1047,o),
(805,967,c),
(805,1082,l),
(955,1082,l),
(955,-414,l),
(805,-414,l),
(805,115,l),
(733,35,o),
(644,-16,o),
(520,-16,cs),
(380,-16,o),
(266,51,o),
(205,144,cs),
(133,255,o),
(125,374,o),
(125,541,cs),
(125,708,o),
(133,827,o),
(205,938,cs),
(266,1031,o),
(380,1098,o),
(520,1098,cs)
);
},
{
closed = 1;
nodes = (
(447,964,o),
(377,924,o),
(335,866,cs),
(280,790,o),
(275,683,o),
(275,541,cs),
(275,399,o),
(280,292,o),
(335,216,cs),
(377,158,o),
(447,118,o),
(540,118,cs),
(633,118,o),
(703,158,o),
(745,216,cs),
(800,292,o),
(805,399,o),
(805,541,cs),
(805,683,o),
(800,790,o),
(745,866,cs),
(703,924,o),
(633,964,o),
(540,964,cs)
);
}
);
};
layerId = m001;
shapes = (
{
closed = 1;
nodes = (
(644,1098,o),
(733,1047,o),
(805,967,c),
(805,1082,l),
(955,1082,l),
(955,-414,l),
(805,-414,l),
(805,115,l),
(733,35,o),
(644,-16,o),
(520,-16,cs),
(380,-16,o),
(266,51,o),
(205,144,cs),
(133,255,o),
(125,374,o),
(125,541,cs),
(125,708,o),
(133,827,o),
(205,938,cs),
(266,1031,o),
(380,1098,o),
(520,1098,cs)
);
},
{
closed = 1;
nodes = (
(447,964,o),
(377,924,o),
(335,866,cs),
(280,790,o),
(275,683,o),
(275,541,cs),
(275,399,o),
(280,292,o),
(335,216,cs),
(377,158,o),
(447,118,o),
(540,118,cs),
(633,118,o),
(703,158,o),
(745,216,cs),
(800,292,o),
(805,399,o),
(805,541,cs),
(805,683,o),
(800,790,o),
(745,866,cs),
(703,924,o),
(633,964,o),
(540,964,cs)
);
}
);
userData = {
com.fontlab.hintData = {
hhints = (
{
position = -16;
width = 134;
},
{
position = 964;
width = 134;
},
{
position = 1062;
width = 20;
}
);
vhints = (
{
position = 125;
width = 150;
},
{
position = 805;
width = 150;
}
);
};
};
width = 1115;
}
);
unicode = 113;
}
{
glyphname = r;
kernLeft = r;
kernRight = r;
layers = (
{
anchors = (
{
name = bottom;
pos = (234,0);
},
{
name = top;
pos = (465,1082);
}
);
background = {
anchors = (
{
name = bottom;
pos = (234,0);
},
{
name = top;
pos = (465,1082);
}
);
shapes = (
{
closed = 1;
nodes = (
(598,1098,o),
(629,1093,o),
(657,1087,c),
(635,955,l),
(607,959,o),
(576,964,o),
(545,964,cs),
(441,964,o),
(365,910,o),
(332,831,cs),
(310,778,o),
(310,712,o),
(310,643,cs),
(310,0,l),
(160,0,l),
(160,1082,l),
(310,1082,l),
(310,968,l),
(378,1049,o),
(455,1098,o),
(565,1098,cs)
);
}
);
};
layerId = m001;
shapes = (
{
closed = 1;
nodes = (
(598,1098,o),
(629,1093,o),
(657,1087,c),
(635,955,l),
(607,959,o),
(576,964,o),
(545,964,cs),
(441,964,o),
(365,910,o),
(332,831,cs),
(310,778,o),
(310,712,o),
(310,643,cs),
(310,0,l),
(160,0,l),
(160,1082,l),
(310,1082,l),
(310,968,l),
(378,1049,o),
(455,1098,o),
(565,1098,cs)
);
}
);
userData = {
com.fontlab.hintData = {
hhints = (
{
position = 0;
width = 21;
},
{
position = 964;
width = 134;
},
{
position = 1062;
width = 20;
}
);
vhints = (
{
position = 160;
width = 150;
}
);
};
};
width = 697;
}
);
unicode = 114;
}
{
glyphname = s;
layers = (
{
anchors = (
{
name = apos;
pos = (32,0);
},
{
name = bottom;
pos = (478,0);
},
{
name = center;
pos = (32,0);
},
{
name = doubletop;
pos = (32,0);
},
{
name = top;
pos = (478,1082);
}
);
background = {
anchors = (
{
name = apos;
pos = (32,0);
},
{
name = bottom;
pos = (478,0);
},
{
name = center;
pos = (32,0);
},
{
name = doubletop;
pos = (32,0);
},
{
name = top;
pos = (478,1082);
}
);
shapes = (
{
closed = 1;
nodes = (
(602,1098,o),
(724,1057,o),
(821,1016,c),
(770,889,l),
(683,926,o),
(579,964,o),
(478,964,cs),
(313,964,o),
(267,859,o),
(267,796,cs),
(267,725,o),
(313,675,o),
(364,652,cs),
(447,614,o),
(531,629,o),
(655,583,cs),
(762,543,o),
(863,445,o),
(863,301,cs),
(863,144,o),
(731,-16,o),
(478,-16,cs),
(341,-16,o),
(206,30,o),
(100,77,c),
(154,202,l),
(247,160,o),
(360,118,o),
(478,118,cs),
(651,118,o),
(713,221,o),
(713,301,cs),
(713,382,o),
(657,438,o),
(595,461,cs),
(509,493,o),
(404,483,o),
(294,534,cs),
(200,578,o),
(117,669,o),
(117,796,cs),
(117,952,o),
(250,1098,o),
(478,1098,cs)
);
}
);
};
layerId = m001;
shapes = (
{
closed = 1;
nodes = (
(602,1098,o),
(724,1057,o),
(821,1016,c),
(770,889,l),
(683,926,o),
(579,964,o),
(478,964,cs),
(313,964,o),
(267,859,o),
(267,796,cs),
(267,725,o),
(313,675,o),
(364,652,cs),
(447,614,o),
(531,629,o),
(655,583,cs),
(762,543,o),
(863,445,o),
(863,301,cs),
(863,144,o),
(731,-16,o),
(478,-16,cs),
(341,-16,o),
(206,30,o),
(100,77,c),
(154,202,l),
(247,160,o),
(360,118,o),
(478,118,cs),
(651,118,o),
(713,221,o),
(713,301,cs),
(713,382,o),
(657,438,o),
(595,461,cs),
(509,493,o),
(404,483,o),
(294,534,cs),
(200,578,o),
(117,669,o),
(117,796,cs),
(117,952,o),
(250,1098,o),
(478,1098,cs)
);
}
);
userData = {
com.fontlab.hintData = {
hhints = (
{
position = -16;
width = 134;
},
{
position = 964;
width = 134;
}
);
vhints = (
{
position = 117;
width = 150;
},
{
position = 713;
width = 150;
}
);
};
};
width = 963;
}
);
unicode = 115;
}
{
glyphname = t;
layers = (
{
anchors = (
{
name = Apos;
pos = (581,1494);
},
{
name = Bottom;
pos = (415,0);
}
);
layerId = m001;
shapes = (
{
closed = 1;
nodes = (
(190,958,l),
(40,958,l),
(40,1082,l),
(190,1082,l),
(190,1316,l),
(340,1316,l),
(340,1082,l),
(540,1082,l),
(540,958,l),
(340,958,l),
(340,303,ls),
(340,220,o),
(340,195,o),
(349,173,cs),
(365,134,o),
(399,118,o),
(435,118,cs),
(474,118,o),
(518,134,o),
(549,150,c),
(607,26,l),
(552,2,o),
(501,-16,o),
(425,-16,cs),
(312,-16,o),
(230,41,o),
(201,142,cs),
(190,180,o),
(190,218,o),
(190,303,cs)
);
}
);
userData = {
com.fontlab.hintData = {
hhints = (
{
position = -16;
width = 134;
},
{
position = 958;
width = 124;
}
);
vhints = (
{
position = 190;
width = 150;
}
);
};
};
width = 652;
}
);
unicode = 116;
}
{
glyphname = u;
layers = (
{
anchors = (
{
name = Bottom;
pos = (545,0);
},
{
name = Center;
pos = (545,1202);
},
{
name = Top;
pos = (545,1082);
},
{
name = hook;
pos = (940,865);
}
);
layerId = m001;
shapes = (
{
closed = 1;
nodes = (
(300,1082,l),
(300,437,ls),
(300,340,o),
(300,266,o),
(358,198,cs),
(398,151,o),
(463,118,o),
(545,118,cs),
(627,118,o),
(692,151,o),
(732,198,cs),
(790,266,o),
(790,340,o),
(790,437,cs),
(790,1082,l),
(940,1082,l),
(940,437,ls),
(940,364,o),
(940,293,o),
(913,221,cs),
(859,76,o),
(722,-16,o),
(545,-16,cs),
(368,-16,o),
(231,76,o),
(177,221,cs),
(150,293,o),
(150,364,o),
(150,437,cs),
(150,1082,l)
);
}
);
userData = {
com.fontlab.hintData = {
hhints = (
{
position = -16;
width = 134;
},
{
position = 1062;
width = 20;
}
);
vhints = (
{
position = 150;
width = 150;
},
{
position = 790;
width = 150;
}
);
};
};
width = 1100;
}
);
unicode = 117;
}
{
glyphname = v;
layers = (
{
anchors = (
{
name = top;
pos = (505,1082);
}
);
background = {
anchors = (
{
name = top;
pos = (505,1082);
}
);
shapes = (
{
closed = 1;
nodes = (
(60,1082,l),
(217,1082,l),
(505,192,l),
(793,1082,l),
(950,1082,l),
(577,0,l),
(433,0,l)
);
}
);
};
layerId = m001;
shapes = (
{
closed = 1;
nodes = (
(60,1082,l),
(217,1082,l),
(505,192,l),
(793,1082,l),
(950,1082,l),
(577,0,l),
(433,0,l)
);
}
);
userData = {
com.fontlab.hintData = {
hhints = (
{
position = 0;
width = 21;
},
{
position = 1062;
width = 20;
}
);
};
};
width = 1010;
}
);
unicode = 118;
}
{
glyphname = w;
layers = (
{
anchors = (
{
name = Top;
pos = (704,1082);
}
);
layerId = m001;
shapes = (
{
closed = 1;
nodes = (
(223,1082,l),
(409,248,l),
(631,1082,l),
(777,1082,l),
(999,248,l),
(1185,1082,l),
(1338,1082,l),
(1079,0,l),
(933,0,l),
(704,856,l),
(475,0,l),
(329,0,l),
(70,1082,l)
);
}
);
userData = {
com.fontlab.hintData = {
hhints = (
{
position = 0;
width = 21;
},
{
position = 1062;
width = 20;
}
);
};
};
width = 1408;
}
);
unicode = 119;
}
{
glyphname = x;
layers = (
{
background = {
shapes = (
{
closed = 1;
nodes = (
(728,0,l),
(484,421,l),
(240,0,l),
(70,0,l),
(399,545,l),
(75,1082,l),
(245,1082,l),
(484,669,l),
(723,1082,l),
(893,1082,l),
(569,545,l),
(898,0,l)
);
}
);
};
layerId = m001;
shapes = (
{
closed = 1;
nodes = (
(728,0,l),
(484,421,l),
(240,0,l),
(70,0,l),
(399,545,l),
(75,1082,l),
(245,1082,l),
(484,669,l),
(723,1082,l),
(893,1082,l),
(569,545,l),
(898,0,l)
);
}
);
userData = {
com.fontlab.hintData = {
hhints = (
{
position = 0;
width = 21;
},
{
position = 1062;
width = 20;
}
);
};
};
width = 968;
}
);
unicode = 120;
}
{
glyphname = y;
layers = (
{
anchors = (
{
name = Bottom;
pos = (474,-342);
},
{
name = Top;
pos = (505,1082);
}
);
layerId = m001;
shapes = (
{
closed = 1;
nodes = (
(127,-279,l),
(160,-288,o),
(192,-293,o),
(222,-293,cs),
(274,-293,o),
(313,-278,o),
(342,-255,cs),
(383,-223,o),
(398,-178,o),
(415,-124,cs),
(454,-2,l),
(60,1082,l),
(216,1082,l),
(521,207,l),
(793,1082,l),
(950,1082,l),
(550,-159,ls),
(525,-242,o),
(498,-299,o),
(444,-347,cs),
(391,-394,o),
(318,-427,o),
(222,-427,cs),
(176,-427,o),
(134,-419,o),
(94,-409,c)
);
}
);
userData = {
com.fontlab.hintData = {
hhints = (
{
position = -427;
width = 134;
},
{
position = 1062;
width = 20;
}
);
};
};
width = 1010;
}
);
unicode = 121;
}
{
glyphname = z;
kernLeft = z;
kernRight = z;
layers = (
{
anchors = (
{
name = bottom;
pos = (440,0);
},
{
name = top;
pos = (440,1082);
}
);
background = {
anchors = (
{
name = bottom;
pos = (440,0);
},
{
name = top;
pos = (440,1082);
}
);
shapes = (
{
closed = 1;
nodes = (
(800,0,l),
(80,0,l),
(80,108,l),
(606,948,l),
(87,948,l),
(87,1082,l),
(791,1082,l),
(791,974,l),
(265,134,l),
(800,134,l)
);
}
);
};
layerId = m001;
shapes = (
{
closed = 1;
nodes = (
(800,0,l),
(80,0,l),
(80,108,l),
(606,948,l),
(87,948,l),
(87,1082,l),
(791,1082,l),
(791,974,l),
(265,134,l),
(800,134,l)
);
}
);
userData = {
com.fontlab.hintData = {
hhints = (
{
position = 0;
width = 134;
},
{
position = 948;
width = 134;
}
);
};
};
width = 880;
}
);
unicode = 122;
}
{
glyphname = braceleft;
layers = (
{
background = {
shapes = (
{
closed = 1;
nodes = (
(360,462,o),
(421,346,o),
(421,174,cs),
(421,102,o),
(411,35,o),
(411,-27,cs),
(411,-198,o),
(482,-297,o),
(573,-346,c),
(530,-444,l),
(370,-376,o),
(271,-241,o),
(271,-27,cs),
(271,45,o),
(281,112,o),
(281,174,cs),
(281,336,o),
(216,437,o),
(110,485,c),
(110,597,l),
(216,645,o),
(281,746,o),
(281,908,cs),
(281,970,o),
(271,1037,o),
(271,1109,cs),
(271,1323,o),
(370,1458,o),
(530,1526,c),
(573,1428,l),
(482,1379,o),
(411,1280,o),
(411,1109,cs),
(411,1047,o),
(421,980,o),
(421,908,cs),
(421,736,o),
(360,620,o),
(264,541,c)
);
}
);
};
layerId = m001;
shapes = (
{
closed = 1;
nodes = (
(360,462,o),
(421,346,o),
(421,174,cs),
(421,102,o),
(411,35,o),
(411,-27,cs),
(411,-198,o),
(482,-297,o),
(573,-346,c),
(530,-444,l),
(370,-376,o),
(271,-241,o),
(271,-27,cs),
(271,45,o),
(281,112,o),
(281,174,cs),
(281,336,o),
(216,437,o),
(110,485,c),
(110,597,l),
(216,645,o),
(281,746,o),
(281,908,cs),
(281,970,o),
(271,1037,o),
(271,1109,cs),
(271,1323,o),
(370,1458,o),
(530,1526,c),
(573,1428,l),
(482,1379,o),
(411,1280,o),
(411,1109,cs),
(411,1047,o),
(421,980,o),
(421,908,cs),
(421,736,o),
(360,620,o),
(264,541,c)
);
}
);
userData = {
com.fontlab.hintData = {
vhints = (
{
position = 271;
width = 140;
}
);
};
};
width = 703;
}
);
unicode = 123;
}
{
glyphname = bar;
layers = (
{
background = {
shapes = (
{
closed = 1;
nodes = (
(316,1538,l),
(316,-456,l),
(176,-456,l),
(176,1538,l)
);
}
);
};
layerId = m001;
shapes = (
{
closed = 1;
nodes = (
(316,1538,l),
(316,-456,l),
(176,-456,l),
(176,1538,l)
);
}
);
userData = {
com.fontlab.hintData = {
vhints = (
{
position = 176;
width = 140;
}
);
};
};
width = 492;
}
);
unicode = 124;
}
{
glyphname = braceright;
layers = (
{
layerId = m001;
shapes = (
{
closed = 1;
nodes = (
(343,620,o),
(282,736,o),
(282,908,cs),
(282,980,o),
(292,1047,o),
(292,1109,cs),
(292,1280,o),
(221,1379,o),
(130,1428,c),
(173,1526,l),
(333,1458,o),
(432,1323,o),
(432,1109,cs),
(432,1037,o),
(422,970,o),
(422,908,cs),
(422,746,o),
(487,645,o),
(593,597,c),
(593,485,l),
(487,437,o),
(422,336,o),
(422,174,cs),
(422,112,o),
(432,45,o),
(432,-27,cs),
(432,-241,o),
(333,-376,o),
(173,-444,c),
(130,-346,l),
(221,-297,o),
(292,-198,o),
(292,-27,cs),
(292,35,o),
(282,102,o),
(282,174,cs),
(282,346,o),
(343,462,o),
(439,541,c)
);
}
);
userData = {
com.fontlab.hintData = {
vhints = (
{
position = 292;
width = 140;
}
);
};
};
width = 703;
}
);
unicode = 125;
}
{
glyphname = asciitilde;
layers = (
{
layerId = m001;
shapes = (
{
closed = 1;
nodes = (
(550,678,o),
(629,538,o),
(738,538,cs),
(799,538,o),
(852,591,o),
(875,669,c),
(1014,625,l),
(979,506,o),
(880,404,o),
(738,404,cs),
(564,404,o),
(485,544,o),
(376,544,cs),
(315,544,o),
(262,491,o),
(239,413,c),
(100,457,l),
(135,576,o),
(234,678,o),
(376,678,cs)
);
}
);
userData = {
com.fontlab.hintData = {
hhints = (
{
position = 404;
width = 134;
},
{
position = 544;
width = 134;
}
);
vhints = (
{
position = 100;
width = 139;
},
{
position = 875;
width = 139;
}
);
};
};
width = 1114;
}
);
unicode = 126;
}
{
glyphname = exclamdown;
layers = (
{
background = {
shapes = (
{
closed = 1;
nodes = (
(185,798,o),
(140,843,o),
(140,908,cs),
(140,973,o),
(185,1018,o),
(250,1018,cs),
(315,1018,o),
(360,973,o),
(360,908,cs),
(360,843,o),
(315,798,o),
(250,798,cs)
);
},
{
closed = 1;
nodes = (
(172,-49,ls),
(172,192,o),
(192,614,o),
(192,614,c),
(308,614,l),
(308,614,o),
(328,190,o),
(328,-49,cs),
(328,-414,l),
(172,-414,l)
);
}
);
};
layerId = m001;
shapes = (
{
closed = 1;
nodes = (
(185,798,o),
(140,843,o),
(140,908,cs),
(140,973,o),
(185,1018,o),
(250,1018,cs),
(315,1018,o),
(360,973,o),
(360,908,cs),
(360,843,o),
(315,798,o),
(250,798,cs)
);
},
{
closed = 1;
nodes = (
(172,-49,ls),
(172,192,o),
(192,614,o),
(192,614,c),
(308,614,l),
(308,614,o),
(328,190,o),
(328,-49,cs),
(328,-414,l),
(172,-414,l)
);
}
);
userData = {
com.fontlab.hintData = {
hhints = (
{
position = 798;
width = 220;
}
);
vhints = (
{
position = 140;
width = 220;
},
{
position = 172;
width = 156;
}
);
};
};
width = 500;
}
);
unicode = 161;
}
{
glyphname = cent;
layers = (
{
layerId = m001;
shapes = (
{
closed = 1;
nodes = (
(605,1282,l),
(605,1096,l),
(736,1084,o),
(838,1028,o),
(915,963,c),
(831,857,l),
(771,906,o),
(699,949,o),
(605,961,c),
(605,121,l),
(707,133,o),
(787,182,o),
(843,244,c),
(943,152,l),
(866,66,o),
(751,-1,o),
(605,-14,c),
(605,-220,l),
(505,-220,l),
(505,-14,l),
(364,-1,o),
(251,67,o),
(190,164,cs),
(120,276,o),
(120,397,o),
(120,541,cs),
(120,692,o),
(120,808,o),
(189,917,cs),
(251,1015,o),
(361,1083,o),
(505,1096,c),
(505,1282,l)
);
},
{
closed = 1;
nodes = (
(505,961,l),
(409,950,o),
(347,905,o),
(313,854,cs),
(260,775,o),
(260,683,o),
(260,541,cs),
(260,405,o),
(260,315,o),
(310,234,cs),
(348,173,o),
(417,132,o),
(505,121,c)
);
}
);
userData = {
com.fontlab.hintData = {
hhints = (
{
position = -14;
width = 135;
},
{
position = 961;
width = 135;
}
);
vhints = (
{
position = 120;
width = 140;
},
{
position = 505;
width = 100;
}
);
};
};
width = 1019;
}
);
unicode = 162;
}
{
glyphname = sterling;
layers = (
{
layerId = m001;
shapes = (
{
closed = 1;
nodes = (
(677,1435,o),
(781,1383,o),
(848,1322,c),
(750,1214,l),
(700,1260,o),
(633,1295,o),
(551,1295,cs),
(419,1295,o),
(329,1207,o),
(329,1064,cs),
(329,959,o),
(374,855,o),
(399,722,c),
(804,722,l),
(804,598,l),
(414,598,l),
(416,581,o),
(416,564,o),
(416,546,cs),
(416,405,o),
(380,262,o),
(317,140,c),
(908,140,l),
(908,0,l),
(120,0,l),
(120,107,l),
(210,232,o),
(260,390,o),
(260,546,cs),
(260,564,o),
(260,581,o),
(258,598,c),
(120,598,l),
(120,722,l),
(241,722,l),
(215,843,o),
(173,936,o),
(173,1064,cs),
(173,1291,o),
(342,1435,o),
(551,1435,cs)
);
}
);
userData = {
com.fontlab.hintData = {
hhints = (
{
position = 0;
width = 140;
},
{
position = 598;
width = 124;
},
{
position = 1295;
width = 140;
}
);
vhints = (
{
position = 173;
width = 156;
},
{
position = 260;
width = 156;
}
);
};
};
width = 1014;
}
);
unicode = 163;
}
{
glyphname = currency;
layers = (
{
layerId = m001;
shapes = (
{
closed = 1;
nodes = (
(461,764,o),
(370,683,o),
(370,541,cs),
(370,399,o),
(461,318,o),
(585,318,cs),
(709,318,o),
(800,399,o),
(800,541,cs),
(800,683,o),
(709,764,o),
(585,764,cs)
);
},
{
closed = 1;
nodes = (
(135,192,l),
(280,337,l),
(241,394,o),
(220,465,o),
(220,541,cs),
(220,617,o),
(241,688,o),
(280,745,c),
(135,890,l),
(236,991,l),
(383,844,l),
(439,878,o),
(508,898,o),
(585,898,cs),
(662,898,o),
(731,878,o),
(787,844,c),
(934,991,l),
(1035,890,l),
(890,745,l),
(929,688,o),
(950,617,o),
(950,541,cs),
(950,465,o),
(929,394,o),
(890,337,c),
(1035,192,l),
(934,91,l),
(787,238,l),
(731,204,o),
(662,184,o),
(585,184,cs),
(508,184,o),
(439,204,o),
(383,238,c),
(236,91,l)
);
}
);
userData = {
com.fontlab.hintData = {
hhints = (
{
position = 184;
width = 134;
},
{
position = 764;
width = 134;
}
);
vhints = (
{
position = 220;
width = 150;
},
{
position = 800;
width = 150;
}
);
};
};
width = 1170;
}
);
unicode = 164;
}
{
glyphname = yen;
layers = (
{
layerId = m001;
shapes = (
{
closed = 1;
nodes = (
(249,1416,l),
(581,672,l),
(913,1416,l),
(1082,1416,l),
(768,745,l),
(962,745,l),
(962,621,l),
(707,621,l),
(659,526,l),
(659,451,l),
(962,451,l),
(962,327,l),
(659,327,l),
(659,0,l),
(503,0,l),
(503,327,l),
(200,327,l),
(200,451,l),
(503,451,l),
(503,526,l),
(455,621,l),
(200,621,l),
(200,745,l),
(394,745,l),
(80,1416,l)
);
}
);
userData = {
com.fontlab.hintData = {
hhints = (
{
position = 0;
width = 21;
},
{
position = 327;
width = 124;
},
{
position = 621;
width = 124;
},
{
position = 1396;
width = 20;
}
);
vhints = (
{
position = 503;
width = 156;
}
);
};
};
width = 1162;
}
);
unicode = 165;
}
{
glyphname = brokenbar;
layers = (
{
layerId = m001;
shapes = (
{
closed = 1;
nodes = (
(316,1538,l),
(316,698,l),
(176,698,l),
(176,1538,l)
);
},
{
closed = 1;
nodes = (
(316,394,l),
(316,-456,l),
(176,-456,l),
(176,394,l)
);
}
);
userData = {
com.fontlab.hintData = {
vhints = (
{
position = 176;
width = 140;
}
);
};
};
width = 492;
}
);
unicode = 166;
}
{
glyphname = section;
layers = (
{
layerId = m001;
shapes = (
{
closed = 1;
nodes = (
(622,1490,o),
(738,1444,o),
(822,1393,c),
(750,1275,l),
(688,1316,o),
(594,1356,o),
(491,1356,cs),
(384,1356,o),
(302,1300,o),
(302,1198,cs),
(302,1091,o),
(388,1056,o),
(487,1043,cs),
(568,1032,o),
(642,1021,o),
(706,983,cs),
(786,936,o),
(852,846,o),
(852,728,cs),
(852,639,o),
(810,553,o),
(721,497,c),
(814,448,o),
(876,360,o),
(876,247,cs),
(876,38,o),
(686,-74,o),
(491,-74,cs),
(333,-74,o),
(203,-20,o),
(105,38,c),
(175,156,l),
(256,104,o),
(365,60,o),
(491,60,cs),
(616,60,o),
(726,120,o),
(726,247,cs),
(726,309,o),
(694,356,o),
(654,382,cs),
(617,406,o),
(564,417,o),
(500,425,cs),
(435,433,o),
(355,441,o),
(280,484,cs),
(200,530,o),
(130,618,o),
(130,736,cs),
(130,848,o),
(197,929,o),
(280,974,c),
(190,1031,o),
(152,1115,o),
(152,1198,cs),
(152,1375,o),
(304,1490,o),
(491,1490,cs)
);
},
{
closed = 1;
nodes = (
(652,574,o),
(702,641,o),
(702,728,cs),
(702,802,o),
(661,852,o),
(617,875,cs),
(552,910,o),
(464,903,o),
(394,922,c),
(337,891,o),
(280,828,o),
(280,736,cs),
(280,670,o),
(318,621,o),
(362,596,cs),
(427,559,o),
(524,562,o),
(600,545,c)
);
}
);
userData = {
com.fontlab.hintData = {
hhints = (
{
position = -74;
width = 134;
},
{
position = 1356;
width = 134;
}
);
vhints = (
{
position = 130;
width = 150;
},
{
position = 152;
width = 150;
},
{
position = 702;
width = 150;
},
{
position = 726;
width = 150;
}
);
};
};
width = 1001;
}
);
unicode = 167;
}
{
glyphname = dieresis;
layers = (
{
anchors = (
{
name = _Top;
pos = (405,1082);
}
);
layerId = m001;
shapes = (
{
closed = 1;
nodes = (
(651,1435,o),
(690,1396,o),
(690,1341,cs),
(690,1286,o),
(651,1247,o),
(596,1247,cs),
(541,1247,o),
(502,1286,o),
(502,1341,cs),
(502,1396,o),
(541,1435,o),
(596,1435,cs)
);
},
{
closed = 1;
nodes = (
(269,1435,o),
(308,1396,o),
(308,1341,cs),
(308,1286,o),
(269,1247,o),
(214,1247,cs),
(159,1247,o),
(120,1286,o),
(120,1341,cs),
(120,1396,o),
(159,1435,o),
(214,1435,cs)
);
}
);
userData = {
com.fontlab.hintData = {
hhints = (
{
position = 1247;
width = 188;
}
);
vhints = (
{
position = 120;
width = 188;
},
{
position = 502;
width = 188;
}
);
};
};
width = 810;
}
);
unicode = 168;
}
{
glyphname = copyright;
layers = (
{
layerId = m001;
shapes = (
{
closed = 1;
nodes = (
(1027,1448,o),
(1209,1370,o),
(1315,1223,cs),
(1427,1068,o),
(1428,860,o),
(1428,708,cs),
(1428,556,o),
(1427,348,o),
(1315,193,cs),
(1209,46,o),
(1027,-32,o),
(782,-32,cs),
(537,-32,o),
(355,46,o),
(249,193,cs),
(137,348,o),
(136,556,o),
(136,708,cs),
(136,860,o),
(137,1068,o),
(249,1223,cs),
(355,1370,o),
(537,1448,o),
(782,1448,cs)
);
},
{
closed = 1;
nodes = (
(576,1348,o),
(431,1288,o),
(343,1169,cs),
(252,1047,o),
(248,856,o),
(248,708,cs),
(248,560,o),
(252,369,o),
(343,247,cs),
(431,128,o),
(576,68,o),
(782,68,cs),
(988,68,o),
(1133,128,o),
(1221,247,cs),
(1312,369,o),
(1316,560,o),
(1316,708,cs),
(1316,856,o),
(1312,1047,o),
(1221,1169,cs),
(1133,1288,o),
(988,1348,o),
(782,1348,cs)
);
},
{
closed = 1;
nodes = (
(980,289,o),
(886,234,o),
(763,234,cs),
(622,234,o),
(526,300,o),
(477,402,cs),
(436,488,o),
(434,600,o),
(434,707,cs),
(434,822,o),
(438,927,o),
(474,1008,cs),
(519,1109,o),
(619,1182,o),
(763,1182,cs),
(870,1182,o),
(954,1141,o),
(1015,1090,c),
(925,984,l),
(880,1021,o),
(835,1048,o),
(763,1048,cs),
(588,1048,o),
(584,882,o),
(584,707,cs),
(584,527,o),
(590,368,o),
(763,368,cs),
(845,368,o),
(894,406,o),
(940,453,c),
(1041,355,l)
);
}
);
userData = {
com.fontlab.hintData = {
hhints = (
{
position = -32;
width = 100;
},
{
position = 234;
width = 134;
},
{
position = 1048;
width = 134;
},
{
position = 1348;
width = 100;
}
);
vhints = (
{
position = 136;
width = 112;
},
{
position = 434;
width = 150;
},
{
position = 1316;
width = 112;
}
);
};
};
width = 1564;
}
);
unicode = 169;
}
{
glyphname = ordfeminine;
layers = (
{
layerId = m001;
shapes = (
{
closed = 1;
nodes = (
(232,817,o),
(285,772,o),
(361,772,cs),
(415,772,o),
(459,793,o),
(482,826,cs),
(517,873,o),
(517,930,o),
(517,1021,c),
(438,1021,ls),
(341,1021,o),
(304,1019,o),
(272,991,cs),
(249,971,o),
(232,937,o),
(232,895,cs)
);
},
{
closed = 1;
nodes = (
(517,1186,o),
(517,1236,o),
(486,1272,cs),
(462,1300,o),
(424,1314,o),
(374,1314,cs),
(308,1314,o),
(254,1293,o),
(204,1268,c),
(152,1376,l),
(212,1406,o),
(287,1432,o),
(374,1432,cs),
(471,1432,o),
(549,1397,o),
(593,1341,cs),
(649,1270,o),
(649,1200,o),
(649,1112,cs),
(649,667,l),
(517,667,l),
(517,747,l),
(470,680,o),
(412,654,o),
(346,654,cs),
(211,654,o),
(100,748,o),
(100,895,cs),
(100,970,o),
(132,1028,o),
(177,1066,cs),
(253,1129,o),
(328,1129,o),
(438,1129,cs),
(517,1129,l)
);
}
);
userData = {
com.fontlab.hintData = {
hhints = (
{
position = 654;
width = 118;
},
{
position = 1021;
width = 108;
},
{
position = 1314;
width = 118;
}
);
vhints = (
{
position = 100;
width = 132;
},
{
position = 517;
width = 132;
}
);
};
};
width = 789;
}
);
unicode = 170;
}
{
glyphname = guillemetleft;
layers = (
{
background = {
shapes = (
{
closed = 1;
nodes = (
(822,867,l),
(612,539,l),
(822,211,l),
(704,139,l),
(460,539,l),
(704,939,l)
);
},
{
closed = 1;
nodes = (
(490,883,l),
(272,539,l),
(490,195,l),
(372,123,l),
(120,539,l),
(372,955,l)
);
}
);
};
layerId = m001;
shapes = (
{
closed = 1;
nodes = (
(822,867,l),
(612,539,l),
(822,211,l),
(704,139,l),
(460,539,l),
(704,939,l)
);
},
{
closed = 1;
nodes = (
(490,883,l),
(272,539,l),
(490,195,l),
(372,123,l),
(120,539,l),
(372,955,l)
);
}
);
width = 942;
}
);
unicode = 171;
}
{
glyphname = logicalnot;
layers = (
{
layerId = m001;
shapes = (
{
closed = 1;
nodes = (
(820,608,l),
(820,200,l),
(670,200,l),
(670,474,l),
(120,474,l),
(120,608,l)
);
}
);
userData = {
com.fontlab.hintData = {
hhints = (
{
position = 474;
width = 134;
}
);
vhints = (
{
position = 670;
width = 150;
}
);
};
};
width = 940;
}
);
unicode = 172;
}
{
glyphname = registered;
layers = (
{
layerId = m001;
shapes = (
{
closed = 1;
nodes = (
(1027,1448,o),
(1209,1370,o),
(1315,1223,cs),
(1427,1068,o),
(1428,860,o),
(1428,708,cs),
(1428,556,o),
(1427,348,o),
(1315,193,cs),
(1209,46,o),
(1027,-32,o),
(782,-32,cs),
(537,-32,o),
(355,46,o),
(249,193,cs),
(137,348,o),
(136,556,o),
(136,708,cs),
(136,860,o),
(137,1068,o),
(249,1223,cs),
(355,1370,o),
(537,1448,o),
(782,1448,cs)
);
},
{
closed = 1;
nodes = (
(576,1348,o),
(431,1288,o),
(343,1169,cs),
(252,1047,o),
(248,856,o),
(248,708,cs),
(248,560,o),
(252,369,o),
(343,247,cs),
(431,128,o),
(576,68,o),
(782,68,cs),
(988,68,o),
(1133,128,o),
(1221,247,cs),
(1312,369,o),
(1316,560,o),
(1316,708,cs),
(1316,856,o),
(1312,1047,o),
(1221,1169,cs),
(1133,1288,o),
(988,1348,o),
(782,1348,cs)
);
},
{
closed = 1;
nodes = (
(696,713,ls),
(783,713,o),
(836,713,o),
(879,743,cs),
(914,768,o),
(936,815,o),
(936,869,cs),
(936,924,o),
(914,971,o),
(879,996,cs),
(841,1023,o),
(795,1026,o),
(696,1026,cs),
(658,1026,l),
(658,713,l)
);
},
{
closed = 1;
nodes = (
(696,1160,ls),
(797,1160,o),
(887,1160,o),
(973,1100,cs),
(1041,1052,o),
(1086,970,o),
(1086,869,cs),
(1086,760,o),
(1032,662,o),
(935,618,c),
(1103,258,l),
(941,258,l),
(794,579,l),
(658,579,l),
(658,258,l),
(508,258,l),
(508,1160,l)
);
}
);
userData = {
com.fontlab.hintData = {
hhints = (
{
position = -32;
width = 100;
},
{
position = 579;
width = 134;
},
{
position = 1026;
width = 134;
},
{
position = 1348;
width = 100;
}
);
vhints = (
{
position = 136;
width = 112;
},
{
position = 508;
width = 150;
},
{
position = 936;
width = 150;
},
{
position = 1316;
width = 112;
}
);
};
};
width = 1564;
}
);
unicode = 174;
}
{
glyphname = macron;
layers = (
{
anchors = (
{
name = _Top;
pos = (405,1082);
}
);
layerId = m001;
shapes = (
{
closed = 1;
nodes = (
(690,1386,l),
(690,1252,l),
(120,1252,l),
(120,1386,l)
);
}
);
userData = {
com.fontlab.hintData = {
hhints = (
{
position = 1252;
width = 134;
}
);
vhints = (
{
position = 120;
width = 570;
}
);
};
};
width = 810;
}
);
unicode = 175;
}
{
glyphname = degree;
layers = (
{
background = {
shapes = (
{
closed = 1;
nodes = (
(286,1393,o),
(232,1350,o),
(232,1252,cs),
(232,1154,o),
(286,1111,o),
(346,1111,cs),
(406,1111,o),
(460,1154,o),
(460,1252,cs),
(460,1350,o),
(406,1393,o),
(346,1393,cs)
);
},
{
closed = 1;
nodes = (
(498,1511,o),
(592,1390,o),
(592,1252,cs),
(592,1114,o),
(498,993,o),
(346,993,cs),
(194,993,o),
(100,1114,o),
(100,1252,cs),
(100,1390,o),
(194,1511,o),
(346,1511,cs)
);
}
);
};
layerId = m001;
shapes = (
{
closed = 1;
nodes = (
(286,1393,o),
(232,1350,o),
(232,1252,cs),
(232,1154,o),
(286,1111,o),
(346,1111,cs),
(406,1111,o),
(460,1154,o),
(460,1252,cs),
(460,1350,o),
(406,1393,o),
(346,1393,cs)
);
},
{
closed = 1;
nodes = (
(498,1511,o),
(592,1390,o),
(592,1252,cs),
(592,1114,o),
(498,993,o),
(346,993,cs),
(194,993,o),
(100,1114,o),
(100,1252,cs),
(100,1390,o),
(194,1511,o),
(346,1511,cs)
);
}
);
userData = {
com.fontlab.hintData = {
hhints = (
{
position = 993;
width = 118;
},
{
position = 1393;
width = 118;
}
);
vhints = (
{
position = 100;
width = 132;
},
{
position = 460;
width = 132;
}
);
};
};
width = 692;
}
);
unicode = 176;
}
{
glyphname = plusminus;
layers = (
{
background = {
shapes = (
{
closed = 1;
nodes = (
(170,318,l),
(940,318,l),
(940,184,l),
(170,184,l)
);
},
{
closed = 1;
nodes = (
(160,798,l),
(475,798,l),
(475,1031,l),
(625,1031,l),
(625,798,l),
(940,798,l),
(940,664,l),
(625,664,l),
(625,421,l),
(475,421,l),
(475,664,l),
(160,664,l)
);
}
);
};
layerId = m001;
shapes = (
{
closed = 1;
nodes = (
(170,318,l),
(940,318,l),
(940,184,l),
(170,184,l)
);
},
{
closed = 1;
nodes = (
(160,798,l),
(475,798,l),
(475,1031,l),
(625,1031,l),
(625,798,l),
(940,798,l),
(940,664,l),
(625,664,l),
(625,421,l),
(475,421,l),
(475,664,l),
(160,664,l)
);
}
);
userData = {
com.fontlab.hintData = {
hhints = (
{
position = 184;
width = 134;
},
{
position = 664;
width = 134;
}
);
vhints = (
{
position = 475;
width = 150;
}
);
};
};
width = 1100;
}
);
unicode = 177;
}
{
glyphname = acute;
layers = (
{
anchors = (
{
name = _Top;
pos = (213,1082);
}
);
layerId = m001;
shapes = (
{
closed = 1;
nodes = (
(278,1222,l),
(120,1222,l),
(274,1496,l),
(443,1496,l)
);
}
);
userData = {
com.fontlab.hintData = {
hhints = (
{
position = 1222;
width = 274;
}
);
vhints = (
{
position = 120;
width = 323;
}
);
};
};
width = 563;
}
);
unicode = 180;
}
{
glyphname = micro;
layers = (
{
anchors = (
{
name = Apos;
pos = (30,0);
},
{
name = Bottom;
pos = (522,0);
},
{
name = Center;
},
{
name = DoubleTop;
pos = (30,0);
},
{
name = Top;
pos = (522,975);
}
);
layerId = m001;
shapes = (
{
closed = 1;
nodes = (
(310,1082,l),
(310,496,ls),
(310,360,o),
(310,278,o),
(361,208,cs),
(400,154,o),
(468,118,o),
(555,118,cs),
(643,118,o),
(713,153,o),
(752,208,cs),
(800,276,o),
(800,360,o),
(800,496,cs),
(800,1082,l),
(950,1082,l),
(950,496,ls),
(950,351,o),
(950,238,o),
(881,134,cs),
(822,45,o),
(713,-16,o),
(575,-16,cs),
(468,-16,o),
(378,29,o),
(310,112,c),
(310,-414,l),
(160,-414,l),
(160,1082,l)
);
}
);
userData = {
com.fontlab.hintData = {
hhints = (
{
position = -16;
width = 134;
},
{
position = 1062;
width = 20;
}
);
vhints = (
{
position = 160;
width = 150;
},
{
position = 800;
width = 150;
}
);
};
};
width = 1070;
}
);
unicode = 181;
}
{
glyphname = paragraph;
layers = (
{
background = {
shapes = (
{
closed = 1;
nodes = (
(594,1276,l),
(594,0,l),
(438,0,l),
(438,536,l),
(358,555,o),
(280,593,o),
(215,668,cs),
(142,754,o),
(110,862,o),
(110,966,cs),
(110,1070,o),
(141,1179,o),
(215,1264,cs),
(347,1416,o),
(533,1416,o),
(678,1416,cs),
(956,1416,l),
(956,0,l),
(800,0,l),
(800,1276,l)
);
}
);
};
layerId = m001;
shapes = (
{
closed = 1;
nodes = (
(594,1276,l),
(594,0,l),
(438,0,l),
(438,536,l),
(358,555,o),
(280,593,o),
(215,668,cs),
(142,754,o),
(110,862,o),
(110,966,cs),
(110,1070,o),
(141,1179,o),
(215,1264,cs),
(347,1416,o),
(533,1416,o),
(678,1416,cs),
(956,1416,l),
(956,0,l),
(800,0,l),
(800,1276,l)
);
}
);
userData = {
com.fontlab.hintData = {
hhints = (
{
position = 0;
width = 21;
},
{
position = 1276;
width = 140;
}
);
vhints = (
{
position = 110;
width = 484;
},
{
position = 438;
width = 156;
},
{
position = 800;
width = 156;
}
);
};
};
width = 1136;
}
);
unicode = 182;
}
{
glyphname = periodcentered;
layers = (
{
anchors = (
{
name = _center;
pos = (-45,541);
}
);
background = {
anchors = (
{
name = _center;
pos = (-45,541);
}
);
shapes = (
{
pos = (20,447);
ref = period;
}
);
};
layerId = m001;
shapes = (
{
closed = 1;
nodes = (
(335,651,o),
(380,606,o),
(380,541,cs),
(380,476,o),
(335,431,o),
(270,431,cs),
(205,431,o),
(160,476,o),
(160,541,cs),
(160,606,o),
(205,651,o),
(270,651,cs)
);
}
);
userData = {
com.fontlab.hintData = {
hhints = (
{
position = 431;
width = 220;
}
);
vhints = (
{
position = 160;
width = 220;
}
);
};
};
width = 500;
}
);
unicode = 183;
}
{
glyphname = cedilla;
layers = (
{
anchors = (
{
name = _bottom;
pos = (290,0);
}
);
background = {
anchors = (
{
name = _bottom;
pos = (290,0);
}
);
shapes = (
{
closed = 1;
nodes = (
(240,-306,o),
(264,-269,o),
(264,-228,cs),
(264,-183,o),
(240,-156,o),
(189,-138,c),
(228,0,l),
(352,0,l),
(324,-97,l),
(364,-117,o),
(404,-160,o),
(404,-229,cs),
(404,-350,o),
(317,-430,o),
(198,-430,cs),
(165,-430,o),
(135,-423,o),
(109,-416,c),
(147,-297,l),
(165,-304,o),
(181,-306,o),
(194,-306,cs)
);
}
);
};
layerId = m001;
shapes = (
{
closed = 1;
nodes = (
(240,-306,o),
(264,-269,o),
(264,-228,cs),
(264,-183,o),
(240,-156,o),
(189,-138,c),
(228,0,l),
(352,0,l),
(324,-97,l),
(364,-117,o),
(404,-160,o),
(404,-229,cs),
(404,-350,o),
(317,-430,o),
(198,-430,cs),
(165,-430,o),
(135,-423,o),
(109,-416,c),
(147,-297,l),
(165,-304,o),
(181,-306,o),
(194,-306,cs)
);
}
);
userData = {
com.fontlab.hintData = {
hhints = (
{
position = -430;
width = 124;
},
{
position = -20;
width = 20;
}
);
vhints = (
{
position = 264;
width = 140;
}
);
};
};
width = 587;
}
);
unicode = 184;
}
{
glyphname = ordmasculine;
layers = (
{
layerId = m001;
shapes = (
{
closed = 1;
nodes = (
(361,1314,o),
(318,1292,o),
(291,1254,cs),
(253,1201,o),
(252,1128,o),
(252,1043,cs),
(252,958,o),
(253,885,o),
(291,832,cs),
(318,794,o),
(361,772,o),
(422,772,cs),
(483,772,o),
(526,794,o),
(553,832,cs),
(591,885,o),
(592,958,o),
(592,1043,cs),
(592,1128,o),
(591,1201,o),
(553,1254,cs),
(526,1292,o),
(483,1314,o),
(422,1314,cs)
);
},
{
closed = 1;
nodes = (
(513,1432,o),
(589,1399,o),
(639,1348,cs),
(713,1272,o),
(724,1176,o),
(724,1043,cs),
(724,910,o),
(713,814,o),
(639,738,cs),
(589,687,o),
(513,654,o),
(422,654,cs),
(331,654,o),
(255,687,o),
(205,738,cs),
(131,814,o),
(120,910,o),
(120,1043,cs),
(120,1176,o),
(131,1272,o),
(205,1348,cs),
(255,1399,o),
(331,1432,o),
(422,1432,cs)
);
}
);
userData = {
com.fontlab.hintData = {
hhints = (
{
position = 654;
width = 118;
},
{
position = 1314;
width = 118;
}
);
vhints = (
{
position = 120;
width = 132;
},
{
position = 592;
width = 132;
}
);
};
};
width = 844;
}
);
unicode = 186;
}
{
glyphname = questiondown;
layers = (
{
background = {
shapes = (
{
closed = 1;
nodes = (
(390,798,o),
(345,843,o),
(345,908,cs),
(345,973,o),
(390,1018,o),
(455,1018,cs),
(520,1018,o),
(565,973,o),
(565,908,cs),
(565,843,o),
(520,798,o),
(455,798,cs)
);
},
{
closed = 1;
nodes = (
(796,-291,l),
(714,-369,o),
(598,-430,o),
(455,-430,cs),
(223,-430,o),
(60,-267,o),
(60,-50,cs),
(60,32,o),
(87,107,o),
(134,171,cs),
(192,250,o),
(307,304,o),
(346,372,cs),
(379,429,o),
(389,473,o),
(389,555,c),
(390,615,l),
(520,615,l),
(520,615,o),
(521,580,o),
(521,556,cs),
(521,454,o),
(513,380,o),
(455,297,cs),
(412,234,o),
(343,188,o),
(290,139,cs),
(240,93,o),
(210,28,o),
(210,-49,cs),
(210,-191,o),
(303,-296,o),
(455,-296,cs),
(561,-296,o),
(641,-246,o),
(698,-191,c)
);
}
);
};
layerId = m001;
shapes = (
{
closed = 1;
nodes = (
(390,798,o),
(345,843,o),
(345,908,cs),
(345,973,o),
(390,1018,o),
(455,1018,cs),
(520,1018,o),
(565,973,o),
(565,908,cs),
(565,843,o),
(520,798,o),
(455,798,cs)
);
},
{
closed = 1;
nodes = (
(796,-291,l),
(714,-369,o),
(598,-430,o),
(455,-430,cs),
(223,-430,o),
(60,-267,o),
(60,-50,cs),
(60,32,o),
(87,107,o),
(134,171,cs),
(192,250,o),
(307,304,o),
(346,372,cs),
(379,429,o),
(389,473,o),
(389,555,c),
(390,615,l),
(520,615,l),
(520,615,o),
(521,580,o),
(521,556,cs),
(521,454,o),
(513,380,o),
(455,297,cs),
(412,234,o),
(343,188,o),
(290,139,cs),
(240,93,o),
(210,28,o),
(210,-49,cs),
(210,-191,o),
(303,-296,o),
(455,-296,cs),
(561,-296,o),
(641,-246,o),
(698,-191,c)
);
}
);
userData = {
com.fontlab.hintData = {
hhints = (
{
position = -430;
width = 134;
},
{
position = 798;
width = 220;
}
);
vhints = (
{
position = 60;
width = 150;
},
{
position = 345;
width = 220;
},
{
position = 389;
width = 132;
}
);
};
};
width = 726;
}
);
unicode = 191;
}
{
color = 2;
glyphname = Agrave;
layers = (
{
layerId = m001;
shapes = (
{
closed = 1;
nodes = (
(550,1830,l),
(704,1556,l),
(546,1556,l),
(381,1830,l)
);
},
{
ref = A;
}
);
userData = {
com.fontlab.hintData = {
hhints = (
{
position = 0;
width = 21;
},
{
position = 342;
width = 140;
},
{
position = 1396;
width = 20;
}
);
};
};
width = 1190;
}
);
unicode = 192;
}
{
color = 2;
glyphname = Aacute;
layers = (
{
layerId = m001;
shapes = (
{
closed = 1;
nodes = (
(642,1556,l),
(484,1556,l),
(638,1830,l),
(807,1830,l)
);
},
{
ref = A;
}
);
userData = {
com.fontlab.hintData = {
hhints = (
{
position = 0;
width = 21;
},
{
position = 342;
width = 140;
},
{
position = 1396;
width = 20;
}
);
};
};
width = 1190;
}
);
unicode = 193;
}
{
glyphname = Aring;
layers = (
{
layerId = m001;
shapes = (
{
closed = 1;
nodes = (
(720,1716,o),
(804,1625,o),
(804,1513,cs),
(804,1436,o),
(764,1368,o),
(698,1334,c),
(1150,0,l),
(987,0,l),
(876,342,l),
(314,342,l),
(203,0,l),
(40,0,l),
(492,1334,l),
(426,1368,o),
(386,1436,o),
(386,1513,cs),
(386,1625,o),
(470,1716,o),
(595,1716,cs)
);
},
{
closed = 1;
nodes = (
(543,1610,o),
(504,1578,o),
(504,1513,cs),
(504,1448,o),
(543,1416,o),
(595,1416,cs),
(647,1416,o),
(686,1448,o),
(686,1513,cs),
(686,1578,o),
(647,1610,o),
(595,1610,cs)
);
},
{
closed = 1;
nodes = (
(595,1205,l),
(360,482,l),
(830,482,l)
);
}
);
userData = {
com.fontlab.hintData = {
hhints = (
{
position = 0;
width = 21;
},
{
position = 342;
width = 140;
},
{
position = 1610;
width = 106;
}
);
vhints = (
{
position = 386;
width = 118;
},
{
position = 686;
width = 118;
}
);
};
};
width = 1190;
}
);
unicode = 197;
}
{
glyphname = AE;
kernLeft = A;
layers = (
{
background = {
shapes = (
{
closed = 1;
nodes = (
(431,482,l),
(809,482,l),
(809,1269,l)
);
},
{
closed = 1;
nodes = (
(720,1416,l),
(1469,1416,l),
(1469,1276,l),
(965,1276,l),
(965,792,l),
(1399,792,l),
(1399,652,l),
(965,652,l),
(965,140,l),
(1469,140,l),
(1469,0,l),
(809,0,l),
(809,342,l),
(364,342,l),
(200,0,l),
(30,0,l)
);
}
);
};
layerId = m001;
shapes = (
{
closed = 1;
nodes = (
(431,482,l),
(809,482,l),
(809,1269,l)
);
},
{
closed = 1;
nodes = (
(720,1416,l),
(1469,1416,l),
(1469,1276,l),
(965,1276,l),
(965,792,l),
(1399,792,l),
(1399,652,l),
(965,652,l),
(965,140,l),
(1469,140,l),
(1469,0,l),
(809,0,l),
(809,342,l),
(364,342,l),
(200,0,l),
(30,0,l)
);
}
);
userData = {
com.fontlab.hintData = {
hhints = (
{
position = 0;
width = 140;
},
{
position = 342;
width = 140;
},
{
position = 652;
width = 140;
},
{
position = 1276;
width = 140;
}
);
vhints = (
{
position = 809;
width = 156;
}
);
};
};
width = 1609;
}
);
unicode = 198;
}
{
color = 4;
glyphname = Ccedilla;
layers = (
{
background = {
shapes = (
{
closed = 1;
nodes = (
(568,-306,o),
(592,-269,o),
(592,-228,cs),
(592,-183,o),
(568,-156,o),
(517,-138,c),
(551.631,-15.459,l),
(373.827,4.028,o),
(251.718,102.278,o),
(191,238,cs),
(133,367,o),
(130,543,o),
(130,708,cs),
(130,876,o),
(134,1053,o),
(191,1178,cs),
(262,1334,o),
(409,1435,o),
(618,1435,cs),
(772,1435,o),
(897,1381,o),
(992,1314,c),
(912,1194,l),
(832,1251,o),
(738,1295,o),
(618,1295,cs),
(473,1295,o),
(382,1230,o),
(336,1125,cs),
(289,1017,o),
(286,858,o),
(286,708,cs),
(286,558,o),
(289,399,o),
(336,291,cs),
(382,186,o),
(473,121,o),
(618,121,cs),
(748,121,o),
(862,172,o),
(942,240,c),
(1030,124,l),
(938.918,52.372,o),
(818.121,-4.398,o),
(675.215,-16.576,c),
(652,-97,l),
(692,-117,o),
(732,-160,o),
(732,-229,cs),
(732,-350,o),
(645,-430,o),
(526,-430,cs),
(493,-430,o),
(463,-423,o),
(437,-416,c),
(475,-297,l),
(493,-304,o),
(509,-306,o),
(522,-306,cs)
);
}
);
};
layerId = m001;
shapes = (
{
ref = C;
},
{
pos = (328,0);
ref = cedillacomb;
}
);
userData = {
com.fontlab.hintData = {
hhints = (
{
position = -430;
width = 124;
},
{
position = -20;
width = 20;
},
{
position = -19;
width = 140;
},
{
position = 1295;
width = 140;
}
);
vhints = (
{
position = 130;
width = 156;
},
{
position = 592;
width = 140;
}
);
};
};
width = 1114;
}
);
unicode = 199;
}
{
color = 4;
glyphname = Egrave;
kernRight = E;
layers = (
{
background = {
shapes = (
{
closed = 1;
nodes = (
(532,1830,l),
(686,1556,l),
(528,1556,l),
(363,1830,l)
);
},
{
ref = E;
}
);
};
layerId = m001;
shapes = (
{
ref = E;
},
{
pos = (243,334);
ref = gravecomb;
}
);
userData = {
com.fontlab.hintData = {
hhints = (
{
position = 0;
width = 140;
},
{
position = 652;
width = 140;
},
{
position = 1276;
width = 140;
}
);
vhints = (
{
position = 180;
width = 156;
}
);
};
};
width = 1100;
}
);
unicode = 200;
}
{
color = 2;
glyphname = Eacute;
layers = (
{
layerId = m001;
shapes = (
{
closed = 1;
nodes = (
(624,1556,l),
(466,1556,l),
(620,1830,l),
(789,1830,l)
);
},
{
ref = E;
}
);
userData = {
com.fontlab.hintData = {
hhints = (
{
position = 0;
width = 140;
},
{
position = 652;
width = 140;
},
{
position = 1276;
width = 140;
}
);
vhints = (
{
position = 180;
width = 156;
}
);
};
};
width = 1100;
}
);
unicode = 201;
}
{
color = 2;
glyphname = Igrave;
layers = (
{
layerId = m001;
shapes = (
{
closed = 1;
nodes = (
(213,1830,l),
(367,1556,l),
(209,1556,l),
(44,1830,l)
);
},
{
ref = I;
}
);
userData = {
com.fontlab.hintData = {
hhints = (
{
position = 0;
width = 21;
},
{
position = 1396;
width = 20;
}
);
vhints = (
{
position = 44;
width = 323;
},
{
position = 180;
width = 156;
}
);
};
};
width = 516;
}
);
unicode = 204;
}
{
color = 4;
glyphname = Iacute;
layers = (
{
background = {
shapes = (
{
closed = 1;
nodes = (
(305,1556,l),
(147,1556,l),
(301,1830,l),
(470,1830,l)
);
},
{
ref = I;
}
);
};
layerId = m001;
shapes = (
{
ref = I;
},
{
pos = (27,334);
ref = acutecomb;
}
);
userData = {
com.fontlab.hintData = {
hhints = (
{
position = 0;
width = 21;
},
{
position = 1396;
width = 20;
}
);
vhints = (
{
position = 147;
width = 323;
},
{
position = 180;
width = 156;
}
);
};
};
width = 516;
}
);
unicode = 205;
}
{
glyphname = Eth;
layers = (
{
background = {
shapes = (
{
closed = 1;
nodes = (
(80,792,l),
(240,792,l),
(240,1416,l),
(599,1416,ls),
(676,1416,o),
(749,1416,o),
(828,1393,cs),
(958,1355,o),
(1043,1258,o),
(1088,1156,cs),
(1147,1022,o),
(1147,853,o),
(1147,708,cs),
(1147,563,o),
(1147,394,o),
(1088,260,cs),
(1043,158,o),
(958,61,o),
(828,23,cs),
(749,0,o),
(676,0,o),
(599,0,cs),
(240,0,l),
(240,652,l),
(80,652,l)
);
},
{
closed = 1;
nodes = (
(636,792,l),
(636,652,l),
(396,652,l),
(396,140,l),
(599,140,ls),
(673,140,o),
(764,140,o),
(824,175,cs),
(991,271,o),
(991,497,o),
(991,708,cs),
(991,919,o),
(991,1145,o),
(824,1241,cs),
(764,1276,o),
(673,1276,o),
(599,1276,cs),
(396,1276,l),
(396,792,l)
);
}
);
};
layerId = m001;
shapes = (
{
closed = 1;
nodes = (
(80,792,l),
(240,792,l),
(240,1416,l),
(599,1416,ls),
(676,1416,o),
(749,1416,o),
(828,1393,cs),
(958,1355,o),
(1043,1258,o),
(1088,1156,cs),
(1147,1022,o),
(1147,853,o),
(1147,708,cs),
(1147,563,o),
(1147,394,o),
(1088,260,cs),
(1043,158,o),
(958,61,o),
(828,23,cs),
(749,0,o),
(676,0,o),
(599,0,cs),
(240,0,l),
(240,652,l),
(80,652,l)
);
},
{
closed = 1;
nodes = (
(636,792,l),
(636,652,l),
(396,652,l),
(396,140,l),
(599,140,ls),
(673,140,o),
(764,140,o),
(824,175,cs),
(991,271,o),
(991,497,o),
(991,708,cs),
(991,919,o),
(991,1145,o),
(824,1241,cs),
(764,1276,o),
(673,1276,o),
(599,1276,cs),
(396,1276,l),
(396,792,l)
);
}
);
userData = {
com.fontlab.hintData = {
hhints = (
{
position = 0;
width = 140;
},
{
position = 652;
width = 140;
},
{
position = 1276;
width = 140;
}
);
vhints = (
{
position = 240;
width = 156;
},
{
position = 991;
width = 156;
}
);
};
};
width = 1277;
}
);
unicode = 208;
}
{
glyphname = multiply;
layers = (
{
background = {
shapes = (
{
closed = 1;
nodes = (
(767,186,l),
(505,448,l),
(243,186,l),
(150,279,l),
(412,541,l),
(150,803,l),
(243,896,l),
(505,634,l),
(767,896,l),
(860,803,l),
(598,541,l),
(860,279,l)
);
}
);
};
layerId = m001;
shapes = (
{
closed = 1;
nodes = (
(767,186,l),
(505,448,l),
(243,186,l),
(150,279,l),
(412,541,l),
(150,803,l),
(243,896,l),
(505,634,l),
(767,896,l),
(860,803,l),
(598,541,l),
(860,279,l)
);
}
);
width = 1010;
}
);
unicode = 215;
}
{
glyphname = Oslash;
layers = (
{
layerId = m001;
shapes = (
{
closed = 1;
nodes = (
(142,-4,l),
(241,160,l),
(131,309,o),
(130,528,o),
(130,708,cs),
(130,856,o),
(130,1038,o),
(196,1180,cs),
(265,1329,o),
(412,1435,o),
(628,1435,cs),
(760,1435,o),
(867,1395,o),
(945,1330,c),
(1030,1472,l),
(1116,1420,l),
(1016,1254,l),
(1126,1103,o),
(1126,891,o),
(1126,708,cs),
(1126,560,o),
(1126,378,o),
(1060,236,cs),
(991,87,o),
(844,-19,o),
(628,-19,cs),
(497,-19,o),
(390,20,o),
(312,84,c),
(228,-56,l)
);
},
{
closed = 1;
nodes = (
(483,1295,o),
(387,1229,o),
(340,1127,cs),
(287,1012,o),
(286,850,o),
(286,708,cs),
(286,575,o),
(287,423,o),
(331,310,c),
(867,1201,l),
(813,1260,o),
(734,1295,o),
(628,1295,cs)
);
},
{
closed = 1;
nodes = (
(390,213,l),
(444,155,o),
(523,121,o),
(628,121,cs),
(773,121,o),
(869,187,o),
(916,289,cs),
(969,404,o),
(970,566,o),
(970,708,cs),
(970,841,o),
(969,991,o),
(926,1104,c)
);
}
);
userData = {
com.fontlab.hintData = {
hhints = (
{
position = -19;
width = 140;
},
{
position = 1295;
width = 140;
}
);
vhints = (
{
position = 130;
width = 156;
},
{
position = 970;
width = 156;
}
);
};
};
width = 1256;
}
);
unicode = 216;
}
{
color = 4;
glyphname = Ugrave;
kernLeft = U;
kernRight = U;
layers = (
{
background = {
shapes = (
{
closed = 1;
nodes = (
(573,1830,l),
(727,1556,l),
(569,1556,l),
(404,1830,l)
);
},
{
ref = U;
}
);
};
layerId = m001;
shapes = (
{
ref = U;
},
{
pos = (284,334);
ref = gravecomb;
}
);
userData = {
com.fontlab.hintData = {
hhints = (
{
position = -19;
width = 140;
},
{
position = 1396;
width = 20;
}
);
vhints = (
{
position = 160;
width = 156;
},
{
position = 920;
width = 156;
}
);
};
};
width = 1236;
}
);
unicode = 217;
}
{
color = 2;
glyphname = Uacute;
layers = (
{
layerId = m001;
shapes = (
{
closed = 1;
nodes = (
(665,1556,l),
(507,1556,l),
(661,1830,l),
(830,1830,l)
);
},
{
ref = U;
}
);
userData = {
com.fontlab.hintData = {
hhints = (
{
position = -19;
width = 140;
},
{
position = 1396;
width = 20;
}
);
vhints = (
{
position = 160;
width = 156;
},
{
position = 920;
width = 156;
}
);
};
};
width = 1236;
}
);
unicode = 218;
}
{
glyphname = Thorn;
layers = (
{
background = {
shapes = (
{
closed = 1;
nodes = (
(336,1416,l),
(336,1206,l),
(482,1206,ls),
(565,1206,o),
(627,1206,o),
(695,1190,cs),
(907,1140,o),
(1026,959,o),
(1026,756,cs),
(1026,553,o),
(907,372,o),
(695,322,cs),
(627,306,o),
(565,306,o),
(482,306,cs),
(336,306,l),
(336,0,l),
(180,0,l),
(180,1416,l)
);
},
{
closed = 1;
nodes = (
(336,446,l),
(482,446,ls),
(568,446,o),
(629,446,o),
(687,467,cs),
(814,513,o),
(870,638,o),
(870,756,cs),
(870,874,o),
(814,999,o),
(687,1045,cs),
(629,1066,o),
(568,1066,o),
(482,1066,cs),
(336,1066,l)
);
}
);
};
layerId = m001;
shapes = (
{
closed = 1;
nodes = (
(336,1416,l),
(336,1206,l),
(482,1206,ls),
(565,1206,o),
(627,1206,o),
(695,1190,cs),
(907,1140,o),
(1026,959,o),
(1026,756,cs),
(1026,553,o),
(907,372,o),
(695,322,cs),
(627,306,o),
(565,306,o),
(482,306,cs),
(336,306,l),
(336,0,l),
(180,0,l),
(180,1416,l)
);
},
{
closed = 1;
nodes = (
(336,446,l),
(482,446,ls),
(568,446,o),
(629,446,o),
(687,467,cs),
(814,513,o),
(870,638,o),
(870,756,cs),
(870,874,o),
(814,999,o),
(687,1045,cs),
(629,1066,o),
(568,1066,o),
(482,1066,cs),
(336,1066,l)
);
}
);
userData = {
com.fontlab.hintData = {
hhints = (
{
position = 0;
width = 21;
},
{
position = 306;
width = 140;
},
{
position = 1066;
width = 140;
},
{
position = 1396;
width = 20;
}
);
vhints = (
{
position = 180;
width = 156;
},
{
position = 870;
width = 156;
}
);
};
};
width = 1146;
}
);
unicode = 222;
}
{
glyphname = germandbls;
layers = (
{
layerId = m001;
shapes = (
{
closed = 1;
nodes = (
(724,1462,o),
(870,1312,o),
(870,1115,cs),
(870,1010,o),
(833,925,o),
(764,868,c),
(942,798,o),
(1010,655,o),
(1010,442,cs),
(1010,317,o),
(985,216,o),
(926,136,cs),
(860,46,o),
(744,-16,o),
(595,-16,cs),
(549,-16,o),
(509,-11,o),
(469,-4,c),
(491,128,l),
(523,122,o),
(559,118,o),
(595,118,cs),
(691,118,o),
(757,152,o),
(800,210,cs),
(841,266,o),
(860,348,o),
(860,442,cs),
(860,553,o),
(839,646,o),
(779,703,cs),
(704,774,o),
(624,774,o),
(490,774,c),
(490,908,l),
(552,908,o),
(604,908,o),
(657,954,cs),
(694,986,o),
(720,1045,o),
(720,1115,cs),
(720,1241,o),
(638,1328,o),
(515,1328,c),
(448,1328,o),
(394,1300,o),
(359,1260,cs),
(310,1204,o),
(310,1132,o),
(310,1042,cs),
(310,0,l),
(160,0,l),
(160,1042,ls),
(160,1151,o),
(161,1247,o),
(240,1341,cs),
(299,1411,o),
(397,1462,o),
(515,1462,c)
);
}
);
userData = {
com.fontlab.hintData = {
hhints = (
{
position = -16;
width = 134;
},
{
position = 0;
width = 21;
},
{
position = 774;
width = 134;
},
{
position = 1328;
width = 134;
}
);
vhints = (
{
position = 160;
width = 150;
},
{
position = 720;
width = 150;
},
{
position = 860;
width = 150;
}
);
};
};
width = 1130;
}
);
unicode = 223;
}
{
glyphname = ae;
layers = (
{
layerId = m001;
shapes = (
{
closed = 1;
nodes = (
(250,255,o),
(276,199,o),
(313,167,cs),
(349,135,o),
(401,118,o),
(455,118,cs),
(540,118,o),
(609,153,o),
(646,207,cs),
(701,286,o),
(706,358,o),
(706,527,c),
(525,527,ls),
(430,527,o),
(369,524,o),
(314,477,cs),
(277,445,o),
(250,388,o),
(250,321,cs)
);
},
{
closed = 1;
nodes = (
(706,766,o),
(700,813,o),
(666,868,cs),
(628,931,o),
(557,964,o),
(475,964,cs),
(379,964,o),
(292,924,o),
(224,892,c),
(165,1015,l),
(247,1057,o),
(366,1098,o),
(475,1098,cs),
(619,1098,o),
(733,1036,o),
(786,929,c),
(841,1029,o),
(952,1098,o),
(1093,1098,cs),
(1244,1098,o),
(1363,1018,o),
(1423,920,cs),
(1481,825,o),
(1490,727,o),
(1490,579,cs),
(1490,509,l),
(850,509,l),
(850,394,o),
(854,296,o),
(902,221,cs),
(942,157,o),
(1014,118,o),
(1115,118,cs),
(1222,118,o),
(1325,159,o),
(1392,191,c),
(1451,68,l),
(1366,28,o),
(1246,-16,o),
(1115,-16,cs),
(959,-16,o),
(844,49,o),
(779,159,c),
(716,49,o),
(601,-16,o),
(455,-16,cs),
(368,-16,o),
(276,11,o),
(207,73,cs),
(145,129,o),
(100,213,o),
(100,321,cs),
(100,423,o),
(143,508,o),
(205,562,cs),
(306,651,o),
(432,651,o),
(525,651,cs),
(706,651,l)
);
},
{
closed = 1;
nodes = (
(1340,633,l),
(1340,719,o),
(1325,808,o),
(1286,864,cs),
(1245,923,o),
(1181,964,o),
(1093,964,cs),
(1003,964,o),
(939,918,o),
(903,863,cs),
(864,804,o),
(852,721,o),
(851,633,c)
);
}
);
userData = {
com.fontlab.hintData = {
hhints = (
{
position = -16;
width = 134;
},
{
position = 509;
width = 124;
},
{
position = 527;
width = 124;
},
{
position = 964;
width = 134;
}
);
vhints = (
{
position = 100;
width = 150;
},
{
position = 706;
width = 144;
},
{
position = 1340;
width = 150;
}
);
};
};
width = 1610;
}
);
unicode = 230;
}
{
color = 2;
glyphname = egrave;
layers = (
{
layerId = m001;
shapes = (
{
closed = 1;
nodes = (
(485,1496,l),
(639,1222,l),
(481,1222,l),
(316,1496,l)
);
},
{
ref = e;
}
);
userData = {
com.fontlab.hintData = {
hhints = (
{
position = -16;
width = 134;
},
{
position = 509;
width = 124;
},
{
position = 964;
width = 134;
}
);
vhints = (
{
position = 125;
width = 150;
},
{
position = 785;
width = 150;
}
);
};
};
width = 1055;
}
);
unicode = 232;
}
{
color = 4;
glyphname = eacute;
kernLeft = o;
kernRight = e;
layers = (
{
background = {
shapes = (
{
closed = 1;
nodes = (
(577,1222,l),
(419,1222,l),
(573,1496,l),
(742,1496,l)
);
},
{
ref = e;
}
);
};
layerId = m001;
shapes = (
{
ref = e;
},
{
pos = (299,0);
ref = acutecomb;
}
);
userData = {
com.fontlab.hintData = {
hhints = (
{
position = -16;
width = 134;
},
{
position = 509;
width = 124;
},
{
position = 964;
width = 134;
}
);
vhints = (
{
position = 125;
width = 150;
},
{
position = 785;
width = 150;
}
);
};
};
width = 1055;
}
);
unicode = 233;
}
{
color = 4;
glyphname = igrave;
layers = (
{
background = {
shapes = (
{
closed = 1;
nodes = (
(190,1496,l),
(344,1222,l),
(186,1222,l),
(21,1496,l)
);
},
{
ref = idotless;
}
);
};
layerId = m001;
shapes = (
{
ref = idotless;
},
{
pos = (-99,0);
ref = gravecomb;
}
);
userData = {
com.fontlab.hintData = {
hhints = (
{
position = 0;
width = 21;
},
{
position = 1062;
width = 20;
}
);
vhints = (
{
position = 21;
width = 323;
},
{
position = 160;
width = 150;
}
);
};
};
width = 470;
}
);
unicode = 236;
}
{
color = 2;
glyphname = iacute;
layers = (
{
layerId = m001;
shapes = (
{
closed = 1;
nodes = (
(282,1222,l),
(124,1222,l),
(278,1496,l),
(447,1496,l)
);
},
{
ref = idotless;
}
);
userData = {
com.fontlab.hintData = {
hhints = (
{
position = 0;
width = 21;
},
{
position = 1062;
width = 20;
}
);
vhints = (
{
position = 124;
width = 323;
},
{
position = 160;
width = 150;
}
);
};
};
width = 470;
}
);
unicode = 237;
}
{
glyphname = eth;
layers = (
{
background = {
shapes = (
{
closed = 1;
nodes = (
(461,964,o),
(392,932,o),
(351,885,cs),
(275,798,o),
(275,669,o),
(275,541,cs),
(275,413,o),
(275,284,o),
(351,197,cs),
(392,150,o),
(461,118,o),
(550,118,cs),
(639,118,o),
(710,149,o),
(751,197,cs),
(825,284,o),
(825,413,o),
(825,541,cs),
(825,669,o),
(825,798,o),
(749,885,cs),
(708,932,o),
(639,964,o),
(550,964,cs)
);
},
{
closed = 1;
nodes = (
(414,1298,l),
(574,1378,l),
(513,1425,o),
(445,1459,o),
(371,1492,c),
(416,1600,l),
(510,1557,o),
(608,1515,o),
(697,1439,c),
(891,1536,l),
(931,1456,l),
(764,1373,l),
(824,1305,o),
(871,1225,o),
(903,1140,cs),
(975,948,o),
(975,738,o),
(975,541,cs),
(975,394,o),
(973,236,o),
(868,110,cs),
(808,37,o),
(706,-16,o),
(570,-16,cs),
(404,-16,o),
(304,33,o),
(235,110,cs),
(125,233,o),
(125,394,o),
(125,541,cs),
(125,698,o),
(129,846,o),
(231,972,cs),
(291,1046,o),
(394,1098,o),
(520,1098,cs),
(631,1098,o),
(728,1063,o),
(805,977,c),
(780,1105,o),
(731,1220,o),
(645,1313,c),
(454,1218,l)
);
}
);
};
layerId = m001;
shapes = (
{
closed = 1;
nodes = (
(461,964,o),
(392,932,o),
(351,885,cs),
(275,798,o),
(275,669,o),
(275,541,cs),
(275,413,o),
(275,284,o),
(351,197,cs),
(392,150,o),
(461,118,o),
(550,118,cs),
(639,118,o),
(710,149,o),
(751,197,cs),
(825,284,o),
(825,413,o),
(825,541,cs),
(825,669,o),
(825,798,o),
(749,885,cs),
(708,932,o),
(639,964,o),
(550,964,cs)
);
},
{
closed = 1;
nodes = (
(414,1298,l),
(574,1378,l),
(513,1425,o),
(445,1459,o),
(371,1492,c),
(416,1600,l),
(510,1557,o),
(608,1515,o),
(697,1439,c),
(891,1536,l),
(931,1456,l),
(764,1373,l),
(824,1305,o),
(871,1225,o),
(903,1140,cs),
(975,948,o),
(975,738,o),
(975,541,cs),
(975,394,o),
(973,236,o),
(868,110,cs),
(808,37,o),
(706,-16,o),
(570,-16,cs),
(404,-16,o),
(304,33,o),
(235,110,cs),
(125,233,o),
(125,394,o),
(125,541,cs),
(125,698,o),
(129,846,o),
(231,972,cs),
(291,1046,o),
(394,1098,o),
(520,1098,cs),
(631,1098,o),
(728,1063,o),
(805,977,c),
(780,1105,o),
(731,1220,o),
(645,1313,c),
(454,1218,l)
);
}
);
userData = {
com.fontlab.hintData = {
hhints = (
{
position = -16;
width = 134;
},
{
position = 964;
width = 134;
}
);
vhints = (
{
position = 125;
width = 150;
},
{
position = 825;
width = 150;
}
);
};
};
width = 1115;
}
);
unicode = 240;
}
{
color = 2;
glyphname = ograve;
layers = (
{
layerId = m001;
shapes = (
{
closed = 1;
nodes = (
(505,1496,l),
(659,1222,l),
(501,1222,l),
(336,1496,l)
);
},
{
ref = o;
}
);
userData = {
com.fontlab.hintData = {
hhints = (
{
position = -16;
width = 134;
},
{
position = 964;
width = 134;
}
);
vhints = (
{
position = 125;
width = 150;
},
{
position = 825;
width = 150;
}
);
};
};
width = 1100;
}
);
unicode = 242;
}
{
color = 2;
glyphname = oacute;
layers = (
{
layerId = m001;
shapes = (
{
closed = 1;
nodes = (
(597,1222,l),
(439,1222,l),
(593,1496,l),
(762,1496,l)
);
},
{
ref = o;
}
);
userData = {
com.fontlab.hintData = {
hhints = (
{
position = -16;
width = 134;
},
{
position = 964;
width = 134;
}
);
vhints = (
{
position = 125;
width = 150;
},
{
position = 825;
width = 150;
}
);
};
};
width = 1100;
}
);
unicode = 243;
}
{
glyphname = divide;
layers = (
{
layerId = m001;
shapes = (
{
closed = 1;
nodes = (
(625,324,o),
(664,285,o),
(664,230,cs),
(664,175,o),
(625,136,o),
(570,136,cs),
(515,136,o),
(476,175,o),
(476,230,cs),
(476,285,o),
(515,324,o),
(570,324,cs)
);
},
{
closed = 1;
nodes = (
(980,608,l),
(980,474,l),
(160,474,l),
(160,608,l)
);
},
{
closed = 1;
nodes = (
(625,946,o),
(664,907,o),
(664,852,cs),
(664,797,o),
(625,758,o),
(570,758,cs),
(515,758,o),
(476,797,o),
(476,852,cs),
(476,907,o),
(515,946,o),
(570,946,cs)
);
}
);
userData = {
com.fontlab.hintData = {
hhints = (
{
position = 136;
width = 188;
},
{
position = 474;
width = 134;
},
{
position = 758;
width = 188;
}
);
vhints = (
{
position = 476;
width = 188;
}
);
};
};
width = 1140;
}
);
unicode = 247;
}
{
glyphname = oslash;
layers = (
{
anchors = (
{
name = top;
pos = (555,1082);
}
);
background = {
anchors = (
{
name = top;
pos = (555,1082);
}
);
shapes = (
{
closed = 1;
nodes = (
(461,964,o),
(392,932,o),
(351,885,cs),
(275,798,o),
(275,669,o),
(275,541,cs),
(275,438,o),
(275,333,o),
(315,252,c),
(727,907,l),
(685,942,o),
(624,964,o),
(550,964,cs)
);
},
{
closed = 1;
nodes = (
(953,1098,l),
(869,965,l),
(975,842,o),
(975,685,o),
(975,541,cs),
(975,394,o),
(975,234,o),
(863,110,cs),
(797,37,o),
(687,-16,o),
(550,-16,cs),
(449,-16,o),
(364,13,o),
(299,57,c),
(223,-64,l),
(147,-16,l),
(231,117,l),
(125,240,o),
(125,397,o),
(125,541,cs),
(125,688,o),
(125,848,o),
(237,972,cs),
(303,1045,o),
(413,1098,o),
(550,1098,cs),
(651,1098,o),
(736,1069,o),
(801,1025,c),
(877,1146,l)
);
},
{
closed = 1;
nodes = (
(415,140,o),
(476,118,o),
(550,118,cs),
(639,118,o),
(708,150,o),
(749,197,cs),
(825,284,o),
(825,413,o),
(825,541,cs),
(825,644,o),
(825,748,o),
(785,830,c),
(373,175,l)
);
}
);
};
layerId = m001;
shapes = (
{
closed = 1;
nodes = (
(461,964,o),
(392,932,o),
(351,885,cs),
(275,798,o),
(275,669,o),
(275,541,cs),
(275,438,o),
(275,333,o),
(315,252,c),
(727,907,l),
(685,942,o),
(624,964,o),
(550,964,cs)
);
},
{
closed = 1;
nodes = (
(953,1098,l),
(869,965,l),
(975,842,o),
(975,685,o),
(975,541,cs),
(975,394,o),
(975,234,o),
(863,110,cs),
(797,37,o),
(687,-16,o),
(550,-16,cs),
(449,-16,o),
(364,13,o),
(299,57,c),
(223,-64,l),
(147,-16,l),
(231,117,l),
(125,240,o),
(125,397,o),
(125,541,cs),
(125,688,o),
(125,848,o),
(237,972,cs),
(303,1045,o),
(413,1098,o),
(550,1098,cs),
(651,1098,o),
(736,1069,o),
(801,1025,c),
(877,1146,l)
);
},
{
closed = 1;
nodes = (
(415,140,o),
(476,118,o),
(550,118,cs),
(639,118,o),
(708,150,o),
(749,197,cs),
(825,284,o),
(825,413,o),
(825,541,cs),
(825,644,o),
(825,748,o),
(785,830,c),
(373,175,l)
);
}
);
userData = {
com.fontlab.hintData = {
hhints = (
{
position = -16;
width = 134;
},
{
position = 964;
width = 134;
}
);
vhints = (
{
position = 125;
width = 150;
},
{
position = 825;
width = 150;
}
);
};
};
width = 1100;
}
);
unicode = 248;
}
{
color = 4;
glyphname = ugrave;
layers = (
{
background = {
shapes = (
{
closed = 1;
nodes = (
(500,1496,l),
(654,1222,l),
(496,1222,l),
(331,1496,l)
);
},
{
ref = u;
}
);
};
layerId = m001;
shapes = (
{
ref = u;
},
{
pos = (211,0);
ref = gravecomb;
}
);
userData = {
com.fontlab.hintData = {
hhints = (
{
position = -16;
width = 134;
},
{
position = 1062;
width = 20;
}
);
vhints = (
{
position = 150;
width = 150;
},
{
position = 790;
width = 150;
}
);
};
};
width = 1100;
}
);
unicode = 249;
}
{
color = 4;
glyphname = uacute;
layers = (
{
background = {
shapes = (
{
closed = 1;
nodes = (
(592,1222,l),
(434,1222,l),
(588,1496,l),
(757,1496,l)
);
},
{
ref = u;
}
);
};
layerId = m001;
shapes = (
{
ref = u;
},
{
pos = (314,0);
ref = acutecomb;
}
);
userData = {
com.fontlab.hintData = {
hhints = (
{
position = -16;
width = 134;
},
{
position = 1062;
width = 20;
}
);
vhints = (
{
position = 150;
width = 150;
},
{
position = 790;
width = 150;
}
);
};
};
width = 1100;
}
);
unicode = 250;
}
{
color = 2;
glyphname = Amacron;
layers = (
{
layerId = m001;
shapes = (
{
closed = 1;
nodes = (
(880,1720,l),
(880,1586,l),
(310,1586,l),
(310,1720,l)
);
},
{
ref = A;
}
);
userData = {
com.fontlab.hintData = {
hhints = (
{
position = 0;
width = 21;
},
{
position = 342;
width = 140;
},
{
position = 1396;
width = 20;
},
{
position = 1586;
width = 134;
}
);
};
};
width = 1190;
}
);
unicode = 256;
}
{
color = 4;
glyphname = Aogonek;
kernLeft = A;
kernRight = A;
layers = (
{
background = {
shapes = (
{
closed = 1;
nodes = (
(948,-267,o),
(978,-306,o),
(1029,-306,cs),
(1057,-306,o),
(1085,-293,o),
(1103,-281,c),
(1168,-391,l),
(1130,-413,o),
(1084,-430,o),
(1029,-430,cs),
(899,-430,o),
(824,-340,o),
(824,-237,cs),
(824,-126.925,o),
(899.679,-51.204,o),
(987.097,0,c),
(987,0,l),
(876,342,l),
(314,342,l),
(203,0,l),
(40,0,l),
(520,1416,l),
(670,1416,l),
(1150,0,l),
(1067,-30,o),
(948,-100,o),
(948,-216,cs)
);
},
{
closed = 1;
nodes = (
(595,1205,l),
(360,482,l),
(830,482,l)
);
}
);
};
layerId = m001;
shapes = (
{
ref = A;
},
{
pos = (704,0);
ref = ogonekcomb;
}
);
userData = {
com.fontlab.hintData = {
hhints = (
{
position = -430;
width = 124;
},
{
position = 0;
width = 21;
},
{
position = 342;
width = 140;
},
{
position = 1396;
width = 20;
}
);
vhints = (
{
position = 824;
width = 124;
}
);
};
};
width = 1190;
}
);
unicode = 260;
}
{
color = 4;
glyphname = aogonek;
layers = (
{
background = {
shapes = (
{
closed = 1;
nodes = (
(668,-267,o),
(698,-306,o),
(749,-306,cs),
(777,-306,o),
(805,-293,o),
(823,-281,c),
(888,-391,l),
(850,-413,o),
(804,-430,o),
(749,-430,cs),
(619,-430,o),
(544,-340,o),
(544,-237,cs),
(544,-121.541,o),
(627.262,-43.879,o),
(720,7.338,c),
(720,115,l),
(651,36,o),
(564,-16,o),
(445,-16,cs),
(244,-16,o),
(100,131,o),
(100,321,cs),
(100,427,o),
(146,509,o),
(209,563,cs),
(311,651,o),
(443,651,o),
(530,651,cs),
(720,651,l),
(720,703,ls),
(720,759,o),
(720,833,o),
(666,892,cs),
(626,936,o),
(566,964,o),
(485,964,cs),
(392,964,o),
(297,927,o),
(222,891,c),
(165,1015,l),
(255,1056,o),
(362,1098,o),
(485,1098,cs),
(618,1098,o),
(722,1048,o),
(787,974,cs),
(870,879,o),
(870,779,o),
(870,703,cs),
(870,0,l),
(787,-30,o),
(668,-100,o),
(668,-216,cs)
);
},
{
closed = 1;
nodes = (
(458,527,o),
(375,527,o),
(317,477,cs),
(280,445,o),
(250,392,o),
(250,321,cs),
(250,214,o),
(321,118,o),
(465,118,cs),
(553,118,o),
(624,154,o),
(664,207,cs),
(720,281,o),
(720,378,o),
(720,468,cs),
(720,527,l),
(530,527,ls)
);
}
);
};
layerId = m001;
shapes = (
{
ref = a;
},
{
pos = (424,0);
ref = ogonekcomb;
}
);
userData = {
com.fontlab.hintData = {
hhints = (
{
position = -430;
width = 124;
},
{
position = -16;
width = 134;
},
{
position = 0;
width = 21;
},
{
position = 527;
width = 124;
},
{
position = 964;
width = 134;
}
);
vhints = (
{
position = 100;
width = 150;
},
{
position = 544;
width = 124;
},
{
position = 720;
width = 150;
}
);
};
};
width = 1020;
}
);
unicode = 261;
}
{
color = 2;
glyphname = Cacute;
layers = (
{
layerId = m001;
shapes = (
{
closed = 1;
nodes = (
(665,1556,l),
(507,1556,l),
(661,1830,l),
(830,1830,l)
);
},
{
ref = C;
}
);
userData = {
com.fontlab.hintData = {
hhints = (
{
position = -19;
width = 140;
},
{
position = 1295;
width = 140;
}
);
vhints = (
{
position = 130;
width = 156;
}
);
};
};
width = 1114;
}
);
unicode = 262;
}
{
color = 4;
glyphname = cacute;
layers = (
{
background = {
shapes = (
{
closed = 1;
nodes = (
(582,1222,l),
(424,1222,l),
(578,1496,l),
(747,1496,l)
);
},
{
ref = c;
}
);
};
layerId = m001;
shapes = (
{
ref = c;
},
{
pos = (304,0);
ref = acutecomb;
}
);
userData = {
com.fontlab.hintData = {
hhints = (
{
position = -16;
width = 134;
},
{
position = 964;
width = 134;
}
);
vhints = (
{
position = 125;
width = 150;
}
);
};
};
width = 964;
}
);
unicode = 263;
}
{
color = 4;
glyphname = Emacron;
layers = (
{
background = {
shapes = (
{
closed = 1;
nodes = (
(862,1720,l),
(862,1586,l),
(292,1586,l),
(292,1720,l)
);
},
{
ref = E;
}
);
};
layerId = m001;
shapes = (
{
ref = E;
},
{
pos = (172,334);
ref = macroncomb;
}
);
userData = {
com.fontlab.hintData = {
hhints = (
{
position = 0;
width = 140;
},
{
position = 652;
width = 140;
},
{
position = 1276;
width = 140;
},
{
position = 1586;
width = 134;
}
);
vhints = (
{
position = 180;
width = 156;
}
);
};
};
width = 1100;
}
);
unicode = 274;
}
{
color = 2;
glyphname = emacron;
layers = (
{
layerId = m001;
shapes = (
{
closed = 1;
nodes = (
(815,1386,l),
(815,1252,l),
(245,1252,l),
(245,1386,l)
);
},
{
ref = e;
}
);
userData = {
com.fontlab.hintData = {
hhints = (
{
position = -16;
width = 134;
},
{
position = 509;
width = 124;
},
{
position = 964;
width = 134;
},
{
position = 1252;
width = 134;
}
);
vhints = (
{
position = 125;
width = 150;
},
{
position = 785;
width = 150;
}
);
};
};
width = 1055;
}
);
unicode = 275;
}
{
color = 4;
glyphname = Eogonek;
kernRight = E;
layers = (
{
background = {
shapes = (
{
closed = 1;
nodes = (
(758,-267,o),
(788,-306,o),
(839,-306,cs),
(867,-306,o),
(895,-293,o),
(913,-281,c),
(978,-391,l),
(940,-413,o),
(894,-430,o),
(839,-430,cs),
(709,-430,o),
(634,-340,o),
(634,-237,cs),
(634,-126.925,o),
(709.679,-51.204,o),
(797.097,0,c),
(180,0,l),
(180,1416,l),
(960,1416,l),
(960,1276,l),
(336,1276,l),
(336,792,l),
(870,792,l),
(870,652,l),
(336,652,l),
(336,140,l),
(960,140,l),
(960,0,l),
(877,-30,o),
(758,-100,o),
(758,-216,cs)
);
}
);
};
layerId = m001;
shapes = (
{
ref = E;
},
{
pos = (514,0);
ref = ogonekcomb;
}
);
userData = {
com.fontlab.hintData = {
hhints = (
{
position = -430;
width = 124;
},
{
position = 0;
width = 140;
},
{
position = 652;
width = 140;
},
{
position = 1276;
width = 140;
}
);
vhints = (
{
position = 180;
width = 156;
},
{
position = 634;
width = 124;
}
);
};
};
width = 1100;
}
);
unicode = 280;
}
{
color = 4;
glyphname = eogonek;
kernLeft = o;
kernRight = e;
layers = (
{
background = {
shapes = (
{
closed = 1;
nodes = (
(784,691,o),
(779,757,o),
(756,814,cs),
(720,904,o),
(636,964,o),
(530,964,cs),
(419,964,o),
(339,902,o),
(305,815,cs),
(284,761,o),
(277,698,o),
(276,633,c),
(785,633,l)
);
},
{
closed = 1;
nodes = (
(625,-227,o),
(655,-266,o),
(706,-266,cs),
(734,-266,o),
(762,-253,o),
(780,-241,c),
(845,-351,l),
(807,-373,o),
(761,-390,o),
(706,-390,cs),
(576,-390,o),
(501,-300,o),
(501,-197,cs),
(501,-117,o),
(554,-55,o),
(629,-6,c),
(603,-13,o),
(576,-16,o),
(550,-16,cs),
(390,-16,o),
(271,50,o),
(204,147,cs),
(125,261,o),
(125,400,o),
(125,541,cs),
(125,660,o),
(125,759,o),
(162,856,cs),
(217,1001,o),
(356,1098,o),
(530,1098,cs),
(702,1098,o),
(842,1000,o),
(899,855,cs),
(935,763,o),
(935,681,o),
(935,542,cs),
(935,509,l),
(275,509,l),
(275,411,o),
(277,296,o),
(332,217,cs),
(376,154,o),
(449,118,o),
(550,118,cs),
(652,118,o),
(754,152,o),
(836,191,c),
(893,67,l),
(785,21,o),
(625,-37,o),
(625,-176,cs)
);
}
);
};
layerId = m001;
shapes = (
{
ref = e;
},
{
pos = (380,40);
ref = ogonekcomb;
}
);
userData = {
com.fontlab.hintData = {
hhints = (
{
position = -390;
width = 124;
},
{
position = -16;
width = 134;
},
{
position = 509;
width = 124;
},
{
position = 964;
width = 134;
}
);
vhints = (
{
position = 125;
width = 150;
},
{
position = 501;
width = 124;
},
{
position = 785;
width = 150;
}
);
};
};
width = 1055;
}
);
unicode = 281;
}
{
glyphname = Hbar;
layers = (
{
layerId = m001;
shapes = (
{
closed = 1;
nodes = (
(1300,1136,l),
(1154,1136,l),
(1154,0,l),
(998,0,l),
(998,652,l),
(390,652,l),
(390,0,l),
(234,0,l),
(234,1136,l),
(80,1136,l),
(80,1260,l),
(234,1260,l),
(234,1416,l),
(390,1416,l),
(390,1260,l),
(998,1260,l),
(998,1416,l),
(1154,1416,l),
(1154,1260,l),
(1300,1260,l)
);
},
{
closed = 1;
nodes = (
(390,1136,l),
(390,792,l),
(998,792,l),
(998,1136,l)
);
}
);
userData = {
com.fontlab.hintData = {
hhints = (
{
position = 0;
width = 21;
},
{
position = 652;
width = 140;
},
{
position = 1136;
width = 124;
},
{
position = 1396;
width = 20;
}
);
vhints = (
{
position = 234;
width = 156;
},
{
position = 998;
width = 156;
}
);
};
};
width = 1380;
}
);
unicode = 294;
}
{
glyphname = hbar;
layers = (
{
background = {
shapes = (
{
closed = 1;
nodes = (
(747,1098,o),
(846,1043,o),
(907,966,cs),
(990,862,o),
(990,741,o),
(990,625,cs),
(990,0,l),
(840,0,l),
(840,615,ls),
(840,735,o),
(840,816,o),
(782,884,cs),
(742,931,o),
(677,964,o),
(595,964,cs),
(513,964,o),
(448,931,o),
(408,884,cs),
(350,816,o),
(350,735,o),
(350,615,cs),
(350,0,l),
(200,0,l),
(200,1236,l),
(60,1236,l),
(60,1360,l),
(200,1360,l),
(200,1496,l),
(350,1496,l),
(350,1360,l),
(592,1360,l),
(592,1236,l),
(350,1236,l),
(350,968,l),
(422,1047,o),
(506,1098,o),
(625,1098,cs)
);
}
);
};
layerId = m001;
shapes = (
{
closed = 1;
nodes = (
(747,1098,o),
(846,1043,o),
(907,966,cs),
(990,862,o),
(990,741,o),
(990,625,cs),
(990,0,l),
(840,0,l),
(840,615,ls),
(840,735,o),
(840,816,o),
(782,884,cs),
(742,931,o),
(677,964,o),
(595,964,cs),
(513,964,o),
(448,931,o),
(408,884,cs),
(350,816,o),
(350,735,o),
(350,615,cs),
(350,0,l),
(200,0,l),
(200,1236,l),
(60,1236,l),
(60,1360,l),
(200,1360,l),
(200,1496,l),
(350,1496,l),
(350,1360,l),
(592,1360,l),
(592,1236,l),
(350,1236,l),
(350,968,l),
(422,1047,o),
(506,1098,o),
(625,1098,cs)
);
}
);
userData = {
com.fontlab.hintData = {
hhints = (
{
position = 0;
width = 21;
},
{
position = 964;
width = 134;
},
{
position = 1236;
width = 124;
}
);
vhints = (
{
position = 200;
width = 150;
},
{
position = 840;
width = 150;
}
);
};
};
width = 1130;
}
);
unicode = 295;
}
{
color = 2;
glyphname = Imacron;
layers = (
{
layerId = m001;
shapes = (
{
closed = 1;
nodes = (
(543,1720,l),
(543,1586,l),
(-27,1586,l),
(-27,1720,l)
);
},
{
ref = I;
}
);
userData = {
com.fontlab.hintData = {
hhints = (
{
position = 0;
width = 21;
},
{
position = 1396;
width = 20;
},
{
position = 1586;
width = 134;
}
);
vhints = (
{
position = -27;
width = 570;
},
{
position = 180;
width = 156;
}
);
};
};
width = 516;
}
);
unicode = 298;
}
{
color = 4;
glyphname = imacron;
layers = (
{
background = {
shapes = (
{
closed = 1;
nodes = (
(520,1386,l),
(520,1252,l),
(-50,1252,l),
(-50,1386,l)
);
},
{
ref = idotless;
}
);
};
layerId = m001;
shapes = (
{
ref = idotless;
},
{
pos = (-170,0);
ref = macroncomb;
}
);
userData = {
com.fontlab.hintData = {
hhints = (
{
position = 0;
width = 21;
},
{
position = 1062;
width = 20;
},
{
position = 1252;
width = 134;
}
);
vhints = (
{
position = -50;
width = 570;
},
{
position = 160;
width = 150;
}
);
};
};
width = 470;
}
);
unicode = 299;
}
{
color = 4;
glyphname = Iogonek;
layers = (
{
background = {
shapes = (
{
closed = 1;
nodes = (
(130,-267,o),
(160,-306,o),
(211,-306,cs),
(239,-306,o),
(267,-293,o),
(285,-281,c),
(350,-391,l),
(312,-413,o),
(266,-430,o),
(211,-430,cs),
(81,-430,o),
(6,-340,o),
(6,-237,cs),
(6,-122.372,o),
(88.069,-44.999,o),
(180,6.229,c),
(180,1416,l),
(336,1416,l),
(336,0,l),
(332,0,l),
(249,-30,o),
(130,-100,o),
(130,-216,cs)
);
}
);
};
layerId = m001;
shapes = (
{
ref = I;
},
{
pos = (-110,0);
ref = ogonekcomb;
}
);
userData = {
com.fontlab.hintData = {
hhints = (
{
position = -430;
width = 124;
},
{
position = 0;
width = 21;
},
{
position = 1396;
width = 20;
}
);
vhints = (
{
position = 6;
width = 124;
},
{
position = 180;
width = 156;
}
);
};
};
width = 516;
}
);
unicode = 302;
}
{
color = 4;
glyphname = iogonek;
layers = (
{
background = {
shapes = (
{
closed = 1;
nodes = (
(113,-267,o),
(143,-306,o),
(194,-306,cs),
(222,-306,o),
(250,-293,o),
(268,-281,c),
(333,-391,l),
(295,-413,o),
(249,-430,o),
(194,-430,cs),
(64,-430,o),
(-11,-340,o),
(-11,-237,cs),
(-11,-123.62,o),
(69.291,-46.688,o),
(160,4.545,c),
(160,1082,l),
(310,1082,l),
(310,5,l),
(315,0,l),
(232,-30,o),
(113,-100,o),
(113,-216,cs)
);
},
{
closed = 1;
nodes = (
(296,1454,o),
(338,1410,o),
(338,1350,cs),
(338,1289,o),
(296,1247,o),
(235,1247,cs),
(174,1247,o),
(132,1289,o),
(132,1350,cs),
(132,1410,o),
(174,1454,o),
(235,1454,cs)
);
}
);
};
layerId = m001;
shapes = (
{
ref = idotless;
},
{
alignment = 1;
pos = (12,0);
ref = dotaccentcomb;
},
{
pos = (-136,0);
ref = ogonekcomb;
}
);
userData = {
com.fontlab.hintData = {
hhints = (
{
position = -430;
width = 124;
},
{
position = 0;
width = 21;
},
{
position = 1062;
width = 20;
},
{
position = 1247;
width = 207;
}
);
vhints = (
{
position = -11;
width = 124;
},
{
position = 132;
width = 206;
},
{
position = 160;
width = 150;
}
);
};
};
width = 470;
}
);
unicode = 303;
}
{
glyphname = idotless;
layers = (
{
anchors = (
{
name = Apos;
pos = (6,0);
},
{
name = Bottom;
pos = (235,0);
},
{
name = Center;
pos = (6,0);
},
{
name = DoubleTop;
pos = (6,0);
},
{
name = Top;
pos = (235,1082);
}
);
layerId = m001;
shapes = (
{
closed = 1;
nodes = (
(160,0,l),
(160,1082,l),
(310,1082,l),
(310,0,l)
);
}
);
userData = {
com.fontlab.hintData = {
hhints = (
{
position = 0;
width = 21;
},
{
position = 1062;
width = 20;
}
);
vhints = (
{
position = 160;
width = 150;
}
);
};
};
width = 470;
}
);
unicode = 305;
}
{
glyphname = kgreenlandic;
layers = (
{
anchors = (
{
name = Bottom;
pos = (489,0);
}
);
layerId = m001;
shapes = (
{
closed = 1;
nodes = (
(310,1082,l),
(310,540,l),
(741,1082,l),
(925,1082,l),
(549,609,l),
(935,0,l),
(763,0,l),
(449,495,l),
(310,317,l),
(310,0,l),
(160,0,l),
(160,1082,l)
);
}
);
userData = {
com.fontlab.hintData = {
hhints = (
{
position = 0;
width = 21;
},
{
position = 1062;
width = 20;
}
);
vhints = (
{
position = 160;
width = 150;
}
);
};
};
width = 1005;
}
);
unicode = 312;
}
{
glyphname = Lslash;
kernRight = L;
layers = (
{
background = {
shapes = (
{
closed = 1;
nodes = (
(641,890,l),
(413,731,l),
(413,140,l),
(1007,140,l),
(1007,0,l),
(257,0,l),
(257,623,l),
(141,542,l),
(65,650,l),
(257,784,l),
(257,1416,l),
(413,1416,l),
(413,892,l),
(565,998,l)
);
}
);
};
layerId = m001;
shapes = (
{
closed = 1;
nodes = (
(641,890,l),
(413,731,l),
(413,140,l),
(1007,140,l),
(1007,0,l),
(257,0,l),
(257,623,l),
(141,542,l),
(65,650,l),
(257,784,l),
(257,1416,l),
(413,1416,l),
(413,892,l),
(565,998,l)
);
}
);
userData = {
com.fontlab.hintData = {
hhints = (
{
position = 0;
width = 140;
},
{
position = 1396;
width = 20;
}
);
vhints = (
{
position = 257;
width = 156;
}
);
};
};
width = 1087;
}
);
unicode = 321;
}
{
glyphname = lslash;
layers = (
{
background = {
shapes = (
{
closed = 1;
nodes = (
(65,646,l),
(278,794,l),
(278,1496,l),
(428,1496,l),
(428,899,l),
(559,990,l),
(631,886,l),
(428,745,l),
(428,191,ls),
(428,169,o),
(428,146,o),
(439,132,cs),
(447,122,o),
(458,118,o),
(474,118,cs),
(488,118,o),
(504,120,o),
(520,124,c),
(544,-4,l),
(517,-12,o),
(487,-16,o),
(452,-16,cs),
(396,-16,o),
(348,11,o),
(316,50,cs),
(278,96,o),
(278,158,o),
(278,191,cs),
(278,640,l),
(137,542,l)
);
}
);
};
layerId = m001;
shapes = (
{
closed = 1;
nodes = (
(65,646,l),
(278,794,l),
(278,1496,l),
(428,1496,l),
(428,899,l),
(559,990,l),
(631,886,l),
(428,745,l),
(428,191,ls),
(428,169,o),
(428,146,o),
(439,132,cs),
(447,122,o),
(458,118,o),
(474,118,cs),
(488,118,o),
(504,120,o),
(520,124,c),
(544,-4,l),
(517,-12,o),
(487,-16,o),
(452,-16,cs),
(396,-16,o),
(348,11,o),
(316,50,cs),
(278,96,o),
(278,158,o),
(278,191,cs),
(278,640,l),
(137,542,l)
);
}
);
userData = {
com.fontlab.hintData = {
hhints = (
{
position = -16;
width = 134;
}
);
vhints = (
{
position = 278;
width = 150;
}
);
};
};
width = 696;
}
);
unicode = 322;
}
{
color = 2;
glyphname = Nacute;
layers = (
{
layerId = m001;
shapes = (
{
closed = 1;
nodes = (
(694,1556,l),
(536,1556,l),
(690,1830,l),
(859,1830,l)
);
},
{
ref = N;
}
);
userData = {
com.fontlab.hintData = {
hhints = (
{
position = 0;
width = 21;
},
{
position = 1396;
width = 20;
}
);
vhints = (
{
position = 180;
width = 156;
},
{
position = 958;
width = 156;
}
);
};
};
width = 1294;
}
);
unicode = 323;
}
{
color = 2;
glyphname = nacute;
layers = (
{
layerId = m001;
shapes = (
{
closed = 1;
nodes = (
(622,1222,l),
(464,1222,l),
(618,1496,l),
(787,1496,l)
);
},
{
ref = n;
}
);
userData = {
com.fontlab.hintData = {
hhints = (
{
position = 0;
width = 21;
},
{
position = 964;
width = 134;
},
{
position = 1062;
width = 20;
}
);
vhints = (
{
position = 160;
width = 150;
},
{
position = 800;
width = 150;
}
);
};
};
width = 1100;
}
);
unicode = 324;
}
{
glyphname = Eng;
layers = (
{
background = {
shapes = (
{
closed = 1;
nodes = (
(1110,1416,l),
(1110,-121,ls),
(1110,-223,o),
(1105,-268,o),
(1076,-319,cs),
(1035,-391,o),
(958,-433,o),
(857,-433,cs),
(817,-433,o),
(774,-425,o),
(733,-408,c),
(784,-277,l),
(807,-287,o),
(834,-293,o),
(860,-293,cs),
(893,-293,o),
(922,-281,o),
(938,-255,cs),
(953,-230,o),
(954,-199,o),
(954,-121,cs),
(954,-2,l),
(332,1136,l),
(332,0,l),
(176,0,l),
(176,1416,l),
(333,1416,l),
(954,280,l),
(954,1416,l)
);
}
);
};
layerId = m001;
shapes = (
{
closed = 1;
nodes = (
(1110,1416,l),
(1110,-121,ls),
(1110,-223,o),
(1105,-268,o),
(1076,-319,cs),
(1035,-391,o),
(958,-433,o),
(857,-433,cs),
(817,-433,o),
(774,-425,o),
(733,-408,c),
(784,-277,l),
(807,-287,o),
(834,-293,o),
(860,-293,cs),
(893,-293,o),
(922,-281,o),
(938,-255,cs),
(953,-230,o),
(954,-199,o),
(954,-121,cs),
(954,-2,l),
(332,1136,l),
(332,0,l),
(176,0,l),
(176,1416,l),
(333,1416,l),
(954,280,l),
(954,1416,l)
);
}
);
userData = {
com.fontlab.hintData = {
hhints = (
{
position = -433;
width = 140;
},
{
position = 0;
width = 21;
},
{
position = 1396;
width = 20;
}
);
vhints = (
{
position = 176;
width = 156;
},
{
position = 954;
width = 156;
}
);
};
};
width = 1286;
}
);
unicode = 330;
}
{
glyphname = eng;
layers = (
{
background = {
shapes = (
{
closed = 1;
nodes = (
(950,-191,o),
(950,-228,o),
(940,-264,cs),
(912,-363,o),
(825,-428,o),
(715,-428,cs),
(668,-428,o),
(622,-421,o),
(584,-409,c),
(622,-279,l),
(646,-287,o),
(676,-294,o),
(705,-294,cs),
(750,-294,o),
(777,-273,o),
(790,-240,cs),
(800,-215,o),
(800,-184,o),
(800,-129,cs),
(800,615,ls),
(800,724,o),
(800,777,o),
(774,834,cs),
(736,917,o),
(652,964,o),
(555,964,cs),
(458,964,o),
(374,917,o),
(336,834,cs),
(310,777,o),
(310,724,o),
(310,615,cs),
(310,0,l),
(160,0,l),
(160,1082,l),
(310,1082,l),
(310,968,l),
(382,1047,o),
(466,1098,o),
(585,1098,cs),
(730,1098,o),
(862,1018,o),
(919,876,cs),
(950,799,o),
(950,716,o),
(950,625,cs),
(950,-134,ls)
);
}
);
};
layerId = m001;
shapes = (
{
closed = 1;
nodes = (
(950,-191,o),
(950,-228,o),
(940,-264,cs),
(912,-363,o),
(825,-428,o),
(715,-428,cs),
(668,-428,o),
(622,-421,o),
(584,-409,c),
(622,-279,l),
(646,-287,o),
(676,-294,o),
(705,-294,cs),
(750,-294,o),
(777,-273,o),
(790,-240,cs),
(800,-215,o),
(800,-184,o),
(800,-129,cs),
(800,615,ls),
(800,724,o),
(800,777,o),
(774,834,cs),
(736,917,o),
(652,964,o),
(555,964,cs),
(458,964,o),
(374,917,o),
(336,834,cs),
(310,777,o),
(310,724,o),
(310,615,cs),
(310,0,l),
(160,0,l),
(160,1082,l),
(310,1082,l),
(310,968,l),
(382,1047,o),
(466,1098,o),
(585,1098,cs),
(730,1098,o),
(862,1018,o),
(919,876,cs),
(950,799,o),
(950,716,o),
(950,625,cs),
(950,-134,ls)
);
}
);
userData = {
com.fontlab.hintData = {
hhints = (
{
position = -428;
width = 134;
},
{
position = 0;
width = 21;
},
{
position = 964;
width = 134;
},
{
position = 1062;
width = 20;
}
);
vhints = (
{
position = 160;
width = 150;
},
{
position = 800;
width = 150;
}
);
};
};
width = 1100;
}
);
unicode = 331;
}
{
color = 2;
glyphname = omacron;
layers = (
{
layerId = m001;
shapes = (
{
closed = 1;
nodes = (
(875,1386,l),
(875,1252,l),
(305,1252,l),
(305,1386,l)
);
},
{
pos = (20,0);
ref = o;
}
);
userData = {
com.fontlab.hintData = {
hhints = (
{
position = -16;
width = 134;
},
{
position = 964;
width = 134;
},
{
position = 1252;
width = 134;
}
);
vhints = (
{
position = 145;
width = 150;
},
{
position = 845;
width = 150;
}
);
};
};
width = 1100;
}
);
unicode = 333;
}
{
glyphname = OE;
layers = (
{
background = {
shapes = (
{
closed = 1;
nodes = (
(450,1295,o),
(365,1230,o),
(326,1128,cs),
(286,1024,o),
(286,855,o),
(286,708,cs),
(286,561,o),
(286,392,o),
(326,288,cs),
(365,186,o),
(450,121,o),
(588,121,cs),
(726,121,o),
(811,186,o),
(850,288,cs),
(890,392,o),
(890,561,o),
(890,708,cs),
(890,855,o),
(890,1024,o),
(850,1128,cs),
(811,1230,o),
(726,1295,o),
(588,1295,cs)
);
},
{
closed = 1;
nodes = (
(1045,451,o),
(1036,261,o),
(931,140,c),
(1530,140,l),
(1530,0,l),
(721,0,l),
(681,-12,o),
(636,-19,o),
(588,-19,cs),
(379,-19,o),
(237,89,o),
(179,242,cs),
(130,371,o),
(130,546,o),
(130,708,cs),
(130,870,o),
(130,1045,o),
(179,1174,cs),
(237,1327,o),
(379,1435,o),
(588,1435,cs),
(636,1435,o),
(681,1428,o),
(721,1416,c),
(1530,1416,l),
(1530,1276,l),
(931,1276,l),
(1032,1162,o),
(1044,984,o),
(1046,792,c),
(1460,792,l),
(1460,652,l),
(1046,652,l)
);
}
);
};
layerId = m001;
shapes = (
{
closed = 1;
nodes = (
(450,1295,o),
(365,1230,o),
(326,1128,cs),
(286,1024,o),
(286,855,o),
(286,708,cs),
(286,561,o),
(286,392,o),
(326,288,cs),
(365,186,o),
(450,121,o),
(588,121,cs),
(726,121,o),
(811,186,o),
(850,288,cs),
(890,392,o),
(890,561,o),
(890,708,cs),
(890,855,o),
(890,1024,o),
(850,1128,cs),
(811,1230,o),
(726,1295,o),
(588,1295,cs)
);
},
{
closed = 1;
nodes = (
(1045,451,o),
(1036,261,o),
(931,140,c),
(1530,140,l),
(1530,0,l),
(721,0,l),
(681,-12,o),
(636,-19,o),
(588,-19,cs),
(379,-19,o),
(237,89,o),
(179,242,cs),
(130,371,o),
(130,546,o),
(130,708,cs),
(130,870,o),
(130,1045,o),
(179,1174,cs),
(237,1327,o),
(379,1435,o),
(588,1435,cs),
(636,1435,o),
(681,1428,o),
(721,1416,c),
(1530,1416,l),
(1530,1276,l),
(931,1276,l),
(1032,1162,o),
(1044,984,o),
(1046,792,c),
(1460,792,l),
(1460,652,l),
(1046,652,l)
);
}
);
userData = {
com.fontlab.hintData = {
hhints = (
{
position = -19;
width = 140;
},
{
position = 0;
width = 140;
},
{
position = 652;
width = 140;
},
{
position = 1276;
width = 140;
},
{
position = 1295;
width = 140;
}
);
vhints = (
{
position = 130;
width = 156;
},
{
position = 890;
width = 156;
}
);
};
};
width = 1670;
}
);
unicode = 338;
}
{
glyphname = oe;
layers = (
{
layerId = m001;
shapes = (
{
closed = 1;
nodes = (
(1445,633,l),
(1445,719,o),
(1430,808,o),
(1391,864,cs),
(1350,923,o),
(1286,964,o),
(1198,964,cs),
(1108,964,o),
(1044,918,o),
(1008,863,cs),
(969,804,o),
(957,721,o),
(956,633,c)
);
},
{
closed = 1;
nodes = (
(936,1026,o),
(1053,1098,o),
(1198,1098,cs),
(1349,1098,o),
(1468,1018,o),
(1528,920,cs),
(1586,825,o),
(1595,727,o),
(1595,579,cs),
(1595,509,l),
(955,509,l),
(955,394,o),
(960,297,o),
(1007,221,cs),
(1047,157,o),
(1119,118,o),
(1220,118,cs),
(1327,118,o),
(1430,159,o),
(1497,191,c),
(1556,68,l),
(1471,28,o),
(1351,-16,o),
(1220,-16,cs),
(1062,-16,o),
(945,49,o),
(880,168,c),
(811,60,o),
(697,-16,o),
(540,-16,cs),
(393,-16,o),
(274,51,o),
(209,144,cs),
(125,263,o),
(125,399,o),
(125,541,cs),
(125,683,o),
(125,819,o),
(209,938,cs),
(274,1031,o),
(393,1098,o),
(540,1098,cs),
(699,1098,o),
(812,1023,o),
(882,913,c)
);
},
{
closed = 1;
nodes = (
(447,964,o),
(376,924,o),
(335,866,cs),
(275,782,o),
(275,662,o),
(275,541,cs),
(275,420,o),
(275,300,o),
(335,216,cs),
(376,158,o),
(447,118,o),
(540,118,cs),
(633,118,o),
(704,158,o),
(745,216,cs),
(805,300,o),
(805,420,o),
(805,541,cs),
(805,662,o),
(805,782,o),
(745,866,cs),
(704,924,o),
(633,964,o),
(540,964,cs)
);
}
);
userData = {
com.fontlab.hintData = {
hhints = (
{
position = -16;
width = 134;
},
{
position = 509;
width = 124;
},
{
position = 964;
width = 134;
}
);
vhints = (
{
position = 125;
width = 150;
},
{
position = 805;
width = 150;
},
{
position = 1445;
width = 150;
}
);
};
};
width = 1715;
}
);
unicode = 339;
}
{
color = 4;
glyphname = Racute;
kernRight = R;
layers = (
{
background = {
shapes = (
{
closed = 1;
nodes = (
(603,1556,l),
(445,1556,l),
(599,1830,l),
(768,1830,l)
);
},
{
ref = R;
}
);
};
layerId = m001;
shapes = (
{
ref = R;
},
{
pos = (325,334);
ref = acutecomb;
}
);
userData = {
com.fontlab.hintData = {
hhints = (
{
position = 0;
width = 21;
},
{
position = 556;
width = 140;
},
{
position = 1276;
width = 140;
}
);
vhints = (
{
position = 180;
width = 156;
},
{
position = 870;
width = 156;
}
);
};
};
width = 1151;
}
);
unicode = 340;
}
{
color = 2;
glyphname = racute;
layers = (
{
layerId = m001;
shapes = (
{
closed = 1;
nodes = (
(512,1222,l),
(354,1222,l),
(508,1496,l),
(677,1496,l)
);
},
{
ref = r;
}
);
userData = {
com.fontlab.hintData = {
hhints = (
{
position = 0;
width = 21;
},
{
position = 964;
width = 134;
},
{
position = 1062;
width = 20;
}
);
vhints = (
{
position = 160;
width = 150;
}
);
};
};
width = 697;
}
);
unicode = 341;
}
{
color = 2;
glyphname = sacute;
layers = (
{
layerId = m001;
shapes = (
{
closed = 1;
nodes = (
(525,1222,l),
(367,1222,l),
(521,1496,l),
(690,1496,l)
);
},
{
ref = s;
}
);
userData = {
com.fontlab.hintData = {
hhints = (
{
position = -16;
width = 134;
},
{
position = 964;
width = 134;
}
);
vhints = (
{
position = 117;
width = 150;
},
{
position = 713;
width = 150;
}
);
};
};
width = 963;
}
);
unicode = 347;
}
{
glyphname = Scedilla;
layers = (
{
layerId = m001;
shapes = (
{
closed = 1;
nodes = (
(467,-306,o),
(491,-269,o),
(491,-228,cs),
(491,-183,o),
(467,-156,o),
(416,-138,c),
(450.618,-15.506,l),
(310.127,-0.813,o),
(186.189,57.843,o),
(84,115,c),
(153,241,l),
(255,182,o),
(382,121,o),
(517,121,cs),
(725,121,o),
(789,270,o),
(789,381,cs),
(789,471,o),
(748,577,o),
(638,624,cs),
(543,665,o),
(418,663,o),
(306,728,cs),
(172,806,o),
(114,935,o),
(114,1061,cs),
(114,1260,o),
(261,1435,o),
(517,1435,cs),
(655,1435,o),
(785,1385,o),
(890,1335,c),
(830,1206,l),
(743,1248,o),
(632,1295,o),
(517,1295,cs),
(345,1295,o),
(270,1179,o),
(270,1061,cs),
(270,987,o),
(302,895,o),
(390,846,cs),
(478,797,o),
(591,798,o),
(697,754,cs),
(871,681,o),
(945,529,o),
(945,381,cs),
(945,186.856,o),
(815.566,8.244,o),
(574.333,-16.167,c),
(551,-97,l),
(591,-117,o),
(631,-160,o),
(631,-229,cs),
(631,-350,o),
(544,-430,o),
(425,-430,cs),
(392,-430,o),
(362,-423,o),
(336,-416,c),
(374,-297,l),
(392,-304,o),
(408,-306,o),
(421,-306,cs)
);
}
);
userData = {
com.fontlab.hintData = {
hhints = (
{
position = -430;
width = 124;
},
{
position = -20;
width = 20;
},
{
position = -19;
width = 140;
},
{
position = 1295;
width = 140;
}
);
vhints = (
{
position = 114;
width = 156;
},
{
position = 491;
width = 140;
},
{
position = 789;
width = 156;
}
);
};
};
width = 1045;
}
);
unicode = 350;
}
{
color = 4;
glyphname = scedilla;
kernLeft = s;
kernRight = s;
layers = (
{
background = {
shapes = (
{
closed = 1;
nodes = (
(468,-306,o),
(492,-269,o),
(492,-228,cs),
(492,-183,o),
(468,-156,o),
(417,-138,c),
(451.952,-14.323,l),
(331.041,-5.654,o),
(214.095,35.279,o),
(120,77,c),
(174,202,l),
(267,160,o),
(380,118,o),
(498,118,cs),
(671,118,o),
(733,221,o),
(733,301,cs),
(733,382,o),
(677,438,o),
(615,461,cs),
(529,493,o),
(424,483,o),
(314,534,cs),
(220,578,o),
(137,669,o),
(137,796,cs),
(137,952,o),
(270,1098,o),
(498,1098,cs),
(622,1098,o),
(744,1057,o),
(841,1016,c),
(790,889,l),
(703,926,o),
(599,964,o),
(498,964,cs),
(333,964,o),
(287,859,o),
(287,796,cs),
(287,725,o),
(333,675,o),
(384,652,cs),
(467,614,o),
(551,629,o),
(675,583,cs),
(782,543,o),
(883,445,o),
(883,301,cs),
(883,161.249,o),
(778.411,19.121,o),
(576.991,-10.422,c),
(552,-97,l),
(592,-117,o),
(632,-160,o),
(632,-229,cs),
(632,-350,o),
(545,-430,o),
(426,-430,cs),
(393,-430,o),
(363,-423,o),
(337,-416,c),
(375,-297,l),
(393,-304,o),
(409,-306,o),
(422,-306,cs)
);
}
);
};
layerId = m001;
shapes = (
{
ref = s;
},
{
pos = (188,0);
ref = cedillacomb;
}
);
userData = {
com.fontlab.hintData = {
hhints = (
{
position = -430;
width = 124;
},
{
position = -20;
width = 20;
},
{
position = -16;
width = 134;
},
{
position = 964;
width = 134;
}
);
vhints = (
{
position = 137;
width = 150;
},
{
position = 492;
width = 140;
},
{
position = 733;
width = 150;
}
);
};
};
width = 963;
}
);
unicode = 351;
}
{
color = 4;
glyphname = Tcedilla;
kernLeft = T;
kernRight = T;
layers = (
{
background = {
shapes = (
{
closed = 1;
nodes = (
(474,-306,o),
(498,-269,o),
(498,-228,cs),
(498,-183,o),
(474,-156,o),
(423,-138,c),
(462,0,l),
(446,0,l),
(446,1277,l),
(60,1277,l),
(60,1417,l),
(988,1417,l),
(988,1277,l),
(602,1277,l),
(602,0,l),
(586,0,l),
(558,-97,l),
(598,-117,o),
(638,-160,o),
(638,-229,cs),
(638,-350,o),
(551,-430,o),
(432,-430,cs),
(399,-430,o),
(369,-423,o),
(343,-416,c),
(381,-297,l),
(399,-304,o),
(415,-306,o),
(428,-306,cs)
);
}
);
};
layerId = m001;
shapes = (
{
ref = T;
},
{
pos = (234,0);
ref = cedillacomb;
}
);
userData = {
com.fontlab.hintData = {
hhints = (
{
position = -430;
width = 124;
},
{
position = -20;
width = 20;
},
{
position = 0;
width = 21;
},
{
position = 1277;
width = 140;
}
);
vhints = (
{
position = 446;
width = 156;
},
{
position = 498;
width = 140;
}
);
};
};
width = 1048;
}
);
unicode = 354;
}
{
color = 4;
glyphname = tcedilla;
kernLeft = t;
kernRight = t;
layers = (
{
background = {
shapes = (
{
closed = 1;
nodes = (
(405,-306,o),
(429,-269,o),
(429,-228,cs),
(429,-183,o),
(405,-156,o),
(354,-138,c),
(389.872,-11.067,l),
(305.511,4.776,o),
(245.042,58.267,o),
(221,142,cs),
(210,180,o),
(210,218,o),
(210,303,cs),
(210,958,l),
(60,958,l),
(60,1082,l),
(210,1082,l),
(210,1316,l),
(360,1316,l),
(360,1082,l),
(560,1082,l),
(560,958,l),
(360,958,l),
(360,303,ls),
(360,220,o),
(360,195,o),
(369,173,cs),
(385,134,o),
(419,118,o),
(455,118,cs),
(494,118,o),
(538,134,o),
(569,150,c),
(627,26,l),
(590.409,10.033,o),
(555.588,-3.279,o),
(513.998,-10.4,c),
(489,-97,l),
(529,-117,o),
(569,-160,o),
(569,-229,cs),
(569,-350,o),
(482,-430,o),
(363,-430,cs),
(330,-430,o),
(300,-423,o),
(274,-416,c),
(312,-297,l),
(330,-304,o),
(346,-306,o),
(359,-306,cs)
);
}
);
};
layerId = m001;
shapes = (
{
ref = t;
},
{
pos = (125,0);
ref = cedillacomb;
}
);
userData = {
com.fontlab.hintData = {
hhints = (
{
position = -430;
width = 124;
},
{
position = -20;
width = 20;
},
{
position = -16;
width = 134;
},
{
position = 958;
width = 124;
}
);
vhints = (
{
position = 210;
width = 150;
},
{
position = 429;
width = 140;
}
);
};
};
width = 652;
}
);
unicode = 355;
}
{
glyphname = Tbar;
kernLeft = T;
kernRight = T;
layers = (
{
background = {
shapes = (
{
closed = 1;
nodes = (
(988,1417,l),
(988,1277,l),
(602,1277,l),
(602,846,l),
(800,846,l),
(800,722,l),
(602,722,l),
(602,0,l),
(446,0,l),
(446,722,l),
(248,722,l),
(248,846,l),
(446,846,l),
(446,1277,l),
(60,1277,l),
(60,1417,l)
);
}
);
};
layerId = m001;
shapes = (
{
closed = 1;
nodes = (
(988,1417,l),
(988,1277,l),
(602,1277,l),
(602,846,l),
(800,846,l),
(800,722,l),
(602,722,l),
(602,0,l),
(446,0,l),
(446,722,l),
(248,722,l),
(248,846,l),
(446,846,l),
(446,1277,l),
(60,1277,l),
(60,1417,l)
);
}
);
userData = {
com.fontlab.hintData = {
hhints = (
{
position = 0;
width = 21;
},
{
position = 722;
width = 124;
},
{
position = 1277;
width = 140;
}
);
vhints = (
{
position = 446;
width = 156;
}
);
};
};
width = 1048;
}
);
unicode = 358;
}
{
glyphname = tbar;
layers = (
{
background = {
shapes = (
{
closed = 1;
nodes = (
(560,658,l),
(360,658,l),
(360,303,ls),
(360,220,o),
(360,195,o),
(369,173,cs),
(385,134,o),
(419,118,o),
(455,118,cs),
(494,118,o),
(538,134,o),
(569,150,c),
(627,26,l),
(572,2,o),
(521,-16,o),
(445,-16,cs),
(332,-16,o),
(250,41,o),
(221,142,cs),
(210,180,o),
(210,218,o),
(210,303,cs),
(210,658,l),
(60,658,l),
(60,782,l),
(210,782,l),
(210,958,l),
(60,958,l),
(60,1082,l),
(210,1082,l),
(210,1316,l),
(360,1316,l),
(360,1082,l),
(560,1082,l),
(560,958,l),
(360,958,l),
(360,782,l),
(560,782,l)
);
}
);
};
layerId = m001;
shapes = (
{
closed = 1;
nodes = (
(560,658,l),
(360,658,l),
(360,303,ls),
(360,220,o),
(360,195,o),
(369,173,cs),
(385,134,o),
(419,118,o),
(455,118,cs),
(494,118,o),
(538,134,o),
(569,150,c),
(627,26,l),
(572,2,o),
(521,-16,o),
(445,-16,cs),
(332,-16,o),
(250,41,o),
(221,142,cs),
(210,180,o),
(210,218,o),
(210,303,cs),
(210,658,l),
(60,658,l),
(60,782,l),
(210,782,l),
(210,958,l),
(60,958,l),
(60,1082,l),
(210,1082,l),
(210,1316,l),
(360,1316,l),
(360,1082,l),
(560,1082,l),
(560,958,l),
(360,958,l),
(360,782,l),
(560,782,l)
);
}
);
userData = {
com.fontlab.hintData = {
hhints = (
{
position = -16;
width = 134;
},
{
position = 658;
width = 124;
},
{
position = 958;
width = 124;
}
);
vhints = (
{
position = 210;
width = 150;
}
);
};
};
width = 687;
}
);
unicode = 359;
}
{
color = 2;
glyphname = Umacron;
layers = (
{
layerId = m001;
shapes = (
{
closed = 1;
nodes = (
(943,1720,l),
(943,1586,l),
(373,1586,l),
(373,1720,l)
);
},
{
pos = (20,0);
ref = U;
}
);
userData = {
com.fontlab.hintData = {
hhints = (
{
position = -19;
width = 140;
},
{
position = 1396;
width = 20;
},
{
position = 1586;
width = 134;
}
);
vhints = (
{
position = 180;
width = 156;
},
{
position = 940;
width = 156;
}
);
};
};
width = 1236;
}
);
unicode = 362;
}
{
color = 2;
glyphname = umacron;
layers = (
{
layerId = m001;
shapes = (
{
closed = 1;
nodes = (
(870,1386,l),
(870,1252,l),
(300,1252,l),
(300,1386,l)
);
},
{
pos = (20,0);
ref = u;
}
);
userData = {
com.fontlab.hintData = {
hhints = (
{
position = -16;
width = 134;
},
{
position = 1062;
width = 20;
},
{
position = 1252;
width = 134;
}
);
vhints = (
{
position = 170;
width = 150;
},
{
position = 810;
width = 150;
}
);
};
};
width = 1100;
}
);
unicode = 363;
}
{
color = 4;
glyphname = Uogonek;
layers = (
{
background = {
shapes = (
{
closed = 1;
nodes = (
(531,-267,o),
(561,-306,o),
(612,-306,cs),
(640,-306,o),
(668,-293,o),
(686,-281,c),
(751,-391,l),
(713,-413,o),
(667,-430,o),
(612,-430,cs),
(482,-430,o),
(407,-340,o),
(407,-237,cs),
(407,-136,o),
(479,-65,o),
(567,-15,c),
(432,-6,o),
(331,58,o),
(264,137,cs),
(160,265,o),
(160,405,o),
(160,571,cs),
(160,1416,l),
(316,1416,l),
(316,571,ls),
(316,428,o),
(316,308,o),
(390,219,cs),
(439,160,o),
(517,121,o),
(618,121,cs),
(719,121,o),
(797,160,o),
(846,219,cs),
(920,308,o),
(920,428,o),
(920,571,cs),
(920,1416,l),
(1076,1416,l),
(1076,571,ls),
(1076,405,o),
(1076,265,o),
(972,137,cs),
(916,69,o),
(833,16,o),
(730,-7,cs),
(647,-25,o),
(531,-105,o),
(531,-216,cs)
);
}
);
};
layerId = m001;
shapes = (
{
ref = U;
},
{
pos = (288,0);
ref = ogonekcomb;
}
);
userData = {
com.fontlab.hintData = {
hhints = (
{
position = -430;
width = 124;
},
{
position = 1396;
width = 20;
}
);
vhints = (
{
position = 160;
width = 156;
},
{
position = 407;
width = 124;
},
{
position = 920;
width = 156;
}
);
};
};
width = 1236;
}
);
unicode = 370;
}
{
glyphname = uogonek;
layers = (
{
layerId = m001;
shapes = (
{
closed = 1;
nodes = (
(418,-267,o),
(448,-306,o),
(499,-306,cs),
(527,-306,o),
(555,-293,o),
(573,-281,c),
(638,-391,l),
(600,-413,o),
(554,-430,o),
(499,-430,cs),
(369,-430,o),
(294,-340,o),
(294,-237,cs),
(294,-131.124,o),
(364.015,-57.031,o),
(447.147,-5.968,c),
(318.134,21.55,o),
(220.561,104.03,o),
(177,221,cs),
(150,293,o),
(150,364,o),
(150,437,cs),
(150,1082,l),
(300,1082,l),
(300,437,ls),
(300,340,o),
(300,266,o),
(358,198,cs),
(398,151,o),
(463,118,o),
(545,118,cs),
(627,118,o),
(692,151,o),
(732,198,cs),
(790,266,o),
(790,340,o),
(790,437,cs),
(790,1082,l),
(940,1082,l),
(940,437,ls),
(940,364,o),
(940,293,o),
(913,221,cs),
(863.104,87.019,o),
(742.343,-1.711,o),
(584.641,-14.423,c),
(506.919,-49.827,o),
(418,-115.727,o),
(418,-216,cs)
);
}
);
userData = {
com.fontlab.hintData = {
hhints = (
{
position = -430;
width = 124;
},
{
position = -16;
width = 134;
},
{
position = 1062;
width = 20;
}
);
vhints = (
{
position = 150;
width = 150;
},
{
position = 294;
width = 124;
},
{
position = 790;
width = 150;
}
);
};
};
width = 1100;
}
);
unicode = 371;
}
{
color = 4;
glyphname = Zacute;
layers = (
{
background = {
shapes = (
{
closed = 1;
nodes = (
(561,1556,l),
(403,1556,l),
(557,1830,l),
(726,1830,l)
);
},
{
ref = Z;
}
);
};
layerId = m001;
shapes = (
{
ref = Z;
},
{
pos = (283,334);
ref = acutecomb;
}
);
userData = {
com.fontlab.hintData = {
hhints = (
{
position = 0;
width = 140;
},
{
position = 1276;
width = 140;
}
);
};
};
width = 1027;
}
);
unicode = 377;
}
{
color = 4;
glyphname = zacute;
layers = (
{
background = {
shapes = (
{
closed = 1;
nodes = (
(487,1222,l),
(329,1222,l),
(483,1496,l),
(652,1496,l)
);
},
{
ref = z;
}
);
};
layerId = m001;
shapes = (
{
ref = z;
},
{
pos = (209,0);
ref = acutecomb;
}
);
userData = {
com.fontlab.hintData = {
hhints = (
{
position = 0;
width = 134;
},
{
position = 948;
width = 134;
}
);
};
};
width = 880;
}
);
unicode = 378;
}
{
glyphname = longs;
layers = (
{
background = {
shapes = (
{
closed = 1;
nodes = (
(160,1248,o),
(160,1325,o),
(215,1403,cs),
(260,1466,o),
(338,1512,o),
(445,1512,cs),
(491,1512,o),
(540,1504,o),
(585,1495,c),
(558,1363,l),
(525,1371,o),
(480,1378,o),
(445,1378,cs),
(395,1378,o),
(363,1361,o),
(341,1330,cs),
(310,1286,o),
(310,1234,o),
(310,1143,cs),
(310,0,l),
(160,0,l),
(160,1143,ls)
);
}
);
};
layerId = m001;
shapes = (
{
closed = 1;
nodes = (
(160,1248,o),
(160,1325,o),
(215,1403,cs),
(260,1466,o),
(338,1512,o),
(445,1512,cs),
(491,1512,o),
(540,1504,o),
(585,1495,c),
(558,1363,l),
(525,1371,o),
(480,1378,o),
(445,1378,cs),
(395,1378,o),
(363,1361,o),
(341,1330,cs),
(310,1286,o),
(310,1234,o),
(310,1143,cs),
(310,0,l),
(160,0,l),
(160,1143,ls)
);
}
);
userData = {
com.fontlab.hintData = {
hhints = (
{
position = 0;
width = 21;
},
{
position = 1378;
width = 134;
}
);
vhints = (
{
position = 160;
width = 150;
}
);
};
};
width = 565;
}
);
unicode = 383;
}
{
glyphname = Schwa;
layers = (
{
background = {
shapes = (
{
closed = 1;
nodes = (
(827,1435,o),
(974,1334,o),
(1045,1178,cs),
(1102,1053,o),
(1106,876,o),
(1106,708,cs),
(1106,543,o),
(1103,367,o),
(1045,238,cs),
(977,86,o),
(832,-19,o),
(618,-19,cs),
(404,-19,o),
(259,85,o),
(191,238,cs),
(131,373,o),
(130,544,o),
(130,742,c),
(950,742,l),
(949,882,o),
(943,1025,o),
(900,1125,cs),
(854,1230,o),
(763,1295,o),
(618,1295,cs),
(498,1295,o),
(404,1251,o),
(324,1194,c),
(244,1314,l),
(339,1381,o),
(464,1435,o),
(618,1435,cs)
);
},
{
closed = 1;
nodes = (
(287,602,l),
(290,476,o),
(300,373,o),
(336,291,cs),
(382,186,o),
(473,121,o),
(618,121,cs),
(763,121,o),
(854,186,o),
(900,291,cs),
(936,374,o),
(946,486,o),
(949,602,c)
);
}
);
};
layerId = m001;
shapes = (
{
closed = 1;
nodes = (
(827,1435,o),
(974,1334,o),
(1045,1178,cs),
(1102,1053,o),
(1106,876,o),
(1106,708,cs),
(1106,543,o),
(1103,367,o),
(1045,238,cs),
(977,86,o),
(832,-19,o),
(618,-19,cs),
(404,-19,o),
(259,85,o),
(191,238,cs),
(131,373,o),
(130,544,o),
(130,742,c),
(950,742,l),
(949,882,o),
(943,1025,o),
(900,1125,cs),
(854,1230,o),
(763,1295,o),
(618,1295,cs),
(498,1295,o),
(404,1251,o),
(324,1194,c),
(244,1314,l),
(339,1381,o),
(464,1435,o),
(618,1435,cs)
);
},
{
closed = 1;
nodes = (
(287,602,l),
(290,476,o),
(300,373,o),
(336,291,cs),
(382,186,o),
(473,121,o),
(618,121,cs),
(763,121,o),
(854,186,o),
(900,291,cs),
(936,374,o),
(946,486,o),
(949,602,c)
);
}
);
userData = {
com.fontlab.hintData = {
hhints = (
{
position = -19;
width = 140;
},
{
position = 602;
width = 140;
},
{
position = 1295;
width = 140;
}
);
vhints = (
{
position = 130;
width = 157;
},
{
position = 949;
width = 157;
}
);
};
};
width = 1236;
}
);
unicode = 399;
}
{
glyphname = florin;
layers = (
{
layerId = m001;
shapes = (
{
closed = 1;
nodes = (
(210,1248,o),
(210,1325,o),
(265,1403,cs),
(310,1466,o),
(388,1512,o),
(495,1512,cs),
(541,1512,o),
(590,1504,o),
(635,1495,c),
(608,1363,l),
(575,1371,o),
(530,1378,o),
(495,1378,cs),
(445,1378,o),
(413,1361,o),
(391,1330,cs),
(360,1286,o),
(360,1234,o),
(360,1143,cs),
(360,1082,l),
(560,1082,l),
(560,958,l),
(360,958,l),
(360,-119,ls),
(360,-206,o),
(360,-256,o),
(327,-315,cs),
(288,-385,o),
(211,-428,o),
(115,-428,cs),
(69,-428,o),
(30,-420,o),
(-6,-409,c),
(32,-279,l),
(56,-287,o),
(85,-294,o),
(115,-294,cs),
(154,-294,o),
(178,-280,o),
(193,-254,cs),
(208,-228,o),
(210,-206,o),
(210,-119,cs),
(210,958,l),
(60,958,l),
(60,1082,l),
(210,1082,l),
(210,1143,ls)
);
}
);
userData = {
com.fontlab.hintData = {
hhints = (
{
position = -428;
width = 134;
},
{
position = 958;
width = 124;
},
{
position = 1378;
width = 134;
}
);
vhints = (
{
position = 210;
width = 150;
}
);
};
};
width = 615;
}
);
unicode = 402;
}
{
color = 4;
glyphname = Ohorn;
layers = (
{
background = {
anchors = (
{
name = bottom;
pos = (628,0);
},
{
name = top;
pos = (628,1416);
}
);
shapes = (
{
closed = 1;
nodes = (
(483,1295,o),
(387,1229,o),
(340,1127,cs),
(287,1012,o),
(286,850,o),
(286,708,cs),
(286,566,o),
(287,404,o),
(340,289,cs),
(387,187,o),
(483,121,o),
(628,121,cs),
(773,121,o),
(869,187,o),
(916,289,cs),
(969,404,o),
(970,566,o),
(970,708,cs),
(970,850,o),
(969,1012,o),
(916,1127,cs),
(869,1229,o),
(773,1295,o),
(628,1295,cs)
);
},
{
closed = 1;
nodes = (
(1126,996,o),
(1126,839,o),
(1126,708,cs),
(1126,560,o),
(1126,378,o),
(1060,236,cs),
(991,87,o),
(844,-19,o),
(628,-19,cs),
(412,-19,o),
(265,87,o),
(196,236,cs),
(130,378,o),
(130,560,o),
(130,708,cs),
(130,856,o),
(130,1038,o),
(196,1180,cs),
(265,1329,o),
(412,1435,o),
(628,1435,cs),
(818,1435,o),
(954,1353,o),
(1031,1232,c),
(1107,1259,o),
(1130,1331,o),
(1130,1425,cs),
(1130,1550,l),
(1270,1550,l),
(1270,1425,ls),
(1270,1347,o),
(1265,1282,o),
(1207,1212,cs),
(1177,1176,o),
(1133,1146,o),
(1080,1129,c)
);
}
);
};
layerId = m001;
shapes = (
{
ref = O;
},
{
pos = (855,82);
ref = horncomb;
}
);
userData = {
com.fontlab.hintData = {
hhints = (
{
position = -19;
width = 140;
},
{
position = 1295;
width = 140;
}
);
vhints = (
{
position = 130;
width = 156;
},
{
position = 970;
width = 156;
},
{
position = 1130;
width = 140;
}
);
};
};
width = 1256;
}
);
unicode = 416;
}
{
color = 4;
glyphname = ohorn;
layers = (
{
background = {
anchors = (
{
name = bottom;
pos = (550,0);
},
{
name = top;
pos = (550,1082);
}
);
shapes = (
{
closed = 1;
nodes = (
(984,931,o),
(1004,1000,o),
(1004,1091,cs),
(1004,1216,l),
(1144,1216,l),
(1144,1091,ls),
(1144,1013,o),
(1139,948,o),
(1081,878,cs),
(1051,842,o),
(1007,812,o),
(954,795,c),
(975,712,o),
(975,625,o),
(975,541,cs),
(975,394,o),
(975,234,o),
(863,110,cs),
(797,37,o),
(687,-16,o),
(550,-16,cs),
(413,-16,o),
(303,37,o),
(237,110,cs),
(125,234,o),
(125,394,o),
(125,541,cs),
(125,688,o),
(125,848,o),
(237,972,cs),
(303,1045,o),
(413,1098,o),
(550,1098,cs),
(727,1098,o),
(850,1015,o),
(913,901,c)
);
},
{
closed = 1;
nodes = (
(461,964,o),
(392,932,o),
(351,885,cs),
(275,798,o),
(275,669,o),
(275,541,cs),
(275,413,o),
(275,284,o),
(351,197,cs),
(392,150,o),
(461,118,o),
(550,118,cs),
(639,118,o),
(708,150,o),
(749,197,cs),
(825,284,o),
(825,413,o),
(825,541,cs),
(825,669,o),
(825,798,o),
(749,885,cs),
(708,932,o),
(639,964,o),
(550,964,cs)
);
}
);
};
layerId = m001;
shapes = (
{
ref = o;
},
{
pos = (729,-252);
ref = horncomb;
}
);
userData = {
com.fontlab.hintData = {
hhints = (
{
position = -16;
width = 134;
},
{
position = 964;
width = 134;
}
);
vhints = (
{
position = 125;
width = 150;
},
{
position = 825;
width = 150;
},
{
position = 1004;
width = 140;
}
);
};
};
width = 1100;
}
);
unicode = 417;
}
{
color = 4;
glyphname = Uhorn;
kernLeft = U;
kernRight = U;
layers = (
{
background = {
anchors = (
{
name = bottom;
pos = (618,0);
},
{
name = top;
pos = (618,1416);
}
);
shapes = (
{
closed = 1;
nodes = (
(316,1416,l),
(316,515,ls),
(316,430,o),
(316,369,o),
(336,310,cs),
(385,166,o),
(516,121,o),
(618,121,cs),
(720,121,o),
(851,166,o),
(900,310,cs),
(920,369,o),
(920,430,o),
(920,515,cs),
(920,1416,l),
(1076,1416,l),
(1076,1223,l),
(1126,1223,o),
(1165,1243,o),
(1190,1273,cs),
(1227,1318,o),
(1230,1357,o),
(1230,1425,cs),
(1230,1550,l),
(1370,1550,l),
(1370,1425,ls),
(1370,1347,o),
(1365,1282,o),
(1307,1212,cs),
(1259,1154,o),
(1176,1113,o),
(1076,1113,c),
(1076,515,ls),
(1076,425,o),
(1076,349,o),
(1050,270,cs),
(982,63,o),
(804,-19,o),
(618,-19,cs),
(432,-19,o),
(254,63,o),
(186,270,cs),
(160,349,o),
(160,425,o),
(160,515,cs),
(160,1416,l)
);
}
);
};
layerId = m001;
shapes = (
{
ref = U;
},
{
pos = (955,82);
ref = horncomb;
}
);
userData = {
com.fontlab.hintData = {
hhints = (
{
position = -19;
width = 140;
},
{
position = 1113;
width = 110;
},
{
position = 1396;
width = 20;
}
);
vhints = (
{
position = 160;
width = 156;
},
{
position = 920;
width = 156;
},
{
position = 1230;
width = 140;
}
);
};
};
width = 1236;
}
);
unicode = 431;
}
{
color = 4;
glyphname = uhorn;
layers = (
{
background = {
shapes = (
{
closed = 1;
nodes = (
(300,1082,l),
(300,457,ls),
(300,370,o),
(300,322,o),
(315,276,cs),
(349,170,o),
(442,118,o),
(545,118,cs),
(648,118,o),
(741,170,o),
(775,276,cs),
(790,322,o),
(790,370,o),
(790,457,cs),
(790,1082,l),
(940,1082,l),
(940,889,l),
(990,889,o),
(1029,909,o),
(1054,939,cs),
(1091,984,o),
(1094,1023,o),
(1094,1091,cs),
(1094,1216,l),
(1234,1216,l),
(1234,1091,ls),
(1234,1013,o),
(1229,948,o),
(1171,878,cs),
(1123,820,o),
(1040,779,o),
(940,779,c),
(940,447,ls),
(940,366,o),
(940,292,o),
(913,219,cs),
(857,67,o),
(724,-16,o),
(545,-16,cs),
(366,-16,o),
(233,67,o),
(177,219,cs),
(150,292,o),
(150,366,o),
(150,447,cs),
(150,1082,l)
);
}
);
};
layerId = m001;
shapes = (
{
ref = u;
},
{
pos = (819,-252);
ref = horncomb;
}
);
userData = {
com.fontlab.hintData = {
hhints = (
{
position = -16;
width = 134;
},
{
position = 779;
width = 110;
},
{
position = 1062;
width = 20;
}
);
vhints = (
{
position = 150;
width = 150;
},
{
position = 790;
width = 150;
},
{
position = 1094;
width = 140;
}
);
};
};
width = 1100;
}
);
unicode = 432;
}
{
color = 2;
glyphname = Udieresismacron;
layers = (
{
layerId = m001;
shapes = (
{
closed = 1;
nodes = (
(903,2025,l),
(903,1891,l),
(333,1891,l),
(333,2025,l)
);
},
{
ref = Udieresis;
}
);
userData = {
com.fontlab.hintData = {
hhints = (
{
position = -19;
width = 140;
},
{
position = 1396;
width = 20;
},
{
position = 1581;
width = 188;
},
{
position = 1891;
width = 134;
}
);
vhints = (
{
position = 160;
width = 156;
},
{
position = 333;
width = 188;
},
{
position = 715;
width = 188;
},
{
position = 920;
width = 156;
}
);
};
};
width = 1236;
}
);
unicode = 469;
}
{
color = 2;
glyphname = udieresismacron;
layers = (
{
layerId = m001;
shapes = (
{
closed = 1;
nodes = (
(830,1691,l),
(830,1557,l),
(260,1557,l),
(260,1691,l)
);
},
{
ref = udieresis;
}
);
userData = {
com.fontlab.hintData = {
hhints = (
{
position = -16;
width = 134;
},
{
position = 1062;
width = 20;
},
{
position = 1247;
width = 188;
},
{
position = 1557;
width = 134;
}
);
vhints = (
{
position = 150;
width = 150;
},
{
position = 260;
width = 188;
},
{
position = 642;
width = 188;
},
{
position = 790;
width = 150;
}
);
};
};
width = 1100;
}
);
unicode = 470;
}
{
color = 4;
glyphname = udieresisacute;
kernLeft = u;
kernRight = u;
layers = (
{
background = {
shapes = (
{
closed = 1;
nodes = (
(624,1557,l),
(466,1557,l),
(620,1831,l),
(789,1831,l)
);
},
{
ref = udieresis;
}
);
};
layerId = m001;
shapes = (
{
ref = u;
},
{
alignment = 1;
pos = (140,0);
ref = dieresiscomb;
},
{
pos = (314,335);
ref = acutecomb;
}
);
userData = {
com.fontlab.hintData = {
hhints = (
{
position = -16;
width = 134;
},
{
position = 1062;
width = 20;
},
{
position = 1247;
width = 188;
}
);
vhints = (
{
position = 150;
width = 150;
},
{
position = 260;
width = 188;
},
{
position = 642;
width = 188;
},
{
position = 790;
width = 150;
}
);
};
};
width = 1100;
}
);
unicode = 472;
}
{
color = 4;
glyphname = Udieresisgrave;
layers = (
{
background = {
shapes = (
{
closed = 1;
nodes = (
(543,2165,l),
(697,1891,l),
(539,1891,l),
(374,2165,l)
);
},
{
ref = Udieresis;
}
);
};
layerId = m001;
shapes = (
{
ref = U;
},
{
alignment = 1;
pos = (213,334);
ref = dieresiscomb;
},
{
pos = (284,669);
ref = gravecomb;
}
);
userData = {
com.fontlab.hintData = {
hhints = (
{
position = -19;
width = 140;
},
{
position = 1396;
width = 20;
},
{
position = 1581;
width = 188;
}
);
vhints = (
{
position = 160;
width = 156;
},
{
position = 333;
width = 188;
},
{
position = 715;
width = 188;
},
{
position = 920;
width = 156;
}
);
};
};
width = 1236;
}
);
unicode = 475;
}
{
color = 4;
glyphname = udieresisgrave;
layers = (
{
background = {
shapes = (
{
closed = 1;
nodes = (
(470,1831,l),
(624,1557,l),
(466,1557,l),
(301,1831,l)
);
},
{
ref = udieresis;
}
);
};
layerId = m001;
shapes = (
{
ref = u;
},
{
alignment = 1;
pos = (140,0);
ref = dieresiscomb;
},
{
pos = (211,335);
ref = gravecomb;
}
);
userData = {
com.fontlab.hintData = {
hhints = (
{
position = -16;
width = 134;
},
{
position = 1062;
width = 20;
},
{
position = 1247;
width = 188;
}
);
vhints = (
{
position = 150;
width = 150;
},
{
position = 260;
width = 188;
},
{
position = 642;
width = 188;
},
{
position = 790;
width = 150;
}
);
};
};
width = 1100;
}
);
unicode = 476;
}
{
color = 4;
glyphname = Gacute;
kernLeft = O;
kernRight = G;
layers = (
{
background = {
shapes = (
{
closed = 1;
nodes = (
(665,1556,l),
(507,1556,l),
(661,1830,l),
(830,1830,l)
);
},
{
ref = G;
}
);
};
layerId = m001;
shapes = (
{
ref = G;
},
{
pos = (387,334);
ref = acutecomb;
}
);
userData = {
com.fontlab.hintData = {
hhints = (
{
position = -19;
width = 140;
},
{
position = 602;
width = 140;
},
{
position = 1295;
width = 140;
}
);
vhints = (
{
position = 130;
width = 156;
},
{
position = 949;
width = 157;
}
);
};
};
width = 1236;
}
);
unicode = 500;
}
{
color = 2;
glyphname = gacute;
layers = (
{
layerId = m001;
shapes = (
{
closed = 1;
nodes = (
(567,1222,l),
(409,1222,l),
(563,1496,l),
(732,1496,l)
);
},
{
ref = g;
}
);
userData = {
com.fontlab.hintData = {
hhints = (
{
position = -427;
width = 134;
},
{
position = -16;
width = 134;
},
{
position = 964;
width = 134;
},
{
position = 1062;
width = 20;
}
);
vhints = (
{
position = 125;
width = 150;
},
{
position = 805;
width = 150;
}
);
};
};
width = 1115;
}
);
unicode = 501;
}
{
glyphname = jdotless;
layers = (
{
anchors = (
{
name = bottom;
pos = (80,-414);
},
{
name = top;
pos = (240,1082);
}
);
background = {
anchors = (
{
name = bottom;
pos = (80,-414);
},
{
name = top;
pos = (240,1082);
}
);
shapes = (
{
closed = 1;
nodes = (
(315,-191,o),
(315,-228,o),
(305,-264,cs),
(277,-363,o),
(190,-428,o),
(80,-428,cs),
(33,-428,o),
(-13,-421,o),
(-51,-409,c),
(-13,-279,l),
(11,-287,o),
(41,-294,o),
(70,-294,cs),
(115,-294,o),
(142,-273,o),
(155,-240,cs),
(165,-215,o),
(165,-184,o),
(165,-129,cs),
(165,1082,l),
(315,1082,l),
(315,-134,ls)
);
}
);
};
layerId = m001;
shapes = (
{
closed = 1;
nodes = (
(315,-191,o),
(315,-228,o),
(305,-264,cs),
(277,-363,o),
(190,-428,o),
(80,-428,cs),
(33,-428,o),
(-13,-421,o),
(-51,-409,c),
(-13,-279,l),
(11,-287,o),
(41,-294,o),
(70,-294,cs),
(115,-294,o),
(142,-273,o),
(155,-240,cs),
(165,-215,o),
(165,-184,o),
(165,-129,cs),
(165,1082,l),
(315,1082,l),
(315,-134,ls)
);
}
);
userData = {
com.fontlab.hintData = {
hhints = (
{
position = -428;
width = 134;
},
{
position = 1062;
width = 20;
}
);
vhints = (
{
position = 165;
width = 150;
}
);
};
};
width = 480;
}
);
unicode = 567;
}
{
glyphname = caron;
layers = (
{
anchors = (
{
name = _top;
pos = (431,1082);
}
);
background = {
anchors = (
{
name = _top;
pos = (431,1082);
}
);
shapes = (
{
angle = 180;
pos = (862,2718);
ref = circumflex;
}
);
};
layerId = m001;
shapes = (
{
closed = 1;
nodes = (
(431,1356,l),
(571,1494,l),
(742,1494,l),
(484,1220,l),
(378,1220,l),
(120,1494,l),
(291,1494,l)
);
}
);
userData = {
com.fontlab.hintData = {
hhints = (
{
position = 1222;
width = 274;
}
);
vhints = (
{
position = 120;
width = 622;
}
);
};
};
width = 862;
}
);
unicode = 711;
}
{
glyphname = breve;
layers = (
{
anchors = (
{
name = _Top;
pos = (374,1082);
}
);
layerId = m001;
shapes = (
{
closed = 1;
nodes = (
(250,1496,l),
(250,1381,o),
(312,1332,o),
(375,1332,cs),
(438,1332,o),
(500,1381,o),
(500,1496,c),
(640,1496,l),
(640,1344,o),
(542,1208,o),
(375,1208,cs),
(208,1208,o),
(110,1344,o),
(110,1496,c)
);
}
);
userData = {
com.fontlab.hintData = {
hhints = (
{
position = 1208;
width = 124;
}
);
vhints = (
{
position = 110;
width = 140;
},
{
position = 500;
width = 140;
}
);
};
};
width = 750;
}
);
unicode = 728;
}
{
glyphname = dotaccent;
layers = (
{
anchors = (
{
name = _bottom;
pos = (222,1632);
},
{
name = _top;
pos = (223,1082);
}
);
background = {
anchors = (
{
name = _bottom;
pos = (222,1632);
},
{
name = _top;
pos = (223,1082);
}
);
shapes = (
{
closed = 1;
nodes = (
(284,1454,o),
(326,1410,o),
(326,1350,cs),
(326,1289,o),
(284,1247,o),
(223,1247,cs),
(162,1247,o),
(120,1289,o),
(120,1350,cs),
(120,1410,o),
(162,1454,o),
(223,1454,cs)
);
}
);
};
layerId = m001;
shapes = (
{
closed = 1;
nodes = (
(284,1454,o),
(326,1410,o),
(326,1350,cs),
(326,1289,o),
(284,1247,o),
(223,1247,cs),
(162,1247,o),
(120,1289,o),
(120,1350,cs),
(120,1410,o),
(162,1454,o),
(223,1454,cs)
);
}
);
userData = {
com.fontlab.hintData = {
hhints = (
{
position = 1247;
width = 207;
}
);
vhints = (
{
position = 120;
width = 206;
}
);
};
};
width = 446;
}
);
unicode = 729;
}
{
glyphname = ring;
layers = (
{
anchors = (
{
name = _Center;
pos = (308,1082);
}
);
layerId = m001;
shapes = (
{
closed = 1;
nodes = (
(261,1282,o),
(226,1252,o),
(226,1194,cs),
(226,1136,o),
(261,1107,o),
(308,1107,cs),
(355,1107,o),
(390,1136,o),
(390,1194,cs),
(390,1252,o),
(355,1282,o),
(308,1282,cs)
);
},
{
closed = 1;
nodes = (
(420,1377,o),
(496,1295,o),
(496,1194,cs),
(496,1093,o),
(420,1012,o),
(308,1012,cs),
(196,1012,o),
(120,1093,o),
(120,1194,cs),
(120,1295,o),
(196,1377,o),
(308,1377,cs)
);
}
);
userData = {
com.fontlab.hintData = {
hhints = (
{
position = 1012;
width = 95;
},
{
position = 1282;
width = 95;
}
);
vhints = (
{
position = 120;
width = 106;
},
{
position = 390;
width = 106;
}
);
};
};
width = 616;
}
);
unicode = 730;
}
{
glyphname = ogonek;
layers = (
{
anchors = (
{
name = _bottom;
pos = (371,0);
}
);
background = {
anchors = (
{
name = _bottom;
pos = (371,0);
}
);
shapes = (
{
closed = 1;
nodes = (
(244,-267,o),
(274,-306,o),
(325,-306,cs),
(353,-306,o),
(381,-293,o),
(399,-281,c),
(464,-391,l),
(426,-413,o),
(380,-430,o),
(325,-430,cs),
(195,-430,o),
(120,-340,o),
(120,-237,cs),
(120,-81,o),
(272,6,o),
(394,52,c),
(446,0,l),
(363,-30,o),
(244,-100,o),
(244,-216,cs)
);
}
);
};
layerId = m001;
shapes = (
{
closed = 1;
nodes = (
(244,-267,o),
(274,-306,o),
(325,-306,cs),
(353,-306,o),
(381,-293,o),
(399,-281,c),
(464,-391,l),
(426,-413,o),
(380,-430,o),
(325,-430,cs),
(195,-430,o),
(120,-340,o),
(120,-237,cs),
(120,-81,o),
(272,6,o),
(394,52,c),
(446,0,l),
(363,-30,o),
(244,-100,o),
(244,-216,cs)
);
}
);
userData = {
com.fontlab.hintData = {
hhints = (
{
position = -430;
width = 124;
}
);
vhints = (
{
position = 120;
width = 124;
}
);
};
};
width = 584;
}
);
unicode = 731;
}
{
glyphname = hungarumlaut;
layers = (
{
anchors = (
{
name = _top;
pos = (360,1082);
}
);
background = {
anchors = (
{
name = _top;
pos = (360,1082);
}
);
shapes = (
{
closed = 1;
nodes = (
(556,1222,l),
(408,1222,l),
(561,1496,l),
(720,1496,l)
);
},
{
closed = 1;
nodes = (
(258,1222,l),
(110,1222,l),
(263,1496,l),
(422,1496,l)
);
}
);
};
layerId = m001;
shapes = (
{
closed = 1;
nodes = (
(556,1222,l),
(408,1222,l),
(561,1496,l),
(720,1496,l)
);
},
{
closed = 1;
nodes = (
(258,1222,l),
(110,1222,l),
(263,1496,l),
(422,1496,l)
);
}
);
userData = {
com.fontlab.hintData = {
hhints = (
{
position = 1222;
width = 274;
}
);
vhints = (
{
position = 110;
width = 610;
}
);
};
};
width = 850;
}
);
unicode = 733;
}
{
glyphname = gravecomb;
layers = (
{
anchors = (
{
name = _top;
pos = (334,1082);
},
{
name = top;
pos = (282,1496);
}
);
background = {
anchors = (
{
name = _top;
pos = (334,1082);
}
);
shapes = (
{
ref = grave;
}
);
};
layerId = m001;
shapes = (
{
closed = 1;
nodes = (
(289,1496,l),
(443,1222,l),
(285,1222,l),
(120,1496,l)
);
}
);
userData = {
com.fontlab.hintData = {
hhints = (
{
position = 1222;
width = 274;
}
);
vhints = (
{
position = 120;
width = 323;
}
);
};
};
width = 563;
}
);
unicode = 768;
}
{
glyphname = acutecomb;
layers = (
{
anchors = (
{
name = _top;
pos = (231,1082);
},
{
name = top;
pos = (282,1496);
}
);
background = {
anchors = (
{
name = _top;
pos = (231,1082);
}
);
shapes = (
{
ref = acute;
}
);
};
layerId = m001;
shapes = (
{
closed = 1;
nodes = (
(278,1222,l),
(120,1222,l),
(274,1496,l),
(443,1496,l)
);
}
);
userData = {
com.fontlab.hintData = {
hhints = (
{
position = 1222;
width = 274;
}
);
vhints = (
{
position = 120;
width = 323;
}
);
};
};
width = 563;
}
);
unicode = 769;
}
{
glyphname = circumflexcomb;
layers = (
{
anchors = (
{
name = _top;
pos = (431,1082);
},
{
name = top;
pos = (431,1477);
}
);
background = {
anchors = (
{
name = _top;
pos = (431,1082);
}
);
shapes = (
{
ref = asciicircum;
}
);
};
layerId = m001;
shapes = (
{
closed = 1;
nodes = (
(431,1360,l),
(291,1222,l),
(120,1222,l),
(378,1496,l),
(484,1496,l),
(742,1222,l),
(571,1222,l)
);
}
);
userData = {
com.fontlab.hintData = {
hhints = (
{
position = 1222;
width = 274;
}
);
vhints = (
{
position = 120;
width = 622;
}
);
};
};
width = 862;
}
);
unicode = 770;
}
{
glyphname = hookabovecomb;
layers = (
{
anchors = (
{
name = _top;
pos = (309,1082);
},
{
name = top;
pos = (331,1544);
}
);
background = {
anchors = (
{
name = _top;
pos = (309,1082);
}
);
shapes = (
{
closed = 1;
nodes = (
(218,1538,o),
(248,1544,o),
(277,1544,cs),
(343,1544,o),
(393,1518,o),
(425,1481,cs),
(453.738,1447.77,o),
(468,1407,o),
(468,1366,cs),
(468,1310,o),
(443,1268,o),
(407,1241,cs),
(370.357,1213.52,o),
(328,1209,o),
(280,1209,c),
(280,1307,l),
(309,1307,o),
(323.877,1308.35,o),
(337,1319,cs),
(350,1329.55,o),
(358,1347.65,o),
(358,1371,cs),
(358,1392.56,o),
(347.905,1417.71,o),
(329,1431,cs),
(317,1439.44,o),
(302,1446,o),
(277,1446,cs),
(259,1446,o),
(242,1443,o),
(223,1436,c),
(193,1530,l)
);
}
);
};
layerId = m001;
shapes = (
{
closed = 1;
nodes = (
(218,1538,o),
(248,1544,o),
(277,1544,cs),
(343,1544,o),
(393,1518,o),
(425,1481,cs),
(453.738,1447.77,o),
(468,1407,o),
(468,1366,cs),
(468,1310,o),
(443,1268,o),
(407,1241,cs),
(370.357,1213.52,o),
(328,1209,o),
(280,1209,c),
(280,1307,l),
(309,1307,o),
(323.877,1308.35,o),
(337,1319,cs),
(350,1329.55,o),
(358,1347.65,o),
(358,1371,cs),
(358,1392.56,o),
(347.905,1417.71,o),
(329,1431,cs),
(317,1439.44,o),
(302,1446,o),
(277,1446,cs),
(259,1446,o),
(242,1443,o),
(223,1436,c),
(193,1530,l)
);
}
);
userData = {
com.fontlab.hintData = {
hhints = (
{
position = 1209;
width = 98;
},
{
position = 1446;
width = 98;
}
);
vhints = (
{
position = 358;
width = 110;
}
);
};
};
width = 616;
}
);
unicode = 777;
}
{
glyphname = ringcomb;
layers = (
{
anchors = (
{
name = _top;
pos = (309,1082);
},
{
name = top;
pos = (308,1377);
}
);
background = {
anchors = (
{
name = _top;
pos = (309,1082);
}
);
shapes = (
{
pos = (0,170);
ref = ring;
}
);
};
layerId = m001;
shapes = (
{
closed = 1;
nodes = (
(261,1459,o),
(226,1429,o),
(226,1371,cs),
(226,1313,o),
(261,1284,o),
(308,1284,cs),
(355,1284,o),
(390,1313,o),
(390,1371,cs),
(390,1429,o),
(355,1459,o),
(308,1459,cs)
);
},
{
closed = 1;
nodes = (
(420,1554,o),
(496,1472,o),
(496,1371,cs),
(496,1270,o),
(420,1189,o),
(308,1189,cs),
(196,1189,o),
(120,1270,o),
(120,1371,cs),
(120,1472,o),
(196,1554,o),
(308,1554,cs)
);
}
);
userData = {
com.fontlab.hintData = {
hhints = (
{
position = 1182;
width = 95;
},
{
position = 1452;
width = 95;
}
);
vhints = (
{
position = 120;
width = 106;
},
{
position = 390;
width = 106;
}
);
};
};
width = 616;
}
);
unicode = 778;
}
{
glyphname = caroncomb;
layers = (
{
anchors = (
{
name = _top;
pos = (431,1082);
},
{
name = top;
pos = (431,1507);
}
);
background = {
anchors = (
{
name = _top;
pos = (431,1082);
}
);
shapes = (
{
ref = caron;
}
);
};
layerId = m001;
shapes = (
{
closed = 1;
nodes = (
(431,1369,l),
(571,1507,l),
(742,1507,l),
(484,1233,l),
(378,1233,l),
(120,1507,l),
(291,1507,l)
);
}
);
userData = {
com.fontlab.hintData = {
hhints = (
{
position = 1222;
width = 274;
}
);
vhints = (
{
position = 120;
width = 622;
}
);
};
};
width = 862;
}
);
unicode = 780;
}
{
glyphname = dblgravecomb;
layers = (
{
anchors = (
{
name = _top;
pos = (490,1082);
},
{
name = top;
pos = (425,1496);
}
);
background = {
anchors = (
{
name = _top;
pos = (490,1082);
}
);
shapes = (
{
closed = 1;
nodes = (
(279,1496,l),
(432,1222,l),
(284,1222,l),
(120,1496,l)
);
},
{
closed = 1;
nodes = (
(577,1496,l),
(730,1222,l),
(582,1222,l),
(418,1496,l)
);
}
);
};
layerId = m001;
shapes = (
{
closed = 1;
nodes = (
(279,1496,l),
(432,1222,l),
(284,1222,l),
(120,1496,l)
);
},
{
closed = 1;
nodes = (
(577,1496,l),
(730,1222,l),
(582,1222,l),
(418,1496,l)
);
}
);
userData = {
com.fontlab.hintData = {
hhints = (
{
position = 1222;
width = 274;
}
);
vhints = (
{
position = 120;
width = 610;
}
);
};
};
width = 850;
}
);
unicode = 783;
}
{
glyphname = commaturnedabovecomb;
layers = (
{
anchors = (
{
name = _top;
pos = (217,1082);
},
{
name = top;
pos = (217,1536);
}
);
background = {
anchors = (
{
name = _top;
pos = (217,1082);
}
);
shapes = (
{
closed = 1;
nodes = (
(120,1330,o),
(133,1359,o),
(145,1383,cs),
(217,1536,l),
(309,1536,l),
(256,1387,ls),
(289,1375,o),
(313,1344,o),
(313,1301,cs),
(313,1246,o),
(270,1206,o),
(217,1206,cs),
(164,1206,o),
(120,1246,o),
(120,1301,cs)
);
}
);
};
layerId = m001;
shapes = (
{
closed = 1;
nodes = (
(120,1330,o),
(133,1359,o),
(145,1383,cs),
(217,1536,l),
(309,1536,l),
(256,1387,ls),
(289,1375,o),
(313,1344,o),
(313,1301,cs),
(313,1246,o),
(270,1206,o),
(217,1206,cs),
(164,1206,o),
(120,1246,o),
(120,1301,cs)
);
}
);
userData = {
com.fontlab.hintData = {
hhints = (
{
position = 1206;
width = 330;
}
);
vhints = (
{
position = 120;
width = 193;
}
);
};
};
width = 433;
}
);
unicode = 786;
}
{
glyphname = horncomb;
layers = (
{
anchors = (
{
name = _hook;
pos = (121,1117);
}
);
layerId = m001;
shapes = (
{
closed = 1;
nodes = (
(170.561,1141,o),
(209.905,1160.42,o),
(235,1191,cs),
(271.923,1236,o),
(275,1275,o),
(275,1343,cs),
(275,1468,l),
(415,1468,l),
(415,1343,ls),
(415,1265,o),
(410,1200,o),
(352,1130,cs),
(304.042,1072.12,o),
(220,1031,o),
(120,1031,cs),
(120,1141,ls)
);
}
);
userData = {
com.fontlab.hintData = {
hhints = (
{
position = 1031;
width = 110;
}
);
vhints = (
{
position = 275;
width = 140;
}
);
};
};
width = 535;
}
);
unicode = 795;
}
{
glyphname = dotbelowcomb;
layers = (
{
anchors = (
{
name = _bottom;
pos = (223,0);
},
{
name = bottom;
pos = (223,-375);
}
);
background = {
anchors = (
{
name = _bottom;
pos = (223,0);
}
);
shapes = (
{
pos = (0,-1619);
ref = dotaccent;
}
);
};
layerId = m001;
shapes = (
{
closed = 1;
nodes = (
(284,-168,o),
(326,-212,o),
(326,-272,cs),
(326,-333,o),
(284,-375,o),
(223,-375,cs),
(162,-375,o),
(120,-333,o),
(120,-272,cs),
(120,-212,o),
(162,-168,o),
(223,-168,cs)
);
}
);
userData = {
com.fontlab.hintData = {
hhints = (
{
position = -372;
width = 207;
}
);
vhints = (
{
position = 120;
width = 206;
}
);
};
};
width = 446;
}
);
unicode = 803;
}
{
glyphname = commaaccentcomb;
layers = (
{
anchors = (
{
name = _bottom;
pos = (215,0);
},
{
name = bottom;
pos = (216,-454);
}
);
background = {
anchors = (
{
name = _bottom;
pos = (215,0);
}
);
shapes = (
{
angle = 180;
pos = (433,1081);
ref = commaturnedabovecomb;
}
);
};
layerId = m001;
shapes = (
{
closed = 1;
nodes = (
(313,-248,o),
(300,-277,o),
(288,-301,cs),
(216,-454,l),
(124,-454,l),
(177,-305,ls),
(144,-293,o),
(120,-262,o),
(120,-219,cs),
(120,-164,o),
(163,-124,o),
(216,-124,cs),
(269,-124,o),
(313,-164,o),
(313,-219,cs)
);
}
);
userData = {
com.fontlab.hintData = {
hhints = (
{
position = -455;
width = 330;
}
);
vhints = (
{
position = 120;
width = 193;
}
);
};
};
width = 433;
}
);
unicode = 806;
}
{
glyphname = tonos;
layers = (
{
anchors = (
{
name = _top;
pos = (198,1082);
}
);
background = {
anchors = (
{
name = _top;
pos = (198,1082);
}
);
shapes = (
{
closed = 1;
nodes = (
(258,1222,l),
(132,1222,l),
(184,1496,l),
(354,1496,l)
);
}
);
};
layerId = m001;
shapes = (
{
closed = 1;
nodes = (
(258,1222,l),
(132,1222,l),
(184,1496,l),
(354,1496,l)
);
}
);
userData = {
com.fontlab.hintData = {
hhints = (
{
position = 1222;
width = 274;
}
);
vhints = (
{
position = 132;
width = 222;
}
);
};
};
width = 475;
}
);
unicode = 900;
}
{
glyphname = dieresistonos;
layers = (
{
anchors = (
{
name = _top;
pos = (445,1082);
}
);
background = {
anchors = (
{
name = _top;
pos = (445,1082);
}
);
shapes = (
{
closed = 1;
nodes = (
(503,1436,l),
(377,1436,l),
(429,1660,l),
(589,1660,l)
);
},
{
closed = 1;
nodes = (
(735,1415,o),
(770,1380,o),
(770,1331,cs),
(770,1282,o),
(735,1247,o),
(686,1247,cs),
(637,1247,o),
(602,1282,o),
(602,1331,cs),
(602,1380,o),
(637,1415,o),
(686,1415,cs)
);
},
{
closed = 1;
nodes = (
(253,1415,o),
(288,1380,o),
(288,1331,cs),
(288,1282,o),
(253,1247,o),
(204,1247,cs),
(155,1247,o),
(120,1282,o),
(120,1331,cs),
(120,1380,o),
(155,1415,o),
(204,1415,cs)
);
}
);
};
layerId = m001;
shapes = (
{
closed = 1;
nodes = (
(503,1436,l),
(377,1436,l),
(429,1660,l),
(589,1660,l)
);
},
{
closed = 1;
nodes = (
(735,1415,o),
(770,1380,o),
(770,1331,cs),
(770,1282,o),
(735,1247,o),
(686,1247,cs),
(637,1247,o),
(602,1282,o),
(602,1331,cs),
(602,1380,o),
(637,1415,o),
(686,1415,cs)
);
},
{
closed = 1;
nodes = (
(253,1415,o),
(288,1380,o),
(288,1331,cs),
(288,1282,o),
(253,1247,o),
(204,1247,cs),
(155,1247,o),
(120,1282,o),
(120,1331,cs),
(120,1380,o),
(155,1415,o),
(204,1415,cs)
);
}
);
userData = {
com.fontlab.hintData = {
hhints = (
{
position = 1247;
width = 168;
},
{
position = 1436;
width = 21;
}
);
vhints = (
{
position = 120;
width = 168;
},
{
position = 602;
width = 168;
}
);
};
};
width = 890;
}
);
unicode = 901;
}
{
glyphname = Epsilontonos;
layers = (
{
background = {
shapes = (
{
closed = 1;
nodes = (
(1142,1416,l),
(1142,1276,l),
(518,1276,l),
(518,792,l),
(1062,792,l),
(1062,652,l),
(518,652,l),
(518,140,l),
(1142,140,l),
(1142,0,l),
(362,0,l),
(362,1416,l)
);
},
{
closed = 1;
nodes = (
(176,1269,l),
(50,1269,l),
(102,1543,l),
(272,1543,l)
);
}
);
};
layerId = m001;
shapes = (
{
closed = 1;
nodes = (
(1142,1416,l),
(1142,1276,l),
(518,1276,l),
(518,792,l),
(1062,792,l),
(1062,652,l),
(518,652,l),
(518,140,l),
(1142,140,l),
(1142,0,l),
(362,0,l),
(362,1416,l)
);
},
{
closed = 1;
nodes = (
(176,1269,l),
(50,1269,l),
(102,1543,l),
(272,1543,l)
);
}
);
userData = {
com.fontlab.hintData = {
hhints = (
{
position = 0;
width = 140;
},
{
position = 652;
width = 140;
},
{
position = 1276;
width = 140;
}
);
vhints = (
{
position = 362;
width = 156;
}
);
};
};
width = 1282;
}
);
unicode = 904;
}
{
glyphname = Etatonos;
layers = (
{
background = {
shapes = (
{
closed = 1;
nodes = (
(518,1416,l),
(518,792,l),
(1126,792,l),
(1126,1416,l),
(1282,1416,l),
(1282,0,l),
(1126,0,l),
(1126,652,l),
(518,652,l),
(518,0,l),
(362,0,l),
(362,1416,l)
);
},
{
closed = 1;
nodes = (
(176,1269,l),
(50,1269,l),
(102,1543,l),
(272,1543,l)
);
}
);
};
layerId = m001;
shapes = (
{
closed = 1;
nodes = (
(518,1416,l),
(518,792,l),
(1126,792,l),
(1126,1416,l),
(1282,1416,l),
(1282,0,l),
(1126,0,l),
(1126,652,l),
(518,652,l),
(518,0,l),
(362,0,l),
(362,1416,l)
);
},
{
closed = 1;
nodes = (
(176,1269,l),
(50,1269,l),
(102,1543,l),
(272,1543,l)
);
}
);
userData = {
com.fontlab.hintData = {
hhints = (
{
position = 0;
width = 21;
},
{
position = 652;
width = 140;
},
{
position = 1396;
width = 20;
}
);
vhints = (
{
position = 362;
width = 156;
},
{
position = 1126;
width = 156;
}
);
};
};
width = 1462;
}
);
unicode = 905;
}
{
glyphname = Iotatonos;
layers = (
{
layerId = m001;
shapes = (
{
closed = 1;
nodes = (
(518,0,l),
(362,0,l),
(362,1416,l),
(518,1416,l)
);
},
{
closed = 1;
nodes = (
(176,1269,l),
(50,1269,l),
(102,1543,l),
(272,1543,l)
);
}
);
userData = {
com.fontlab.hintData = {
hhints = (
{
position = 0;
width = 21;
},
{
position = 1396;
width = 20;
}
);
vhints = (
{
position = 362;
width = 156;
}
);
};
};
width = 698;
}
);
unicode = 906;
}
{
glyphname = Omicrontonos;
layers = (
{
background = {
shapes = (
{
closed = 1;
nodes = (
(944,1435,o),
(1091,1329,o),
(1160,1180,cs),
(1226,1038,o),
(1226,856,o),
(1226,708,cs),
(1226,560,o),
(1226,378,o),
(1160,236,cs),
(1091,87,o),
(944,-19,o),
(728,-19,cs),
(512,-19,o),
(365,87,o),
(296,236,cs),
(230,378,o),
(230,560,o),
(230,708,cs),
(230,856,o),
(230,1038,o),
(296,1180,cs),
(365,1329,o),
(512,1435,o),
(728,1435,cs)
);
},
{
closed = 1;
nodes = (
(583,1295,o),
(487,1229,o),
(440,1127,cs),
(387,1012,o),
(386,850,o),
(386,708,cs),
(386,566,o),
(387,404,o),
(440,289,cs),
(487,187,o),
(583,121,o),
(728,121,cs),
(873,121,o),
(969,187,o),
(1016,289,cs),
(1069,404,o),
(1070,566,o),
(1070,708,cs),
(1070,850,o),
(1069,1012,o),
(1016,1127,cs),
(969,1229,o),
(873,1295,o),
(728,1295,cs)
);
},
{
closed = 1;
nodes = (
(176,1269,l),
(50,1269,l),
(102,1543,l),
(272,1543,l)
);
}
);
};
layerId = m001;
shapes = (
{
closed = 1;
nodes = (
(944,1435,o),
(1091,1329,o),
(1160,1180,cs),
(1226,1038,o),
(1226,856,o),
(1226,708,cs),
(1226,560,o),
(1226,378,o),
(1160,236,cs),
(1091,87,o),
(944,-19,o),
(728,-19,cs),
(512,-19,o),
(365,87,o),
(296,236,cs),
(230,378,o),
(230,560,o),
(230,708,cs),
(230,856,o),
(230,1038,o),
(296,1180,cs),
(365,1329,o),
(512,1435,o),
(728,1435,cs)
);
},
{
closed = 1;
nodes = (
(583,1295,o),
(487,1229,o),
(440,1127,cs),
(387,1012,o),
(386,850,o),
(386,708,cs),
(386,566,o),
(387,404,o),
(440,289,cs),
(487,187,o),
(583,121,o),
(728,121,cs),
(873,121,o),
(969,187,o),
(1016,289,cs),
(1069,404,o),
(1070,566,o),
(1070,708,cs),
(1070,850,o),
(1069,1012,o),
(1016,1127,cs),
(969,1229,o),
(873,1295,o),
(728,1295,cs)
);
},
{
closed = 1;
nodes = (
(176,1269,l),
(50,1269,l),
(102,1543,l),
(272,1543,l)
);
}
);
userData = {
com.fontlab.hintData = {
hhints = (
{
position = -19;
width = 140;
},
{
position = 1295;
width = 140;
}
);
vhints = (
{
position = 230;
width = 156;
},
{
position = 1070;
width = 156;
}
);
};
};
width = 1356;
}
);
unicode = 908;
}
{
glyphname = Upsilontonos;
layers = (
{
layerId = m001;
shapes = (
{
closed = 1;
nodes = (
(553,1416,l),
(885,672,l),
(1217,1416,l),
(1386,1416,l),
(963,506,l),
(963,0,l),
(807,0,l),
(807,506,l),
(384,1416,l)
);
},
{
closed = 1;
nodes = (
(176,1269,l),
(50,1269,l),
(102,1543,l),
(272,1543,l)
);
}
);
userData = {
com.fontlab.hintData = {
hhints = (
{
position = 0;
width = 21;
},
{
position = 1396;
width = 20;
}
);
vhints = (
{
position = 807;
width = 156;
}
);
};
};
width = 1426;
}
);
unicode = 910;
}
{
color = 2;
glyphname = Omegatonos;
kernLeft = O;
kernRight = O;
layers = (
{
background = {
shapes = (
{
closed = 1;
nodes = (
(884,1435,o),
(1015,1373,o),
(1094,1280,cs),
(1200,1156,o),
(1213,1008,o),
(1213,843,cs),
(1213,453,o),
(1197,303,o),
(1022,141,c),
(1234,141,l),
(1234,0,l),
(809,0,l),
(809,109,l),
(1052,248,o),
(1057,504,o),
(1057,843,cs),
(1057,963,o),
(1052,1102,o),
(972,1194,cs),
(919,1255,o),
(832,1295,o),
(725,1295,cs),
(618,1295,o),
(531,1255,o),
(478,1194,cs),
(398,1102,o),
(393,963,o),
(393,843,cs),
(393,504,o),
(398,248,o),
(641,109,c),
(641,0,l),
(216,0,l),
(216,141,l),
(428,141,l),
(253,303,o),
(237,453,o),
(237,843,cs),
(237,1008,o),
(250,1156,o),
(356,1280,cs),
(435,1373,o),
(566,1435,o),
(725,1435,cs)
);
},
{
pos = (-62,47);
ref = tonos;
}
);
};
layerId = m001;
shapes = (
{
closed = 1;
nodes = (
(884,1435,o),
(1015,1373,o),
(1094,1280,cs),
(1200,1156,o),
(1213,1008,o),
(1213,843,cs),
(1213,453,o),
(1197,303,o),
(1022,141,c),
(1234,141,l),
(1234,0,l),
(809,0,l),
(809,109,l),
(1052,248,o),
(1057,504,o),
(1057,843,cs),
(1057,963,o),
(1052,1102,o),
(972,1194,cs),
(919,1255,o),
(832,1295,o),
(725,1295,cs),
(618,1295,o),
(531,1255,o),
(478,1194,cs),
(398,1102,o),
(393,963,o),
(393,843,cs),
(393,504,o),
(398,248,o),
(641,109,c),
(641,0,l),
(216,0,l),
(216,141,l),
(428,141,l),
(253,303,o),
(237,453,o),
(237,843,cs),
(237,1008,o),
(250,1156,o),
(356,1280,cs),
(435,1373,o),
(566,1435,o),
(725,1435,cs)
);
},
{
pos = (-62,47);
ref = tonos;
}
);
userData = {
com.fontlab.hintData = {
hhints = (
{
position = 0;
width = 141;
},
{
position = 1269;
width = 274;
},
{
position = 1295;
width = 140;
}
);
vhints = (
{
position = 70;
width = 222;
},
{
position = 237;
width = 156;
},
{
position = 1057;
width = 156;
}
);
};
};
width = 1364;
}
);
unicode = 911;
}
{
glyphname = Gamma;
layers = (
{
anchors = (
{
name = top;
pos = (490,1416);
}
);
background = {
anchors = (
{
name = top;
pos = (490,1416);
}
);
shapes = (
{
closed = 1;
nodes = (
(180,1416,l),
(900,1416,l),
(900,1276,l),
(336,1276,l),
(336,0,l),
(180,0,l)
);
}
);
};
layerId = m001;
shapes = (
{
closed = 1;
nodes = (
(180,1416,l),
(900,1416,l),
(900,1276,l),
(336,1276,l),
(336,0,l),
(180,0,l)
);
}
);
userData = {
com.fontlab.hintData = {
hhints = (
{
position = 0;
width = 21;
},
{
position = 1276;
width = 140;
}
);
vhints = (
{
position = 180;
width = 156;
}
);
};
};
width = 990;
}
);
unicode = 915;
}
{
glyphname = Delta;
kernLeft = A;
kernRight = A;
layers = (
{
background = {
shapes = (
{
closed = 1;
nodes = (
(595,1205,l),
(250,140,l),
(940,140,l)
);
},
{
closed = 1;
nodes = (
(670,1416,l),
(1150,0,l),
(40,0,l),
(520,1416,l)
);
}
);
};
layerId = m001;
shapes = (
{
closed = 1;
nodes = (
(595,1205,l),
(250,140,l),
(940,140,l)
);
},
{
closed = 1;
nodes = (
(670,1416,l),
(1150,0,l),
(40,0,l),
(520,1416,l)
);
}
);
userData = {
com.fontlab.hintData = {
hhints = (
{
position = 0;
width = 140;
},
{
position = 1396;
width = 20;
}
);
};
};
width = 1190;
}
);
unicode = 916;
}
{
color = 2;
glyphname = Theta;
layers = (
{
layerId = m001;
shapes = (
{
closed = 1;
nodes = (
(792,792,l),
(792,652,l),
(464,652,l),
(464,792,l)
);
},
{
ref = O;
}
);
userData = {
com.fontlab.hintData = {
hhints = (
{
position = -19;
width = 140;
},
{
position = 652;
width = 140;
},
{
position = 1295;
width = 140;
}
);
vhints = (
{
position = 130;
width = 156;
},
{
position = 970;
width = 156;
}
);
};
};
width = 1256;
}
);
unicode = 920;
}
{
glyphname = Xi;
layers = (
{
anchors = (
{
name = Apos;
pos = (-7,0);
},
{
name = Bottom;
pos = (515,0);
},
{
name = Center;
pos = (-7,0);
},
{
name = DoubleTop;
pos = (-7,0);
},
{
name = Top;
pos = (515,1364);
}
);
layerId = m001;
shapes = (
{
closed = 1;
nodes = (
(816,792,l),
(816,652,l),
(201,652,l),
(201,792,l)
);
},
{
closed = 1;
nodes = (
(877,140,l),
(877,0,l),
(140,0,l),
(140,140,l)
);
},
{
closed = 1;
nodes = (
(877,1416,l),
(877,1276,l),
(140,1276,l),
(140,1416,l)
);
}
);
userData = {
com.fontlab.hintData = {
hhints = (
{
position = 0;
width = 140;
},
{
position = 652;
width = 140;
},
{
position = 1276;
width = 140;
}
);
};
};
width = 1017;
}
);
unicode = 926;
}
{
glyphname = Pi;
layers = (
{
layerId = m001;
shapes = (
{
closed = 1;
nodes = (
(1080,1416,l),
(1080,0,l),
(924,0,l),
(924,1276,l),
(336,1276,l),
(336,0,l),
(180,0,l),
(180,1416,l)
);
}
);
userData = {
com.fontlab.hintData = {
hhints = (
{
position = 0;
width = 21;
},
{
position = 1276;
width = 140;
}
);
vhints = (
{
position = 180;
width = 156;
},
{
position = 924;
width = 156;
}
);
};
};
width = 1260;
}
);
unicode = 928;
}
{
glyphname = Sigma;
layers = (
{
background = {
shapes = (
{
closed = 1;
nodes = (
(294,140,l),
(880,140,l),
(880,0,l),
(100,0,l),
(100,102,l),
(479,722,l),
(100,1314,l),
(100,1416,l),
(880,1416,l),
(880,1276,l),
(294,1276,l),
(632,755,l),
(632,694,l)
);
}
);
};
layerId = m001;
shapes = (
{
closed = 1;
nodes = (
(294,140,l),
(880,140,l),
(880,0,l),
(100,0,l),
(100,102,l),
(479,722,l),
(100,1314,l),
(100,1416,l),
(880,1416,l),
(880,1276,l),
(294,1276,l),
(632,755,l),
(632,694,l)
);
}
);
userData = {
com.fontlab.hintData = {
hhints = (
{
position = 0;
width = 140;
},
{
position = 1276;
width = 140;
}
);
};
};
width = 980;
}
);
unicode = 931;
}
{
glyphname = Upsilon;
layers = (
{
anchors = (
{
name = Top;
pos = (541,1416);
}
);
layerId = m001;
shapes = (
{
closed = 1;
nodes = (
(209,1416,l),
(541,672,l),
(873,1416,l),
(1042,1416,l),
(619,506,l),
(619,0,l),
(463,0,l),
(463,506,l),
(40,1416,l)
);
}
);
userData = {
com.fontlab.hintData = {
hhints = (
{
position = 0;
width = 21;
},
{
position = 1396;
width = 20;
}
);
vhints = (
{
position = 463;
width = 156;
}
);
};
};
width = 1082;
}
);
unicode = 933;
}
{
glyphname = Phi;
layers = (
{
layerId = m001;
shapes = (
{
closed = 1;
nodes = (
(640,1108,l),
(527,1108,o),
(434,1099,o),
(371,1046,cs),
(292,979,o),
(276,854,o),
(276,708,cs),
(276,562,o),
(292,437,o),
(371,370,cs),
(433,317,o),
(527,308,o),
(640,308,c)
);
},
{
closed = 1;
nodes = (
(954,1248,o),
(1069,1234,o),
(1171,1148,cs),
(1289,1048,o),
(1316,901,o),
(1316,708,cs),
(1316,515,o),
(1289,368,o),
(1171,268,cs),
(1069,182,o),
(955,168,o),
(796,168,c),
(796,0,l),
(640,0,l),
(640,168,l),
(482,168,o),
(367,182,o),
(265,268,cs),
(147,368,o),
(120,515,o),
(120,708,cs),
(120,901,o),
(147,1048,o),
(265,1148,cs),
(367,1234,o),
(481,1248,o),
(640,1248,c),
(640,1416,l),
(796,1416,l),
(796,1248,l)
);
},
{
closed = 1;
nodes = (
(796,308,l),
(909,308,o),
(1002,317,o),
(1065,370,cs),
(1144,437,o),
(1160,562,o),
(1160,708,cs),
(1160,854,o),
(1144,979,o),
(1065,1046,cs),
(1003,1099,o),
(909,1108,o),
(796,1108,c)
);
}
);
userData = {
com.fontlab.hintData = {
hhints = (
{
position = 0;
width = 21;
},
{
position = 168;
width = 140;
},
{
position = 1108;
width = 140;
},
{
position = 1396;
width = 20;
}
);
vhints = (
{
position = 120;
width = 156;
},
{
position = 640;
width = 156;
},
{
position = 1160;
width = 156;
}
);
};
};
width = 1436;
}
);
unicode = 934;
}
{
glyphname = Psi;
layers = (
{
layerId = m001;
shapes = (
{
closed = 1;
nodes = (
(892,471,o),
(964,510,o),
(1011,567,cs),
(1106,684,o),
(1110,812,o),
(1110,968,cs),
(1110,1416,l),
(1266,1416,l),
(1266,968,ls),
(1266,812,o),
(1266,639,o),
(1137,484,cs),
(1066,398,o),
(952,332,o),
(786,321,c),
(786,0,l),
(630,0,l),
(630,321,l),
(464,332,o),
(350,398,o),
(279,484,cs),
(150,639,o),
(150,812,o),
(150,968,cs),
(150,1416,l),
(306,1416,l),
(306,968,ls),
(306,812,o),
(310,684,o),
(405,567,cs),
(452,510,o),
(524,471,o),
(630,462,c),
(630,1416,l),
(786,1416,l),
(786,462,l)
);
}
);
userData = {
com.fontlab.hintData = {
hhints = (
{
position = 0;
width = 21;
},
{
position = 321;
width = 141;
},
{
position = 1396;
width = 20;
}
);
vhints = (
{
position = 150;
width = 156;
},
{
position = 630;
width = 156;
},
{
position = 1110;
width = 156;
}
);
};
};
width = 1416;
}
);
unicode = 936;
}
{
glyphname = Omega;
layers = (
{
layerId = m001;
shapes = (
{
closed = 1;
nodes = (
(814,1435,o),
(945,1373,o),
(1024,1280,cs),
(1130,1156,o),
(1143,1008,o),
(1143,843,cs),
(1143,453,o),
(1127,303,o),
(952,141,c),
(1164,141,l),
(1164,0,l),
(739,0,l),
(739,109,l),
(982,248,o),
(987,504,o),
(987,843,cs),
(987,963,o),
(982,1102,o),
(902,1194,cs),
(849,1255,o),
(762,1295,o),
(655,1295,cs),
(548,1295,o),
(461,1255,o),
(408,1194,cs),
(328,1102,o),
(323,963,o),
(323,843,cs),
(323,504,o),
(328,248,o),
(571,109,c),
(571,0,l),
(146,0,l),
(146,141,l),
(358,141,l),
(183,303,o),
(167,453,o),
(167,843,cs),
(167,1008,o),
(180,1156,o),
(286,1280,cs),
(365,1373,o),
(496,1435,o),
(655,1435,cs)
);
}
);
userData = {
com.fontlab.hintData = {
hhints = (
{
position = 0;
width = 141;
},
{
position = 1295;
width = 140;
}
);
vhints = (
{
position = 167;
width = 156;
},
{
position = 987;
width = 156;
}
);
};
};
width = 1310;
}
);
unicode = 937;
}
{
glyphname = alpha;
layers = (
{
anchors = (
{
name = bottom;
pos = (310,0);
},
{
name = top;
pos = (520,1082);
}
);
background = {
anchors = (
{
name = bottom;
pos = (310,0);
},
{
name = top;
pos = (520,1082);
}
);
shapes = (
{
closed = 1;
nodes = (
(647,1098,o),
(735,1053,o),
(805,967,c),
(805,1082,l),
(955,1082,l),
(955,191,ls),
(955,169,o),
(955,146,o),
(966,132,cs),
(974,122,o),
(985,118,o),
(1001,118,cs),
(1015,118,o),
(1031,120,o),
(1047,124,c),
(1071,-4,l),
(1044,-12,o),
(1014,-16,o),
(979,-16,cs),
(887,-16,o),
(823,42,o),
(813,126,c),
(740,34,o),
(653,-16,o),
(520,-16,cs),
(376,-16,o),
(268,52,o),
(205,144,cs),
(125,261,o),
(125,408,o),
(125,541,cs),
(125,674,o),
(125,821,o),
(205,938,cs),
(268,1030,o),
(376,1098,o),
(520,1098,cs)
);
},
{
closed = 1;
nodes = (
(447,964,o),
(376,923,o),
(335,865,cs),
(276,782,o),
(275,664,o),
(275,541,cs),
(275,418,o),
(276,300,o),
(335,217,cs),
(376,159,o),
(447,118,o),
(540,118,cs),
(633,118,o),
(704,159,o),
(745,217,cs),
(804,300,o),
(805,418,o),
(805,541,cs),
(805,664,o),
(804,782,o),
(745,865,cs),
(704,923,o),
(633,964,o),
(540,964,cs)
);
}
);
};
layerId = m001;
shapes = (
{
closed = 1;
nodes = (
(647,1098,o),
(735,1053,o),
(805,967,c),
(805,1082,l),
(955,1082,l),
(955,191,ls),
(955,169,o),
(955,146,o),
(966,132,cs),
(974,122,o),
(985,118,o),
(1001,118,cs),
(1015,118,o),
(1031,120,o),
(1047,124,c),
(1071,-4,l),
(1044,-12,o),
(1014,-16,o),
(979,-16,cs),
(887,-16,o),
(823,42,o),
(813,126,c),
(740,34,o),
(653,-16,o),
(520,-16,cs),
(376,-16,o),
(268,52,o),
(205,144,cs),
(125,261,o),
(125,408,o),
(125,541,cs),
(125,674,o),
(125,821,o),
(205,938,cs),
(268,1030,o),
(376,1098,o),
(520,1098,cs)
);
},
{
closed = 1;
nodes = (
(447,964,o),
(376,923,o),
(335,865,cs),
(276,782,o),
(275,664,o),
(275,541,cs),
(275,418,o),
(276,300,o),
(335,217,cs),
(376,159,o),
(447,118,o),
(540,118,cs),
(633,118,o),
(704,159,o),
(745,217,cs),
(804,300,o),
(805,418,o),
(805,541,cs),
(805,664,o),
(804,782,o),
(745,865,cs),
(704,923,o),
(633,964,o),
(540,964,cs)
);
}
);
userData = {
com.fontlab.hintData = {
hhints = (
{
position = -16;
width = 134;
},
{
position = 964;
width = 134;
},
{
position = 1062;
width = 20;
}
);
vhints = (
{
position = 125;
width = 150;
},
{
position = 805;
width = 150;
}
);
};
};
width = 1115;
}
);
unicode = 945;
}
